LibreCaslonText-Regular.ufo
<glyph name="exclam" format="1">
  <advance width="301"/>
  <unicode hex="0021"/>
  <outline>
    <contour>
      <point x="166" y="230" type="line"/>
      <point x="172" y="337"/>
      <point x="182" y="438"/>
      <point x="191" y="520" type="curve" smooth="yes"/>
      <point x="202" y="616"/>
      <point x="211" y="688"/>
      <point x="211" y="714" type="curve" smooth="yes"/>
      <point x="211" y="750"/>
      <point x="194" y="780"/>
      <point x="151" y="780" type="curve" smooth="yes"/>
      <point x="112" y="780"/>
      <point x="90" y="750"/>
      <point x="90" y="711" type="curve" smooth="yes"/>
      <point x="90" y="686"/>
      <point x="99" y="614"/>
      <point x="110" y="516" type="curve" smooth="yes"/>
      <point x="119" y="435"/>
      <point x="128" y="336"/>
      <point x="135" y="230" type="curve"/>
    </contour>
    <contour>
      <point x="86" y="54" type="curve" smooth="yes"/>
      <point x="86" y="19"/>
      <point x="111" y="-10"/>
      <point x="150" y="-10" type="curve" smooth="yes"/>
      <point x="191" y="-10"/>
      <point x="216" y="19"/>
      <point x="216" y="54" type="curve" smooth="yes"/>
      <point x="216" y="92"/>
      <point x="191" y="120"/>
      <point x="150" y="120" type="curve" smooth="yes"/>
      <point x="111" y="120"/>
      <point x="86" y="92"/>
    </contour>
  </outline>
</glyph>
<glyph name="dollar" format="1">
  <advance width="537"/>
  <unicode hex="0024"/>
  <outline>
    <contour>
      <point x="290" y="780" type="curve" smooth="yes" name="hr00"/>
      <point x="158" y="780"/>
      <point x="61" y="690"/>
      <point x="61" y="568" type="curve" smooth="yes"/>
      <point x="61" y="334"/>
      <point x="394" y="354"/>
      <point x="394" y="159" type="curve" smooth="yes"/>
      <point x="394" y="83"/>
      <point x="343" y="32"/>
      <point x="266" y="32" type="curve" smooth="yes"/>
      <point x="211" y="32"/>
      <point x="179" y="58"/>
      <point x="167" y="112" type="curve" smooth="yes"/>
      <point x="157" y="158"/>
      <point x="137" y="180"/>
      <point x="106" y="180" type="curve" smooth="yes"/>
      <point x="73" y="180"/>
      <point x="52" y="157"/>
      <point x="52" y="121" type="curve" smooth="yes"/>
      <point x="52" y="49"/>
      <point x="139" y="-9"/>
      <point x="246" y="-9" type="curve" smooth="yes"/>
      <point x="383" y="-9"/>
      <point x="486" y="88"/>
      <point x="486" y="218" type="curve" smooth="yes"/>
      <point x="486" y="453"/>
      <point x="166" y="428"/>
      <point x="166" y="623" type="curve" smooth="yes"/>
      <point x="166" y="692"/>
      <point x="210" y="739"/>
      <point x="275" y="739" type="curve" smooth="yes"/>
      <point x="319" y="739"/>
      <point x="348" y="712"/>
      <point x="360" y="659" type="curve" smooth="yes"/>
      <point x="370" y="612"/>
      <point x="389" y="591"/>
      <point x="421" y="591" type="curve" smooth="yes"/>
      <point x="454" y="591"/>
      <point x="475" y="614"/>
      <point x="475" y="650" type="curve" smooth="yes"/>
      <point x="475" y="722"/>
      <point x="393" y="780"/>
    </contour>
    <contour>
      <point x="299" y="888" type="line"/>
      <point x="257" y="888" type="line"/>
      <point x="257" y="-102" type="line"/>
      <point x="299" y="-102" type="line"/>
    </contour>
  </outline>
</glyph>
<glyph name="percent" format="1">
  <advance width="807"/>
  <unicode hex="0025"/>
  <outline>
    <contour>
      <point x="193" y="779" type="curve" smooth="yes"/>
      <point x="105" y="779"/>
      <point x="36" y="685"/>
      <point x="36" y="564" type="curve" smooth="yes"/>
      <point x="36" y="446"/>
      <point x="104" y="354"/>
      <point x="193" y="354" type="curve" smooth="yes"/>
      <point x="282" y="354"/>
      <point x="351" y="447"/>
      <point x="351" y="564" type="curve" smooth="yes"/>
      <point x="351" y="684"/>
      <point x="281" y="779"/>
    </contour>
    <contour>
      <point x="193" y="744" type="curve" smooth="yes"/>
      <point x="238" y="744"/>
      <point x="256" y="707"/>
      <point x="256" y="565" type="curve" smooth="yes"/>
      <point x="256" y="423"/>
      <point x="239" y="390"/>
      <point x="193" y="390" type="curve" smooth="yes"/>
      <point x="148" y="390"/>
      <point x="131" y="422"/>
      <point x="131" y="565" type="curve" smooth="yes"/>
      <point x="131" y="707"/>
      <point x="148" y="744"/>
    </contour>
    <contour>
      <point x="614" y="415" type="curve" smooth="yes"/>
      <point x="526" y="415"/>
      <point x="457" y="321"/>
      <point x="457" y="200" type="curve" smooth="yes"/>
      <point x="457" y="82"/>
      <point x="525" y="-10"/>
      <point x="614" y="-10" type="curve" smooth="yes"/>
      <point x="703" y="-10"/>
      <point x="772" y="83"/>
      <point x="772" y="200" type="curve" smooth="yes"/>
      <point x="772" y="320"/>
      <point x="702" y="415"/>
    </contour>
    <contour>
      <point x="614" y="380" type="curve" smooth="yes"/>
      <point x="659" y="380"/>
      <point x="677" y="343"/>
      <point x="677" y="201" type="curve" smooth="yes"/>
      <point x="677" y="59"/>
      <point x="660" y="26"/>
      <point x="614" y="26" type="curve" smooth="yes"/>
      <point x="569" y="26"/>
      <point x="552" y="58"/>
      <point x="552" y="201" type="curve" smooth="yes"/>
      <point x="552" y="343"/>
      <point x="569" y="380"/>
    </contour>
    <contour>
      <point x="205" y="0" type="line"/>
      <point x="675" y="770" type="line"/>
      <point x="605" y="770" type="line"/>
      <point x="136" y="0" type="line"/>
    </contour>
  </outline>
</glyph>
<glyph name="ampersand" format="1">
  <advance width="812"/>
  <unicode hex="0026"/>
  <outline>
    <contour>
      <point x="274" y="435" type="line"/>
      <point x="212" y="513"/>
      <point x="202" y="571"/>
      <point x="202" y="607" type="curve" smooth="yes"/>
      <point x="202" y="712"/>
      <point x="288" y="780"/>
      <point x="385" y="780" type="curve" smooth="yes"/>
      <point x="462" y="780"/>
      <point x="529" y="737"/>
      <point x="529" y="662" type="curve" smooth="yes"/>
      <point x="529" y="598"/>
      <point x="480" y="523"/>
      <point x="340" y="433" type="curve" smooth="yes"/>
      <point x="218" y="355"/>
      <point x="194" y="290"/>
      <point x="194" y="224" type="curve" smooth="yes"/>
      <point x="194" y="134"/>
      <point x="238" y="47"/>
      <point x="351" y="47" type="curve" smooth="yes"/>
      <point x="409" y="47"/>
      <point x="494" y="70"/>
      <point x="568" y="182" type="curve" smooth="yes"/>
      <point x="611" y="247"/>
      <point x="639" y="324"/>
      <point x="639" y="392" type="curve" smooth="yes"/>
      <point x="639" y="426"/>
      <point x="632" y="431"/>
      <point x="542" y="441" type="curve" smooth="yes"/>
      <point x="542" y="465" type="line"/>
      <point x="797" y="465" type="line"/>
      <point x="797" y="441" type="line" smooth="yes"/>
      <point x="708" y="433"/>
      <point x="698" y="423"/>
      <point x="687" y="377" type="curve" smooth="yes"/>
      <point x="674" y="322"/>
      <point x="645" y="234"/>
      <point x="594" y="156" type="curve" smooth="yes"/>
      <point x="503" y="14"/>
      <point x="392" y="-10"/>
      <point x="307" y="-10" type="curve" smooth="yes"/>
      <point x="159" y="-10"/>
      <point x="90" y="68"/>
      <point x="90" y="180" type="curve" smooth="yes"/>
      <point x="90" y="286"/>
      <point x="152" y="353"/>
      <point x="326" y="463" type="curve" smooth="yes"/>
      <point x="429" y="528"/>
      <point x="461" y="574"/>
      <point x="461" y="637" type="curve" smooth="yes"/>
      <point x="461" y="707"/>
      <point x="421" y="744"/>
      <point x="364" y="744" type="curve" smooth="yes"/>
      <point x="314" y="744"/>
      <point x="272" y="715"/>
      <point x="272" y="652" type="curve" smooth="yes"/>
      <point x="272" y="614"/>
      <point x="287" y="574"/>
      <point x="346" y="502" type="curve" smooth="yes"/>
      <point x="711" y="51" type="line"/>
      <point x="797" y="23" type="line"/>
      <point x="797" y="0" type="line"/>
      <point x="623" y="0" type="line"/>
    </contour>
  </outline>
</glyph>
<glyph name="parenleft" format="1">
  <advance width="305"/>
  <unicode hex="0028"/>
  <outline>
    <contour>
      <point x="251" y="-200" type="line"/>
      <point x="163" y="-110"/>
      <point x="47" y="50"/>
      <point x="47" y="305" type="curve" smooth="yes"/>
      <point x="47" y="535"/>
      <point x="171" y="749"/>
      <point x="268" y="830" type="curve"/>
      <point x="279" y="820" type="line"/>
      <point x="228" y="742"/>
      <point x="139" y="519"/>
      <point x="139" y="304" type="curve" smooth="yes"/>
      <point x="139" y="49"/>
      <point x="220" y="-110"/>
      <point x="267" y="-187" type="curve"/>
    </contour>
  </outline>
</glyph>
<glyph name="slash" format="1">
  <advance width="363"/>
  <unicode hex="002F"/>
  <outline>
    <contour>
      <point x="115" y="-169" type="line"/>
      <point x="316" y="819" type="line"/>
      <point x="247" y="819" type="line"/>
      <point x="47" y="-169" type="line"/>
    </contour>
  </outline>
</glyph>
<glyph name="zero" format="1">
  <advance width="640"/>
  <unicode hex="0030"/>
  <outline>
    <contour>
      <point x="319" y="780" type="curve" smooth="yes" name="hr00"/>
      <point x="173" y="780"/>
      <point x="59" y="605"/>
      <point x="59" y="381" type="curve" smooth="yes"/>
      <point x="59" y="159"/>
      <point x="172" y="-10"/>
      <point x="319" y="-10" type="curve" smooth="yes"/>
      <point x="467" y="-10"/>
      <point x="581" y="160"/>
      <point x="581" y="381" type="curve" smooth="yes"/>
      <point x="581" y="604"/>
      <point x="465" y="780"/>
    </contour>
    <contour>
      <point x="319" y="739" type="curve" smooth="yes"/>
      <point x="420" y="739"/>
      <point x="459" y="638"/>
      <point x="459" y="382" type="curve" smooth="yes"/>
      <point x="459" y="126"/>
      <point x="421" y="31"/>
      <point x="319" y="31" type="curve" smooth="yes"/>
      <point x="218" y="31"/>
      <point x="181" y="124"/>
      <point x="181" y="382" type="curve" smooth="yes"/>
      <point x="181" y="640"/>
      <point x="219" y="739"/>
    </contour>
  </outline>
</glyph>
<glyph name="one" format="1">
  <advance width="420"/>
  <unicode hex="0031"/>
  <outline>
    <contour>
      <point x="255" y="780" type="line" name="hr00"/>
      <point x="184" y="713"/>
      <point x="112" y="672"/>
      <point x="43" y="650" type="curve"/>
      <point x="43" y="629" type="line"/>
      <point x="171" y="629" type="line"/>
      <point x="171" y="42" type="line"/>
      <point x="39" y="22" type="line"/>
      <point x="39" y="0" type="line"/>
      <point x="405" y="0" type="line"/>
      <point x="405" y="22" type="line"/>
      <point x="276" y="42" type="line"/>
      <point x="276" y="772" type="line"/>
    </contour>
  </outline>
</glyph>
<glyph name="three" format="1">
  <advance width="554"/>
  <unicode hex="0033"/>
  <outline>
    <contour>
      <point x="175" y="371" type="line" name="hr00"/>
      <point x="199" y="374"/>
      <point x="218" y="376"/>
      <point x="232" y="376" type="curve" smooth="yes"/>
      <point x="328" y="376"/>
      <point x="404" y="300"/>
      <point x="404" y="204" type="curve" smooth="yes"/>
      <point x="404" y="113"/>
      <point x="336" y="35"/>
      <point x="256" y="35" type="curve" smooth="yes"/>
      <point x="144" y="35"/>
      <point x="187" y="187"/>
      <point x="100" y="187" type="curve" smooth="yes"/>
      <point x="66" y="187"/>
      <point x="44" y="164"/>
      <point x="44" y="126" type="curve" smooth="yes"/>
      <point x="44" y="51"/>
      <point x="129" y="-10"/>
      <point x="234" y="-10" type="curve" smooth="yes"/>
      <point x="380" y="-10"/>
      <point x="497" y="108"/>
      <point x="497" y="255" type="curve" smooth="yes"/>
      <point x="497" y="369"/>
      <point x="428" y="447"/>
      <point x="323" y="456" type="curve"/>
      <point x="323" y="460" type="line"/>
      <point x="403" y="505"/>
      <point x="449" y="569"/>
      <point x="449" y="637" type="curve" smooth="yes"/>
      <point x="449" y="720"/>
      <point x="381" y="780"/>
      <point x="287" y="780" type="curve" smooth="yes"/>
      <point x="180" y="780"/>
      <point x="90" y="705"/>
      <point x="68" y="597" type="curve"/>
      <point x="92" y="591" type="line"/>
      <point x="123" y="663"/>
      <point x="182" y="710"/>
      <point x="248" y="710" type="curve" smooth="yes"/>
      <point x="299" y="710"/>
      <point x="338" y="667"/>
      <point x="338" y="602" type="curve" smooth="yes"/>
      <point x="338" y="520"/>
      <point x="276" y="446"/>
      <point x="169" y="398" type="curve"/>
    </contour>
  </outline>
</glyph>
<glyph name="four" format="1">
  <advance width="582"/>
  <unicode hex="0034"/>
  <outline>
    <contour>
      <point x="338" y="42" type="line" name="hr00"/>
      <point x="218" y="23" type="line"/>
      <point x="218" y="0" type="line"/>
      <point x="528" y="0" type="line"/>
      <point x="528" y="23" type="line"/>
      <point x="439" y="42" type="line"/>
      <point x="439" y="213" type="line"/>
      <point x="532" y="213" type="line"/>
      <point x="532" y="289" type="line"/>
      <point x="439" y="289" type="line"/>
      <point x="439" y="770" type="line"/>
      <point x="413" y="780" type="line"/>
      <point x="10" y="230" type="line"/>
      <point x="18" y="213" type="line"/>
      <point x="338" y="213" type="line"/>
    </contour>
    <contour>
      <point x="338" y="289" type="line"/>
      <point x="108" y="289" type="line"/>
      <point x="107" y="293" type="line"/>
      <point x="334" y="606" type="line"/>
      <point x="338" y="606" type="line"/>
    </contour>
  </outline>
</glyph>
<glyph name="six" format="1">
  <advance width="590"/>
  <unicode hex="0036"/>
  <outline>
    <contour>
      <point x="300" y="-10" type="curve" smooth="yes" name="hr00"/>
      <point x="449" y="-10"/>
      <point x="553" y="91"/>
      <point x="553" y="236" type="curve" smooth="yes"/>
      <point x="553" y="371"/>
      <point x="464" y="464"/>
      <point x="336" y="464" type="curve" smooth="yes"/>
      <point x="275" y="464"/>
      <point x="215" y="443"/>
      <point x="186" y="412" type="curve"/>
      <point x="202" y="530"/>
      <point x="321" y="689"/>
      <point x="440" y="752" type="curve"/>
      <point x="432" y="777" type="line"/>
      <point x="203" y="693"/>
      <point x="55" y="493"/>
      <point x="55" y="271" type="curve" smooth="yes"/>
      <point x="55" y="96"/>
      <point x="147" y="-10"/>
    </contour>
    <contour>
      <point x="306" y="35" type="curve" smooth="yes"/>
      <point x="224" y="35"/>
      <point x="172" y="114"/>
      <point x="172" y="241" type="curve" smooth="yes"/>
      <point x="172" y="278"/>
      <point x="177" y="323"/>
      <point x="184" y="353" type="curve"/>
      <point x="208" y="386"/>
      <point x="251" y="407"/>
      <point x="297" y="407" type="curve" smooth="yes"/>
      <point x="381" y="407"/>
      <point x="434" y="335"/>
      <point x="434" y="219" type="curve" smooth="yes"/>
      <point x="434" y="107"/>
      <point x="384" y="35"/>
    </contour>
  </outline>
</glyph>
<glyph name="seven" format="1">
  <advance width="493"/>
  <unicode hex="0037"/>
  <outline>
    <contour>
      <point x="124" y="757" type="line" name="hr00"/>
      <point x="121" y="765"/>
      <point x="120" y="774"/>
      <point x="120" y="785" type="curve"/>
      <point x="97" y="792" type="line"/>
      <point x="22" y="602" type="line"/>
      <point x="43" y="591" type="line"/>
      <point x="67" y="628"/>
      <point x="83" y="647"/>
      <point x="107" y="667" type="curve"/>
      <point x="401" y="667" type="line"/>
      <point x="154" y="154" type="line" smooth="yes"/>
      <point x="130" y="104"/>
      <point x="114" y="68"/>
      <point x="114" y="41" type="curve" smooth="yes"/>
      <point x="114" y="9"/>
      <point x="132" y="-10"/>
      <point x="162" y="-10" type="curve" smooth="yes"/>
      <point x="192" y="-10"/>
      <point x="214" y="10"/>
      <point x="226" y="48" type="curve" smooth="yes"/>
      <point x="343" y="411"/>
      <point x="360" y="460"/>
      <point x="483" y="745" type="curve"/>
      <point x="475" y="757" type="line"/>
    </contour>
  </outline>
</glyph>
<glyph name="nine" format="1">
  <advance width="591"/>
  <unicode hex="0039"/>
  <outline>
    <contour>
      <point x="290" y="777" type="curve" name="hr00"/>
      <point x="141" y="777"/>
      <point x="37" y="676"/>
      <point x="37" y="531" type="curve" smooth="yes"/>
      <point x="37" y="396"/>
      <point x="126" y="303"/>
      <point x="254" y="303" type="curve" smooth="yes"/>
      <point x="315" y="303"/>
      <point x="375" y="324"/>
      <point x="404" y="355" type="curve"/>
      <point x="388" y="237"/>
      <point x="269" y="78"/>
      <point x="150" y="15" type="curve"/>
      <point x="158" y="-10" type="line"/>
      <point x="387" y="74"/>
      <point x="535" y="274"/>
      <point x="535" y="496" type="curve" smooth="yes"/>
      <point x="535" y="671"/>
      <point x="443" y="777"/>
    </contour>
    <contour>
      <point x="284" y="732" type="curve"/>
      <point x="366" y="732"/>
      <point x="418" y="653"/>
      <point x="418" y="526" type="curve" smooth="yes"/>
      <point x="418" y="489"/>
      <point x="413" y="444"/>
      <point x="406" y="414" type="curve"/>
      <point x="382" y="381"/>
      <point x="339" y="360"/>
      <point x="293" y="360" type="curve" smooth="yes"/>
      <point x="209" y="360"/>
      <point x="156" y="432"/>
      <point x="156" y="548" type="curve" smooth="yes"/>
      <point x="156" y="660"/>
      <point x="206" y="732"/>
    </contour>
  </outline>
</glyph>
<glyph name="less" format="1">
  <advance width="519"/>
  <unicode hex="003C"/>
  <outline>
    <contour>
      <point x="447" y="116" type="line"/>
      <point x="447" y="181" type="line"/>
      <point x="110" y="337" type="line"/>
      <point x="110" y="341" type="line"/>
      <point x="447" y="495" type="line"/>
      <point x="447" y="556" type="line"/>
      <point x="38" y="361" type="line"/>
      <point x="38" y="310" type="line"/>
    </contour>
  </outline>
</glyph>
<glyph name="equal" format="1">
  <advance width="566"/>
  <unicode hex="003D"/>
  <outline>
    <contour>
      <point x="488" y="401" type="line" name="hr00"/>
      <point x="488" y="445" type="line"/>
      <point x="78" y="445" type="line"/>
      <point x="78" y="401" type="line"/>
    </contour>
    <contour>
      <point x="488" y="240" type="line"/>
      <point x="488" y="284" type="line"/>
      <point x="78" y="284" type="line"/>
      <point x="78" y="240" type="line"/>
    </contour>
  </outline>
</glyph>
<glyph name="at" format="1">
  <advance width="875"/>
  <unicode hex="0040"/>
  <outline>
    <contour>
      <point x="418" y="-143" type="curve" smooth="yes"/>
      <point x="233" y="-143"/>
      <point x="57" y="-45"/>
      <point x="57" y="203" type="curve" smooth="yes"/>
      <point x="57" y="465"/>
      <point x="253" y="640"/>
      <point x="481" y="640" type="curve" smooth="yes"/>
      <point x="685" y="640"/>
      <point x="811" y="500"/>
      <point x="811" y="328" type="curve" smooth="yes"/>
      <point x="811" y="171"/>
      <point x="707" y="31"/>
      <point x="580" y="31" type="curve" smooth="yes"/>
      <point x="514" y="31"/>
      <point x="477" y="68"/>
      <point x="477" y="113" type="curve" smooth="yes"/>
      <point x="477" y="125"/>
      <point x="477" y="132"/>
      <point x="482" y="137" type="curve" smooth="yes"/>
      <point x="478" y="138" type="line" smooth="yes"/>
      <point x="427" y="70"/>
      <point x="373" y="44"/>
      <point x="324" y="44" type="curve" smooth="yes"/>
      <point x="255" y="44"/>
      <point x="222" y="94"/>
      <point x="222" y="163" type="curve" smooth="yes"/>
      <point x="222" y="299"/>
      <point x="350" y="460"/>
      <point x="472" y="460" type="curve" smooth="yes"/>
      <point x="512" y="460"/>
      <point x="536" y="443"/>
      <point x="550" y="421" type="curve" smooth="yes"/>
      <point x="554" y="421" type="line"/>
      <point x="565" y="460" type="line"/>
      <point x="645" y="460" type="line"/>
      <point x="564" y="170" type="line" smooth="yes"/>
      <point x="559" y="154"/>
      <point x="555" y="135"/>
      <point x="555" y="120" type="curve" smooth="yes"/>
      <point x="555" y="89"/>
      <point x="572" y="81"/>
      <point x="596" y="81" type="curve" smooth="yes"/>
      <point x="682" y="81"/>
      <point x="761" y="185"/>
      <point x="761" y="325" type="curve" smooth="yes"/>
      <point x="761" y="512"/>
      <point x="619" y="595"/>
      <point x="471" y="595" type="curve" smooth="yes"/>
      <point x="247" y="595"/>
      <point x="113" y="407"/>
      <point x="113" y="202" type="curve" smooth="yes"/>
      <point x="113" y="63"/>
      <point x="174" y="-104"/>
      <point x="443" y="-104" type="curve" smooth="yes"/>
      <point x="526" y="-104"/>
      <point x="580" y="-88"/>
      <point x="620" y="-64" type="curve" smooth="yes"/>
      <point x="631" y="-93" type="line" smooth="yes"/>
      <point x="565" y="-126"/>
      <point x="494" y="-143"/>
    </contour>
    <contour>
      <point x="351" y="99" type="curve" smooth="yes"/>
      <point x="393" y="99"/>
      <point x="439" y="138"/>
      <point x="474" y="200" type="curve" smooth="yes"/>
      <point x="497" y="240"/>
      <point x="521" y="300"/>
      <point x="521" y="358" type="curve" smooth="yes"/>
      <point x="521" y="392"/>
      <point x="510" y="417"/>
      <point x="477" y="417" type="curve" smooth="yes"/>
      <point x="401" y="417"/>
      <point x="309" y="289"/>
      <point x="309" y="165" type="curve" smooth="yes"/>
      <point x="309" y="118"/>
      <point x="322" y="99"/>
    </contour>
  </outline>
</glyph>
<glyph name="A" format="1">
  <advance width="744"/>
  <unicode hex="0041"/>
  <outline>
    <contour>
      <point x="341" y="614" type="line"/>
      <point x="527" y="100" type="line" smooth="yes"/>
      <point x="536" y="76"/>
      <point x="538" y="65"/>
      <point x="538" y="56" type="curve" smooth="yes"/>
      <point x="538" y="35"/>
      <point x="527" y="27"/>
      <point x="435" y="23" type="curve"/>
      <point x="435" y="0" type="line"/>
      <point x="753" y="0" type="line"/>
      <point x="753" y="23" type="line"/>
      <point x="683" y="28"/>
      <point x="668" y="38"/>
      <point x="651" y="84" type="curve" smooth="yes"/>
      <point x="387" y="790" type="line"/>
      <point x="289" y="736" type="line"/>
      <point x="315" y="677" type="line"/>
      <point x="121" y="134" type="line" smooth="yes"/>
      <point x="96" y="64"/>
      <point x="82" y="39"/>
      <point x="-24" y="23" type="curve"/>
      <point x="-24" y="0" type="line"/>
      <point x="257" y="0" type="line"/>
      <point x="257" y="23" type="line"/>
      <point x="190" y="33"/>
      <point x="154" y="49"/>
      <point x="154" y="85" type="curve" smooth="yes"/>
      <point x="154" y="97"/>
      <point x="158" y="112"/>
      <point x="165" y="132" type="curve" smooth="yes"/>
      <point x="337" y="614" type="line"/>
    </contour>
    <contour>
      <point x="206" y="283" type="line"/>
      <point x="476" y="283" type="line"/>
      <point x="476" y="323" type="line"/>
      <point x="206" y="323" type="line"/>
    </contour>
    <contour>
      <point x="365" y="830" type="move" name="topcap"/>
    </contour>
    <contour>
      <point x="598" y="0" type="move" name="bottom"/>
    </contour>
  </outline>
</glyph>
<glyph name="E" format="1">
  <advance width="692"/>
  <unicode hex="0045"/>
  <outline>
    <contour>
      <point x="225" y="386" type="line"/>
      <point x="418" y="386" type="line"/>
      <point x="437" y="346"/>
      <point x="449" y="306"/>
      <point x="455" y="266" type="curve"/>
      <point x="479" y="266" type="line"/>
      <point x="479" y="546" type="line"/>
      <point x="455" y="546" type="line"/>
      <point x="448" y="506"/>
      <point x="437" y="466"/>
      <point x="418" y="426" type="curve"/>
      <point x="225" y="426" type="line"/>
    </contour>
    <contour>
      <point x="526" y="730" type="line"/>
      <point x="559" y="673"/>
      <point x="582" y="607"/>
      <point x="598" y="550" type="curve"/>
      <point x="622" y="550" type="line"/>
      <point x="605" y="770" type="line"/>
      <point x="49" y="770" type="line"/>
      <point x="49" y="747" type="line"/>
      <point x="134" y="728" type="line"/>
      <point x="134" y="42" type="line"/>
      <point x="49" y="23" type="line"/>
      <point x="49" y="0" type="line"/>
      <point x="601" y="0" type="line"/>
      <point x="638" y="234" type="line"/>
      <point x="605" y="234" type="line"/>
      <point x="583" y="169"/>
      <point x="561" y="105"/>
      <point x="521" y="40" type="curve"/>
      <point x="239" y="40" type="line"/>
      <point x="239" y="730" type="line"/>
    </contour>
    <contour>
      <point x="356" y="830" type="move" name="topcap"/>
    </contour>
    <contour>
      <point x="358" y="0" type="move" name="bottom"/>
    </contour>
  </outline>
</glyph>
<glyph name="F" format="1">
  <advance width="650"/>
  <unicode hex="0046"/>
  <outline>
    <contour>
      <point x="526" y="730" type="line"/>
      <point x="559" y="673"/>
      <point x="582" y="607"/>
      <point x="598" y="550" type="curve"/>
      <point x="622" y="550" type="line"/>
      <point x="605" y="770" type="line"/>
      <point x="49" y="770" type="line"/>
      <point x="49" y="747" type="line"/>
      <point x="134" y="728" type="line"/>
      <point x="134" y="42" type="line"/>
      <point x="49" y="23" type="line"/>
      <point x="49" y="0" type="line"/>
      <point x="353" y="0" type="line"/>
      <point x="353" y="23" type="line"/>
      <point x="239" y="42" type="line"/>
      <point x="239" y="730" type="line"/>
    </contour>
    <contour>
      <point x="225" y="386" type="line"/>
      <point x="418" y="386" type="line"/>
      <point x="437" y="346"/>
      <point x="449" y="306"/>
      <point x="455" y="266" type="curve"/>
      <point x="479" y="266" type="line"/>
      <point x="479" y="546" type="line"/>
      <point x="455" y="546" type="line"/>
      <point x="448" y="506"/>
      <point x="437" y="466"/>
      <point x="418" y="426" type="curve"/>
      <point x="225" y="426" type="line"/>
    </contour>
  </outline>
</glyph>
<glyph name="G" format="1">
  <advance width="808"/>
  <unicode hex="0047"/>
  <outline>
    <contour>
      <point x="691" y="344" type="line"/>
      <point x="780" y="363" type="line"/>
      <point x="780" y="386" type="line"/>
      <point x="496" y="386" type="line"/>
      <point x="496" y="363" type="line"/>
      <point x="586" y="344" type="line"/>
      <point x="586" y="149" type="line" smooth="yes"/>
      <point x="586" y="115"/>
      <point x="584" y="107"/>
      <point x="578" y="97" type="curve" smooth="yes"/>
      <point x="553" y="56"/>
      <point x="500" y="36"/>
      <point x="435" y="36" type="curve" smooth="yes"/>
      <point x="266" y="36"/>
      <point x="183" y="149"/>
      <point x="183" y="376" type="curve" smooth="yes"/>
      <point x="183" y="612"/>
      <point x="272" y="735"/>
      <point x="444" y="735" type="curve" smooth="yes"/>
      <point x="555" y="735"/>
      <point x="615" y="685"/>
      <point x="679" y="540" type="curve"/>
      <point x="702" y="540" type="line"/>
      <point x="702" y="770" type="line"/>
      <point x="680" y="770" type="line"/>
      <point x="626" y="719" type="line"/>
      <point x="622" y="719" type="line"/>
      <point x="578" y="758"/>
      <point x="508" y="780"/>
      <point x="430" y="780" type="curve" smooth="yes"/>
      <point x="214" y="780"/>
      <point x="55" y="608"/>
      <point x="55" y="376" type="curve" smooth="yes"/>
      <point x="55" y="150"/>
      <point x="205" y="-10"/>
      <point x="418" y="-10" type="curve" smooth="yes"/>
      <point x="521" y="-10"/>
      <point x="636" y="28"/>
      <point x="691" y="81" type="curve"/>
    </contour>
    <contour>
      <point x="437" y="830" type="move" name="topcap"/>
    </contour>
    <contour>
      <point x="427" y="0" type="move" name="bottom"/>
    </contour>
  </outline>
</glyph>
<glyph name="H" format="1">
  <advance width="857"/>
  <unicode hex="0048"/>
  <outline>
    <contour>
      <point x="135" y="42" type="line"/>
      <point x="45" y="23" type="line"/>
      <point x="45" y="0" type="line"/>
      <point x="329" y="0" type="line"/>
      <point x="329" y="23" type="line"/>
      <point x="240" y="42" type="line"/>
      <point x="240" y="728" type="line"/>
      <point x="329" y="747" type="line"/>
      <point x="329" y="770" type="line"/>
      <point x="45" y="770" type="line"/>
      <point x="45" y="747" type="line"/>
      <point x="135" y="728" type="line"/>
    </contour>
    <contour>
      <point x="618" y="42" type="line"/>
      <point x="528" y="23" type="line"/>
      <point x="528" y="0" type="line"/>
      <point x="812" y="0" type="line"/>
      <point x="812" y="21" type="line"/>
      <point x="723" y="42" type="line"/>
      <point x="723" y="728" type="line"/>
      <point x="812" y="745" type="line"/>
      <point x="812" y="770" type="line"/>
      <point x="528" y="770" type="line"/>
      <point x="528" y="747" type="line"/>
      <point x="618" y="728" type="line"/>
    </contour>
    <contour>
      <point x="200" y="385" type="line"/>
      <point x="660" y="385" type="line"/>
      <point x="660" y="425" type="line"/>
      <point x="200" y="425" type="line"/>
    </contour>
    <contour>
      <point x="432" y="830" type="move" name="topcap"/>
    </contour>
    <contour>
      <point x="432" y="0" type="move" name="bottom"/>
    </contour>
  </outline>
</glyph>
<glyph name="I" format="1">
  <advance width="374"/>
  <unicode hex="0049"/>
  <outline>
    <contour>
      <point x="135" y="42" type="line"/>
      <point x="45" y="23" type="line"/>
      <point x="45" y="0" type="line"/>
      <point x="329" y="0" type="line"/>
      <point x="329" y="23" type="line"/>
      <point x="240" y="42" type="line"/>
      <point x="240" y="728" type="line"/>
      <point x="329" y="747" type="line"/>
      <point x="329" y="770" type="line"/>
      <point x="45" y="770" type="line"/>
      <point x="45" y="747" type="line"/>
      <point x="135" y="728" type="line"/>
    </contour>
    <contour>
      <point x="188" y="830" type="move" name="topcap"/>
    </contour>
    <contour>
      <point x="188" y="0" type="move" name="bottom"/>
    </contour>
  </outline>
</glyph>
<glyph name="J" format="1">
  <advance width="362"/>
  <unicode hex="004A"/>
  <outline>
    <contour>
      <point x="233" y="728" type="line"/>
      <point x="322" y="747" type="line"/>
      <point x="322" y="770" type="line"/>
      <point x="38" y="770" type="line"/>
      <point x="38" y="747" type="line"/>
      <point x="128" y="728" type="line"/>
      <point x="128" y="-48" type="line" smooth="yes"/>
      <point x="128" y="-156"/>
      <point x="92" y="-208"/>
      <point x="46" y="-208" type="curve" smooth="yes"/>
      <point x="20" y="-208"/>
      <point x="-1" y="-192"/>
      <point x="-15" y="-154" type="curve" smooth="yes"/>
      <point x="-26" y="-124"/>
      <point x="-42" y="-108"/>
      <point x="-70" y="-108" type="curve" smooth="yes"/>
      <point x="-106" y="-108"/>
      <point x="-129" y="-133"/>
      <point x="-129" y="-173" type="curve" smooth="yes"/>
      <point x="-129" y="-227"/>
      <point x="-83" y="-260"/>
      <point x="-9" y="-260" type="curve" smooth="yes"/>
      <point x="73" y="-260"/>
      <point x="152" y="-215"/>
      <point x="199" y="-131" type="curve" smooth="yes"/>
      <point x="228" y="-78"/>
      <point x="233" y="-41"/>
      <point x="233" y="155" type="curve" smooth="yes"/>
    </contour>
    <contour>
      <point x="181" y="830" type="move" name="topcap"/>
    </contour>
  </outline>
</glyph>
<glyph name="K" format="1">
  <advance width="783"/>
  <unicode hex="004B"/>
  <outline>
    <contour>
      <point x="45" y="0" type="line"/>
      <point x="329" y="0" type="line"/>
      <point x="329" y="23" type="line"/>
      <point x="240" y="42" type="line"/>
      <point x="240" y="305" type="line"/>
      <point x="305" y="379" type="line"/>
      <point x="590" y="0" type="line"/>
      <point x="807" y="0" type="line"/>
      <point x="807" y="23" type="line"/>
      <point x="696" y="42" type="line"/>
      <point x="375" y="459" type="line"/>
      <point x="573" y="685" type="line" smooth="yes"/>
      <point x="605" y="722"/>
      <point x="627" y="731"/>
      <point x="719" y="747" type="curve"/>
      <point x="719" y="770" type="line"/>
      <point x="455" y="770" type="line"/>
      <point x="455" y="747" type="line"/>
      <point x="514" y="743"/>
      <point x="539" y="734"/>
      <point x="539" y="717" type="curve" smooth="yes"/>
      <point x="539" y="709"/>
      <point x="534" y="699"/>
      <point x="523" y="687" type="curve" smooth="yes"/>
      <point x="240" y="370" type="line"/>
      <point x="240" y="728" type="line"/>
      <point x="329" y="747" type="line"/>
      <point x="329" y="770" type="line"/>
      <point x="45" y="770" type="line"/>
      <point x="45" y="747" type="line"/>
      <point x="135" y="728" type="line"/>
      <point x="135" y="42" type="line"/>
      <point x="45" y="23" type="line"/>
    </contour>
    <contour>
      <point x="396" y="0" type="move" name="bottom"/>
    </contour>
  </outline>
</glyph>
<glyph name="L" format="1">
  <advance width="656"/>
  <unicode hex="004C"/>
  <outline>
    <contour>
      <point x="334" y="747" type="line"/>
      <point x="334" y="770" type="line"/>
      <point x="49" y="770" type="line"/>
      <point x="49" y="747" type="line"/>
      <point x="134" y="728" type="line"/>
      <point x="134" y="42" type="line"/>
      <point x="49" y="23" type="line"/>
      <point x="49" y="0" type="line"/>
      <point x="601" y="0" type="line"/>
      <point x="638" y="239" type="line"/>
      <point x="612" y="239" type="line"/>
      <point x="590" y="173"/>
      <point x="568" y="106"/>
      <point x="528" y="40" type="curve"/>
      <point x="239" y="40" type="line"/>
      <point x="239" y="728" type="line"/>
    </contour>
    <contour>
      <point x="345" y="0" type="move" name="bottom"/>
    </contour>
    <contour>
      <point x="185" y="830" type="move" name="topcap"/>
    </contour>
  </outline>
</glyph>
<glyph name="N" format="1">
  <advance width="828"/>
  <unicode hex="004E"/>
  <outline>
    <contour>
      <point x="699" y="728" type="line"/>
      <point x="789" y="747" type="line"/>
      <point x="789" y="770" type="line"/>
      <point x="570" y="770" type="line"/>
      <point x="570" y="747" type="line"/>
      <point x="659" y="728" type="line"/>
      <point x="659" y="204" type="line"/>
      <point x="247" y="770" type="line"/>
      <point x="45" y="770" type="line"/>
      <point x="45" y="747" type="line"/>
      <point x="135" y="728" type="line"/>
      <point x="135" y="42" type="line"/>
      <point x="45" y="23" type="line"/>
      <point x="45" y="0" type="line"/>
      <point x="264" y="0" type="line"/>
      <point x="264" y="23" type="line"/>
      <point x="175" y="42" type="line"/>
      <point x="175" y="667" type="line"/>
      <point x="668" y="-20" type="line"/>
      <point x="699" y="-20" type="line"/>
    </contour>
    <contour>
      <point x="453" y="830" type="move" name="topcap"/>
    </contour>
    <contour>
      <point x="405" y="0" type="move" name="bottom"/>
    </contour>
  </outline>
</glyph>
<glyph name="O" format="1">
  <advance width="836"/>
  <unicode hex="004F"/>
  <outline>
    <contour>
      <point x="418" y="780" type="curve" smooth="yes"/>
      <point x="211" y="780"/>
      <point x="55" y="610"/>
      <point x="55" y="385" type="curve" smooth="yes"/>
      <point x="55" y="160"/>
      <point x="211" y="-10"/>
      <point x="418" y="-10" type="curve" smooth="yes"/>
      <point x="625" y="-10"/>
      <point x="781" y="160"/>
      <point x="781" y="385" type="curve" smooth="yes"/>
      <point x="781" y="610"/>
      <point x="625" y="780"/>
    </contour>
    <contour>
      <point x="181" y="386" type="curve" smooth="yes"/>
      <point x="181" y="605"/>
      <point x="270" y="735"/>
      <point x="419" y="735" type="curve" smooth="yes"/>
      <point x="567" y="735"/>
      <point x="655" y="606"/>
      <point x="655" y="388" type="curve" smooth="yes"/>
      <point x="655" y="167"/>
      <point x="566" y="35"/>
      <point x="418" y="35" type="curve" smooth="yes"/>
      <point x="270" y="35"/>
      <point x="181" y="167"/>
    </contour>
    <contour>
      <point x="419" y="830" type="move" name="topcap"/>
    </contour>
    <contour>
      <point x="419" y="0" type="move" name="bottom"/>
    </contour>
  </outline>
</glyph>
<glyph name="Q" format="1">
  <advance width="836"/>
  <unicode hex="0051"/>
  <outline>
    <contour>
      <point x="418" y="780" type="curve" smooth="yes"/>
      <point x="211" y="780"/>
      <point x="55" y="610"/>
      <point x="55" y="385" type="curve" smooth="yes"/>
      <point x="55" y="203"/>
      <point x="160" y="51"/>
      <point x="316" y="17" type="curve"/>
      <point x="316" y="13" type="line"/>
      <point x="248" y="-13"/>
      <point x="206" y="-57"/>
      <point x="206" y="-105" type="curve" smooth="yes"/>
      <point x="206" y="-138"/>
      <point x="226" y="-160"/>
      <point x="256" y="-160" type="curve" smooth="yes"/>
      <point x="285" y="-160"/>
      <point x="307" y="-139"/>
      <point x="307" y="-110" type="curve" smooth="yes"/>
      <point x="307" y="-85"/>
      <point x="290" y="-80"/>
      <point x="290" y="-57" type="curve" smooth="yes"/>
      <point x="290" y="-32"/>
      <point x="309" y="-12"/>
      <point x="352" y="-12" type="curve" smooth="yes"/>
      <point x="470" y="-12"/>
      <point x="505" y="-164"/>
      <point x="630" y="-164" type="curve" smooth="yes"/>
      <point x="699" y="-164"/>
      <point x="767" y="-118"/>
      <point x="808" y="-24" type="curve"/>
      <point x="781" y="-14" type="line"/>
      <point x="754" y="-50"/>
      <point x="728" y="-67"/>
      <point x="683" y="-67" type="curve" smooth="yes"/>
      <point x="600" y="-67"/>
      <point x="537" y="-13"/>
      <point x="469" y="3" type="curve"/>
      <point x="469" y="7" type="line"/>
      <point x="655" y="22"/>
      <point x="781" y="186"/>
      <point x="781" y="385" type="curve" smooth="yes"/>
      <point x="781" y="610"/>
      <point x="625" y="780"/>
    </contour>
    <contour>
      <point x="181" y="386" type="curve" smooth="yes"/>
      <point x="181" y="605"/>
      <point x="270" y="735"/>
      <point x="419" y="735" type="curve" smooth="yes"/>
      <point x="567" y="735"/>
      <point x="655" y="606"/>
      <point x="655" y="387" type="curve" smooth="yes"/>
      <point x="655" y="167"/>
      <point x="566" y="35"/>
      <point x="418" y="35" type="curve" smooth="yes"/>
      <point x="270" y="35"/>
      <point x="181" y="167"/>
    </contour>
  </outline>
</glyph>
<glyph name="R" format="1">
  <advance width="733"/>
  <unicode hex="0052"/>
  <outline>
    <contour>
      <point x="49" y="0" type="line"/>
      <point x="353" y="0" type="line"/>
      <point x="353" y="23" type="line"/>
      <point x="239" y="42" type="line"/>
      <point x="239" y="350" type="line"/>
      <point x="335" y="350" type="line"/>
      <point x="559" y="0" type="line"/>
      <point x="776" y="0" type="line"/>
      <point x="776" y="23" type="line"/>
      <point x="662" y="42" type="line"/>
      <point x="449" y="362" type="line"/>
      <point x="555" y="387"/>
      <point x="617" y="451"/>
      <point x="617" y="551" type="curve" smooth="yes"/>
      <point x="617" y="693"/>
      <point x="507" y="770"/>
      <point x="350" y="770" type="curve" smooth="yes"/>
      <point x="49" y="770" type="line"/>
      <point x="49" y="747" type="line"/>
      <point x="134" y="728" type="line"/>
      <point x="134" y="42" type="line"/>
      <point x="49" y="23" type="line"/>
    </contour>
    <contour>
      <point x="239" y="389" type="line"/>
      <point x="239" y="730" type="line"/>
      <point x="321" y="730" type="line" smooth="yes"/>
      <point x="362" y="730"/>
      <point x="387" y="727"/>
      <point x="410" y="718" type="curve" smooth="yes"/>
      <point x="468" y="695"/>
      <point x="502" y="642"/>
      <point x="502" y="561" type="curve" smooth="yes"/>
      <point x="502" y="518"/>
      <point x="491" y="476"/>
      <point x="462" y="443" type="curve" smooth="yes"/>
      <point x="432" y="410"/>
      <point x="388" y="389"/>
      <point x="304" y="389" type="curve" smooth="yes"/>
    </contour>
    <contour>
      <point x="368" y="830" type="move" name="topcap"/>
    </contour>
    <contour>
      <point x="396" y="0" type="move" name="bottom"/>
    </contour>
  </outline>
</glyph>
<glyph name="U" format="1">
  <advance width="774"/>
  <unicode hex="0055"/>
  <outline>
    <contour>
      <point x="228" y="728" type="line"/>
      <point x="317" y="747" type="line"/>
      <point x="317" y="770" type="line"/>
      <point x="33" y="770" type="line"/>
      <point x="33" y="747" type="line"/>
      <point x="123" y="728" type="line"/>
      <point x="123" y="242" type="line" smooth="yes"/>
      <point x="123" y="159"/>
      <point x="136" y="117"/>
      <point x="162" y="82" type="curve" smooth="yes"/>
      <point x="206" y="24"/>
      <point x="290" y="-10"/>
      <point x="393" y="-10" type="curve" smooth="yes"/>
      <point x="494" y="-10"/>
      <point x="573" y="23"/>
      <point x="612" y="80" type="curve" smooth="yes"/>
      <point x="638" y="119"/>
      <point x="650" y="174"/>
      <point x="650" y="258" type="curve" smooth="yes"/>
      <point x="650" y="728" type="line"/>
      <point x="740" y="747" type="line"/>
      <point x="740" y="770" type="line"/>
      <point x="521" y="770" type="line"/>
      <point x="521" y="747" type="line"/>
      <point x="610" y="728" type="line"/>
      <point x="610" y="300" type="line" smooth="yes"/>
      <point x="610" y="194"/>
      <point x="599" y="133"/>
      <point x="572" y="97" type="curve" smooth="yes"/>
      <point x="542" y="56"/>
      <point x="486" y="35"/>
      <point x="414" y="35" type="curve" smooth="yes"/>
      <point x="301" y="35"/>
      <point x="228" y="100"/>
      <point x="228" y="227" type="curve" smooth="yes"/>
    </contour>
    <contour>
      <point x="426" y="830" type="move" name="topcap"/>
    </contour>
    <contour>
      <point x="401" y="0" type="move" name="bottom"/>
    </contour>
  </outline>
</glyph>
<glyph name="V" format="1">
  <advance width="721"/>
  <unicode hex="0056"/>
  <outline>
    <contour>
      <point x="372" y="-10" type="line"/>
      <point x="601" y="636" type="line" smooth="yes"/>
      <point x="626" y="707"/>
      <point x="640" y="731"/>
      <point x="746" y="747" type="curve"/>
      <point x="746" y="770" type="line"/>
      <point x="465" y="770" type="line"/>
      <point x="465" y="747" type="line"/>
      <point x="541" y="737"/>
      <point x="567" y="719"/>
      <point x="567" y="685" type="curve" smooth="yes"/>
      <point x="567" y="672"/>
      <point x="563" y="656"/>
      <point x="557" y="638" type="curve" smooth="yes"/>
      <point x="399" y="183" type="line"/>
      <point x="394" y="183" type="line"/>
      <point x="225" y="670" type="line" smooth="yes"/>
      <point x="219" y="688"/>
      <point x="212" y="706"/>
      <point x="212" y="716" type="curve" smooth="yes"/>
      <point x="212" y="738"/>
      <point x="227" y="742"/>
      <point x="317" y="747" type="curve"/>
      <point x="317" y="770" type="line"/>
      <point x="-8" y="770" type="line"/>
      <point x="-8" y="747" type="line"/>
      <point x="62" y="742"/>
      <point x="77" y="732"/>
      <point x="94" y="686" type="curve" smooth="yes"/>
      <point x="355" y="-10" type="line"/>
    </contour>
  </outline>
</glyph>
<glyph name="W" format="1">
  <advance width="1090"/>
  <unicode hex="0057"/>
  <outline>
    <contour>
      <point x="373" y="-10" type="line"/>
      <point x="540" y="513" type="line"/>
      <point x="736" y="-10" type="line"/>
      <point x="759" y="-10" type="line"/>
      <point x="965" y="636" type="line" smooth="yes"/>
      <point x="988" y="708"/>
      <point x="1004" y="731"/>
      <point x="1110" y="747" type="curve"/>
      <point x="1110" y="770" type="line"/>
      <point x="829" y="770" type="line"/>
      <point x="829" y="747" type="line"/>
      <point x="906" y="736"/>
      <point x="930" y="720"/>
      <point x="930" y="686" type="curve" smooth="yes"/>
      <point x="930" y="671"/>
      <point x="927" y="657"/>
      <point x="921" y="638" type="curve" smooth="yes"/>
      <point x="780" y="183" type="line"/>
      <point x="775" y="183" type="line"/>
      <point x="606" y="670" type="line" smooth="yes"/>
      <point x="599" y="689"/>
      <point x="595" y="703"/>
      <point x="595" y="714" type="curve" smooth="yes"/>
      <point x="595" y="734"/>
      <point x="602" y="741"/>
      <point x="698" y="747" type="curve"/>
      <point x="698" y="770" type="line"/>
      <point x="373" y="770" type="line"/>
      <point x="373" y="747" type="line"/>
      <point x="443" y="742"/>
      <point x="458" y="732"/>
      <point x="475" y="686" type="curve" smooth="yes"/>
      <point x="516" y="576" type="line"/>
      <point x="394" y="183" type="line"/>
      <point x="389" y="183" type="line"/>
      <point x="220" y="670" type="line" smooth="yes"/>
      <point x="210" y="698"/>
      <point x="207" y="707"/>
      <point x="207" y="717" type="curve" smooth="yes"/>
      <point x="207" y="735"/>
      <point x="218" y="740"/>
      <point x="312" y="747" type="curve"/>
      <point x="312" y="770" type="line"/>
      <point x="-13" y="770" type="line"/>
      <point x="-13" y="747" type="line"/>
      <point x="57" y="742"/>
      <point x="72" y="732"/>
      <point x="89" y="686" type="curve" smooth="yes"/>
      <point x="350" y="-10" type="line"/>
    </contour>
    <contour>
      <point x="543" y="830" type="move" name="topcap"/>
    </contour>
  </outline>
</glyph>
<glyph name="X" format="1">
  <advance width="787"/>
  <unicode hex="0058"/>
  <outline>
    <contour>
      <point x="-10" y="0" type="line"/>
      <point x="261" y="0" type="line"/>
      <point x="261" y="20" type="line"/>
      <point x="203" y="26"/>
      <point x="177" y="36"/>
      <point x="177" y="53" type="curve" smooth="yes"/>
      <point x="177" y="62"/>
      <point x="182" y="76"/>
      <point x="194" y="92" type="curve" smooth="yes"/>
      <point x="378" y="339" type="line"/>
      <point x="551" y="76" type="line" smooth="yes"/>
      <point x="563" y="58"/>
      <point x="567" y="49"/>
      <point x="567" y="42" type="curve" smooth="yes"/>
      <point x="567" y="31"/>
      <point x="552" y="27"/>
      <point x="489" y="22" type="curve"/>
      <point x="489" y="0" type="line"/>
      <point x="789" y="0" type="line"/>
      <point x="789" y="22" type="line"/>
      <point x="727" y="27"/>
      <point x="701" y="35"/>
      <point x="681" y="65" type="curve" smooth="yes"/>
      <point x="448" y="421" type="line"/>
      <point x="639" y="678" type="line"/>
      <point x="677" y="723"/>
      <point x="704" y="734"/>
      <point x="776" y="747" type="curve"/>
      <point x="776" y="770" type="line"/>
      <point x="528" y="770" type="line"/>
      <point x="528" y="747" type="line"/>
      <point x="580" y="741"/>
      <point x="602" y="729"/>
      <point x="602" y="711" type="curve" smooth="yes"/>
      <point x="602" y="700"/>
      <point x="596" y="689"/>
      <point x="586" y="675" type="curve" smooth="yes"/>
      <point x="425" y="456" type="line"/>
      <point x="270" y="693" type="line" smooth="yes"/>
      <point x="260" y="709"/>
      <point x="257" y="718"/>
      <point x="257" y="727" type="curve" smooth="yes"/>
      <point x="257" y="738"/>
      <point x="267" y="744"/>
      <point x="326" y="747" type="curve"/>
      <point x="326" y="770" type="line"/>
      <point x="24" y="770" type="line"/>
      <point x="24" y="747" type="line"/>
      <point x="103" y="738"/>
      <point x="122" y="730"/>
      <point x="139" y="704" type="curve" smooth="yes"/>
      <point x="353" y="377" type="line"/>
      <point x="141" y="91" type="line" smooth="yes"/>
      <point x="107" y="45"/>
      <point x="67" y="30"/>
      <point x="-10" y="20" type="curve"/>
    </contour>
  </outline>
</glyph>
<glyph name="Y" format="1">
  <advance width="709"/>
  <unicode hex="0059"/>
  <outline>
    <contour>
      <point x="210" y="0" type="line"/>
      <point x="494" y="0" type="line"/>
      <point x="494" y="23" type="line"/>
      <point x="405" y="42" type="line"/>
      <point x="405" y="309" type="line"/>
      <point x="581" y="636" type="line" smooth="yes"/>
      <point x="617" y="702"/>
      <point x="620" y="731"/>
      <point x="726" y="747" type="curve"/>
      <point x="726" y="770" type="line"/>
      <point x="444" y="770" type="line"/>
      <point x="444" y="747" type="line"/>
      <point x="513" y="742"/>
      <point x="548" y="718"/>
      <point x="548" y="681" type="curve" smooth="yes"/>
      <point x="548" y="668"/>
      <point x="544" y="654"/>
      <point x="536" y="638" type="curve" smooth="yes"/>
      <point x="397" y="375" type="line"/>
      <point x="393" y="375" type="line"/>
      <point x="228" y="670" type="line" smooth="yes"/>
      <point x="220" y="685"/>
      <point x="215" y="699"/>
      <point x="215" y="710" type="curve" smooth="yes"/>
      <point x="215" y="730"/>
      <point x="233" y="742"/>
      <point x="320" y="747" type="curve"/>
      <point x="320" y="770" type="line"/>
      <point x="-8" y="770" type="line"/>
      <point x="-8" y="747" type="line"/>
      <point x="62" y="742"/>
      <point x="73" y="728"/>
      <point x="97" y="686" type="curve" smooth="yes"/>
      <point x="300" y="327" type="line"/>
      <point x="300" y="42" type="line"/>
      <point x="210" y="23" type="line"/>
    </contour>
    <contour>
      <point x="399" y="830" type="move" name="topcap"/>
    </contour>
  </outline>
</glyph>
<glyph name="backslash" format="1">
  <advance width="364"/>
  <unicode hex="005C"/>
  <outline>
    <contour>
      <point x="317" y="-169" type="line"/>
      <point x="117" y="819" type="line"/>
      <point x="47" y="819" type="line"/>
      <point x="248" y="-169" type="line"/>
    </contour>
  </outline>
</glyph>
<glyph name="asciicircum" format="1">
  <advance width="499"/>
  <unicode hex="005E"/>
  <outline>
    <contour>
      <point x="47" y="332" type="line"/>
      <point x="232" y="711" type="line"/>
      <point x="268" y="711" type="line"/>
      <point x="452" y="332" type="line"/>
      <point x="410" y="332" type="line"/>
      <point x="251" y="649" type="line"/>
      <point x="247" y="649" type="line"/>
      <point x="90" y="332" type="line"/>
    </contour>
  </outline>
</glyph>
<glyph name="underscore" format="1">
  <advance width="696"/>
  <unicode hex="005F"/>
  <outline>
    <contour>
      <point x="623" y="-74" type="line" name="hr00"/>
      <point x="623" y="-30" type="line"/>
      <point x="73" y="-30" type="line"/>
      <point x="73" y="-74" type="line"/>
    </contour>
  </outline>
</glyph>
<glyph name="grave" format="1">
  <advance width="170"/>
  <unicode hex="0060"/>
  <outline>
    <contour>
      <point x="139" y="631" type="line"/>
      <point x="40" y="755" type="line" smooth="yes"/>
      <point x="18" y="782"/>
      <point x="10" y="799"/>
      <point x="10" y="816" type="curve" smooth="yes"/>
      <point x="10" y="841"/>
      <point x="28" y="859"/>
      <point x="49" y="859" type="curve" smooth="yes"/>
      <point x="78" y="859"/>
      <point x="94" y="841"/>
      <point x="104" y="812" type="curve" smooth="yes"/>
      <point x="160" y="642" type="line"/>
    </contour>
    <contour>
      <point x="84" y="651" type="move" name="_top"/>
    </contour>
  </outline>
</glyph>
<glyph name="a" format="1">
  <advance width="525"/>
  <unicode hex="0061"/>
  <outline>
    <contour>
      <point x="169" y="-10" type="curve" smooth="yes"/>
      <point x="227" y="-10"/>
      <point x="286" y="25"/>
      <point x="325" y="82" type="curve"/>
      <point x="328" y="80" type="line"/>
      <point x="335" y="19"/>
      <point x="364" y="-10"/>
      <point x="417" y="-10" type="curve" smooth="yes"/>
      <point x="460" y="-10"/>
      <point x="490" y="9"/>
      <point x="521" y="57" type="curve"/>
      <point x="504" y="72" type="line"/>
      <point x="487" y="51"/>
      <point x="474" y="43"/>
      <point x="455" y="43" type="curve" smooth="yes"/>
      <point x="426" y="43"/>
      <point x="418" y="61"/>
      <point x="418" y="127" type="curve" smooth="yes"/>
      <point x="418" y="356" type="line" smooth="yes"/>
      <point x="418" y="440"/>
      <point x="416" y="464"/>
      <point x="405" y="487" type="curve" smooth="yes"/>
      <point x="388" y="521"/>
      <point x="346" y="540"/>
      <point x="289" y="540" type="curve" smooth="yes"/>
      <point x="246" y="540"/>
      <point x="201" y="529"/>
      <point x="162" y="509" type="curve" smooth="yes"/>
      <point x="97" y="476"/>
      <point x="54" y="425"/>
      <point x="54" y="381" type="curve" smooth="yes"/>
      <point x="54" y="352"/>
      <point x="73" y="333"/>
      <point x="100" y="333" type="curve" smooth="yes"/>
      <point x="130" y="333"/>
      <point x="152" y="357"/>
      <point x="152" y="391" type="curve" smooth="yes"/>
      <point x="152" y="402"/>
      <point x="150" y="415"/>
      <point x="150" y="426" type="curve" smooth="yes"/>
      <point x="150" y="473"/>
      <point x="186" y="502"/>
      <point x="243" y="502" type="curve" smooth="yes"/>
      <point x="301" y="502"/>
      <point x="323" y="471"/>
      <point x="323" y="387" type="curve" smooth="yes"/>
      <point x="323" y="289" type="line"/>
      <point x="122" y="246"/>
      <point x="49" y="199"/>
      <point x="49" y="112" type="curve" smooth="yes"/>
      <point x="49" y="40"/>
      <point x="98" y="-10"/>
    </contour>
    <contour>
      <point x="213" y="49" type="curve" smooth="yes"/>
      <point x="165" y="49"/>
      <point x="138" y="79"/>
      <point x="138" y="133" type="curve" smooth="yes"/>
      <point x="138" y="202"/>
      <point x="182" y="232"/>
      <point x="323" y="260" type="curve"/>
      <point x="323" y="116" type="line"/>
      <point x="297" y="74"/>
      <point x="256" y="49"/>
    </contour>
    <contour>
      <point x="264" y="651" type="move" name="top"/>
    </contour>
    <contour>
      <point x="410" y="0" type="move" name="bottom"/>
    </contour>
  </outline>
</glyph>
<glyph name="b" format="1">
  <advance width="602"/>
  <unicode hex="0062"/>
  <outline>
    <contour>
      <point x="292" y="-10" type="curve" smooth="yes"/>
      <point x="442" y="-10"/>
      <point x="556" y="118"/>
      <point x="556" y="287" type="curve" smooth="yes"/>
      <point x="556" y="437"/>
      <point x="466" y="540"/>
      <point x="335" y="540" type="curve" smooth="yes"/>
      <point x="276" y="540"/>
      <point x="225" y="517"/>
      <point x="183" y="472" type="curve"/>
      <point x="183" y="830" type="line"/>
      <point x="173" y="830" type="line"/>
      <point x="14" y="781" type="line"/>
      <point x="14" y="768" type="line"/>
      <point x="87" y="741" type="line"/>
      <point x="87" y="2" type="line"/>
      <point x="103" y="2" type="line"/>
      <point x="149" y="36" type="line"/>
      <point x="154" y="36" type="line"/>
      <point x="194" y="6"/>
      <point x="242" y="-10"/>
    </contour>
    <contour>
      <point x="292" y="24" type="curve" smooth="yes"/>
      <point x="226" y="24"/>
      <point x="183" y="74"/>
      <point x="183" y="150" type="curve" smooth="yes"/>
      <point x="183" y="434" type="line"/>
      <point x="209" y="466"/>
      <point x="248" y="486"/>
      <point x="293" y="486" type="curve" smooth="yes"/>
      <point x="390" y="486"/>
      <point x="449" y="400"/>
      <point x="449" y="259" type="curve" smooth="yes"/>
      <point x="449" y="118"/>
      <point x="387" y="24"/>
    </contour>
  </outline>
</glyph>
<glyph name="f" format="1">
  <advance width="351"/>
  <unicode hex="0066"/>
  <outline>
    <contour>
      <point x="206" y="585" type="line" smooth="yes"/>
      <point x="206" y="671"/>
      <point x="213" y="720"/>
      <point x="227" y="750" type="curve" smooth="yes"/>
      <point x="243" y="785"/>
      <point x="271" y="799"/>
      <point x="301" y="799" type="curve" smooth="yes"/>
      <point x="333" y="799"/>
      <point x="344" y="783"/>
      <point x="351" y="747" type="curve" smooth="yes"/>
      <point x="356" y="722"/>
      <point x="367" y="696"/>
      <point x="400" y="696" type="curve" smooth="yes"/>
      <point x="429" y="696"/>
      <point x="449" y="716"/>
      <point x="449" y="745" type="curve" smooth="yes"/>
      <point x="449" y="794"/>
      <point x="392" y="830"/>
      <point x="320" y="830" type="curve" smooth="yes"/>
      <point x="236" y="830"/>
      <point x="153" y="781"/>
      <point x="126" y="707" type="curve" smooth="yes"/>
      <point x="113" y="671"/>
      <point x="111" y="623"/>
      <point x="111" y="516" type="curve" smooth="yes"/>
      <point x="111" y="34" type="line"/>
      <point x="36" y="19" type="line"/>
      <point x="36" y="0" type="line"/>
      <point x="312" y="0" type="line"/>
      <point x="312" y="19" type="line"/>
      <point x="206" y="34" type="line"/>
    </contour>
    <contour>
      <point x="23" y="498" type="line"/>
      <point x="323" y="498" type="line"/>
      <point x="335" y="530" type="line"/>
      <point x="35" y="530" type="line"/>
    </contour>
  </outline>
</glyph>
<glyph name="j" format="1">
  <advance width="280"/>
  <unicode hex="006A"/>
  <outline>
    <contour>
      <point x="99" y="-48" type="line" smooth="yes"/>
      <point x="99" y="-159"/>
      <point x="72" y="-213"/>
      <point x="16" y="-213" type="curve" smooth="yes"/>
      <point x="-9" y="-213"/>
      <point x="-20" y="-202"/>
      <point x="-34" y="-164" type="curve" smooth="yes"/>
      <point x="-45" y="-134"/>
      <point x="-61" y="-118"/>
      <point x="-89" y="-118" type="curve" smooth="yes"/>
      <point x="-122" y="-118"/>
      <point x="-143" y="-141"/>
      <point x="-143" y="-178" type="curve" smooth="yes"/>
      <point x="-143" y="-229"/>
      <point x="-101" y="-260"/>
      <point x="-33" y="-260" type="curve" smooth="yes"/>
      <point x="47" y="-260"/>
      <point x="115" y="-215"/>
      <point x="161" y="-131" type="curve" smooth="yes"/>
      <point x="190" y="-78"/>
      <point x="194" y="-41"/>
      <point x="194" y="155" type="curve" smooth="yes"/>
      <point x="194" y="540" type="line"/>
      <point x="185" y="540" type="line"/>
      <point x="25" y="492" type="line"/>
      <point x="25" y="478" type="line"/>
      <point x="99" y="451" type="line"/>
    </contour>
    <contour>
      <point x="82" y="716" type="curve" smooth="yes"/>
      <point x="82" y="678"/>
      <point x="108" y="651"/>
      <point x="146" y="651" type="curve" smooth="yes"/>
      <point x="184" y="651"/>
      <point x="211" y="678"/>
      <point x="211" y="716" type="curve" smooth="yes"/>
      <point x="211" y="753"/>
      <point x="184" y="780"/>
      <point x="146" y="780" type="curve" smooth="yes"/>
      <point x="108" y="780"/>
      <point x="82" y="753"/>
    </contour>
  </outline>
</glyph>
<glyph name="r" format="1">
  <advance width="415"/>
  <unicode hex="0072"/>
  <outline>
    <contour>
      <point x="203" y="385" type="line"/>
      <point x="206" y="398"/>
      <point x="209" y="403"/>
      <point x="232" y="434" type="curve" smooth="yes"/>
      <point x="245" y="452"/>
      <point x="256" y="459"/>
      <point x="272" y="459" type="curve" smooth="yes"/>
      <point x="284" y="459"/>
      <point x="291" y="455"/>
      <point x="303" y="440" type="curve" smooth="yes"/>
      <point x="312" y="428"/>
      <point x="326" y="421"/>
      <point x="341" y="421" type="curve" smooth="yes"/>
      <point x="374" y="421"/>
      <point x="399" y="446"/>
      <point x="399" y="478" type="curve" smooth="yes"/>
      <point x="399" y="513"/>
      <point x="371" y="541"/>
      <point x="336" y="541" type="curve" smooth="yes"/>
      <point x="293" y="541"/>
      <point x="243" y="499"/>
      <point x="194" y="424" type="curve"/>
    </contour>
    <contour>
      <point x="203" y="35" type="line"/>
      <point x="203" y="424" type="line"/>
      <point x="199" y="429" type="line"/>
      <point x="199" y="541" type="line"/>
      <point x="189" y="541" type="line"/>
      <point x="34" y="492" type="line"/>
      <point x="34" y="479" type="line"/>
      <point x="108" y="451" type="line"/>
      <point x="108" y="35" type="line"/>
      <point x="32" y="20" type="line"/>
      <point x="32" y="0" type="line"/>
      <point x="303" y="0" type="line"/>
      <point x="303" y="20" type="line"/>
    </contour>
    <contour>
      <point x="235" y="651" type="move" name="top"/>
    </contour>
    <contour>
      <point x="155" y="-2" type="move" name="bottom"/>
    </contour>
  </outline>
</glyph>
<glyph name="t" format="1">
  <advance width="350"/>
  <unicode hex="0074"/>
  <outline>
    <contour>
      <point x="207" y="-10" type="curve" smooth="yes"/>
      <point x="261" y="-10"/>
      <point x="313" y="19"/>
      <point x="343" y="65" type="curve"/>
      <point x="326" y="78" type="line"/>
      <point x="306" y="53"/>
      <point x="277" y="37"/>
      <point x="250" y="37" type="curve" smooth="yes"/>
      <point x="228" y="37"/>
      <point x="210" y="47"/>
      <point x="200" y="65" type="curve" smooth="yes"/>
      <point x="193" y="77"/>
      <point x="191" y="92"/>
      <point x="191" y="141" type="curve" smooth="yes"/>
      <point x="191" y="495" type="line"/>
      <point x="326" y="495" type="line"/>
      <point x="334" y="530" type="line"/>
      <point x="191" y="530" type="line"/>
      <point x="191" y="659" type="line"/>
      <point x="173" y="661" type="line"/>
      <point x="29" y="511" type="line"/>
      <point x="31" y="495" type="line"/>
      <point x="96" y="495" type="line"/>
      <point x="96" y="132" type="line" smooth="yes"/>
      <point x="96" y="71"/>
      <point x="105" y="40"/>
      <point x="129" y="18" type="curve" smooth="yes"/>
      <point x="148" y="0"/>
      <point x="176" y="-10"/>
    </contour>
    <contour>
      <point x="210" y="0" type="move" name="bottom"/>
    </contour>
  </outline>
</glyph>
<glyph name="v" format="1">
  <advance width="566"/>
  <unicode hex="0076"/>
  <outline>
    <contour>
      <point x="307" y="-10" type="line"/>
      <point x="463" y="433" type="line" smooth="yes"/>
      <point x="480" y="482"/>
      <point x="490" y="498"/>
      <point x="565" y="510" type="curve"/>
      <point x="565" y="530" type="line"/>
      <point x="362" y="530" type="line"/>
      <point x="362" y="510" type="line"/>
      <point x="422" y="501"/>
      <point x="433" y="494"/>
      <point x="433" y="474" type="curve" smooth="yes"/>
      <point x="433" y="465"/>
      <point x="430" y="452"/>
      <point x="424" y="434" type="curve" smooth="yes"/>
      <point x="316" y="124" type="line"/>
      <point x="312" y="124" type="line"/>
      <point x="197" y="456" type="line" smooth="yes"/>
      <point x="193" y="468"/>
      <point x="191" y="478"/>
      <point x="191" y="486" type="curve" smooth="yes"/>
      <point x="191" y="501"/>
      <point x="203" y="508"/>
      <point x="260" y="510" type="curve"/>
      <point x="260" y="530" type="line"/>
      <point x="12" y="530" type="line"/>
      <point x="12" y="510" type="line"/>
      <point x="62" y="506"/>
      <point x="72" y="499"/>
      <point x="84" y="467" type="curve" smooth="yes"/>
      <point x="263" y="-10" type="line"/>
    </contour>
  </outline>
</glyph>
<glyph name="w" format="1">
  <advance width="849"/>
  <unicode hex="0077"/>
  <outline>
    <contour>
      <point x="413" y="434" type="line"/>
      <point x="305" y="124" type="line"/>
      <point x="301" y="124" type="line"/>
      <point x="201" y="456" type="line" smooth="yes"/>
      <point x="197" y="469"/>
      <point x="192" y="481"/>
      <point x="192" y="488" type="curve" smooth="yes"/>
      <point x="192" y="503"/>
      <point x="203" y="506"/>
      <point x="264" y="510" type="curve"/>
      <point x="264" y="530" type="line"/>
      <point x="16" y="530" type="line"/>
      <point x="16" y="510" type="line"/>
      <point x="66" y="506"/>
      <point x="77" y="499"/>
      <point x="88" y="467" type="curve" smooth="yes"/>
      <point x="252" y="-10" type="line"/>
      <point x="296" y="-10" type="line"/>
      <point x="452" y="433" type="line"/>
    </contour>
    <contour>
      <point x="593" y="-10" type="line"/>
      <point x="749" y="433" type="line" smooth="yes"/>
      <point x="766" y="482"/>
      <point x="776" y="498"/>
      <point x="851" y="510" type="curve"/>
      <point x="851" y="530" type="line"/>
      <point x="648" y="530" type="line"/>
      <point x="648" y="510" type="line"/>
      <point x="702" y="502"/>
      <point x="719" y="494"/>
      <point x="719" y="473" type="curve" smooth="yes"/>
      <point x="719" y="463"/>
      <point x="716" y="450"/>
      <point x="710" y="434" type="curve" smooth="yes"/>
      <point x="602" y="124" type="line"/>
      <point x="598" y="124" type="line"/>
      <point x="498" y="456" type="line" smooth="yes"/>
      <point x="494" y="469"/>
      <point x="489" y="481"/>
      <point x="489" y="488" type="curve" smooth="yes"/>
      <point x="489" y="503"/>
      <point x="500" y="506"/>
      <point x="561" y="510" type="curve"/>
      <point x="561" y="530" type="line"/>
      <point x="333" y="530" type="line"/>
      <point x="333" y="510" type="line"/>
      <point x="369" y="506"/>
      <point x="387" y="499"/>
      <point x="395" y="467" type="curve" smooth="yes"/>
      <point x="549" y="-10" type="line"/>
    </contour>
    <contour>
      <point x="439" y="651" type="move" name="top"/>
    </contour>
  </outline>
</glyph>
<glyph name="x" format="1">
  <advance width="579"/>
  <unicode hex="0078"/>
  <outline>
    <contour>
      <point x="237" y="456" type="line" smooth="yes"/>
      <point x="227" y="471"/>
      <point x="222" y="481"/>
      <point x="222" y="489" type="curve" smooth="yes"/>
      <point x="222" y="500"/>
      <point x="235" y="507"/>
      <point x="275" y="510" type="curve"/>
      <point x="275" y="530" type="line"/>
      <point x="24" y="530" type="line"/>
      <point x="24" y="510" type="line"/>
      <point x="80" y="502"/>
      <point x="99" y="495"/>
      <point x="117" y="467" type="curve" smooth="yes"/>
      <point x="372" y="74" type="line" smooth="yes"/>
      <point x="385" y="54"/>
      <point x="388" y="47"/>
      <point x="388" y="41" type="curve" smooth="yes"/>
      <point x="388" y="28"/>
      <point x="377" y="25"/>
      <point x="329" y="20" type="curve"/>
      <point x="329" y="0" type="line"/>
      <point x="578" y="0" type="line"/>
      <point x="578" y="20" type="line"/>
      <point x="528" y="25"/>
      <point x="510" y="35"/>
      <point x="492" y="63" type="curve" smooth="yes"/>
    </contour>
    <contour>
      <point x="267" y="277" type="line"/>
      <point x="131" y="91" type="line" smooth="yes"/>
      <point x="99" y="47"/>
      <point x="67" y="30"/>
      <point x="0" y="20" type="curve"/>
      <point x="0" y="0" type="line"/>
      <point x="221" y="0" type="line"/>
      <point x="221" y="20" type="line"/>
      <point x="175" y="26"/>
      <point x="156" y="38"/>
      <point x="156" y="56" type="curve" smooth="yes"/>
      <point x="156" y="64"/>
      <point x="160" y="74"/>
      <point x="174" y="92" type="curve" smooth="yes"/>
      <point x="301" y="259" type="line"/>
    </contour>
    <contour>
      <point x="314" y="275" type="line"/>
      <point x="443" y="442" type="line" smooth="yes"/>
      <point x="477" y="486"/>
      <point x="497" y="497"/>
      <point x="561" y="510" type="curve"/>
      <point x="561" y="530" type="line"/>
      <point x="355" y="530" type="line"/>
      <point x="355" y="510" type="line"/>
      <point x="396" y="503"/>
      <point x="413" y="491"/>
      <point x="413" y="476" type="curve" smooth="yes"/>
      <point x="413" y="465"/>
      <point x="411" y="459"/>
      <point x="395" y="438" type="curve" smooth="yes"/>
      <point x="280" y="288" type="line"/>
    </contour>
  </outline>
</glyph>
<glyph name="y" format="1">
  <advance width="572"/>
  <unicode hex="0079"/>
  <outline>
    <contour>
      <point x="320" y="144" type="line"/>
      <point x="198" y="460" type="line" smooth="yes"/>
      <point x="193" y="473"/>
      <point x="190" y="483"/>
      <point x="190" y="490" type="curve" smooth="yes"/>
      <point x="190" y="503"/>
      <point x="203" y="507"/>
      <point x="256" y="510" type="curve"/>
      <point x="256" y="530" type="line"/>
      <point x="9" y="530" type="line"/>
      <point x="9" y="510" type="line"/>
      <point x="49" y="506"/>
      <point x="68" y="495"/>
      <point x="80" y="470" type="curve" smooth="yes"/>
      <point x="275" y="-8" type="line"/>
      <point x="234" y="-134" type="line" smooth="yes"/>
      <point x="214" y="-193"/>
      <point x="197" y="-217"/>
      <point x="175" y="-217" type="curve" smooth="yes"/>
      <point x="162" y="-217"/>
      <point x="158" y="-212"/>
      <point x="155" y="-187" type="curve" smooth="yes"/>
      <point x="149" y="-154"/>
      <point x="135" y="-141"/>
      <point x="109" y="-141" type="curve" smooth="yes"/>
      <point x="75" y="-141"/>
      <point x="53" y="-162"/>
      <point x="53" y="-193" type="curve" smooth="yes"/>
      <point x="53" y="-233"/>
      <point x="86" y="-260"/>
      <point x="135" y="-260" type="curve" smooth="yes"/>
      <point x="169" y="-260"/>
      <point x="200" y="-248"/>
      <point x="220" y="-226" type="curve" smooth="yes"/>
      <point x="236" y="-210"/>
      <point x="253" y="-183"/>
      <point x="267" y="-141" type="curve" smooth="yes"/>
      <point x="462" y="430" type="line" smooth="yes"/>
      <point x="480" y="484"/>
      <point x="497" y="497"/>
      <point x="574" y="510" type="curve"/>
      <point x="574" y="530" type="line"/>
      <point x="349" y="530" type="line"/>
      <point x="349" y="510" type="line"/>
      <point x="404" y="507"/>
      <point x="426" y="491"/>
      <point x="426" y="467" type="curve" smooth="yes"/>
      <point x="426" y="458"/>
      <point x="424" y="445"/>
      <point x="419" y="431" type="curve" smooth="yes"/>
      <point x="325" y="144" type="line"/>
    </contour>
    <contour>
      <point x="323" y="651" type="move" name="top"/>
    </contour>
  </outline>
</glyph>
<glyph name="z" format="1">
  <advance width="513"/>
  <unicode hex="007A"/>
  <outline>
    <contour>
      <point x="71" y="530" type="line"/>
      <point x="59" y="332" type="line"/>
      <point x="80" y="331" type="line"/>
      <point x="86" y="363"/>
      <point x="98" y="407"/>
      <point x="130" y="498" type="curve"/>
      <point x="351" y="498" type="line"/>
      <point x="39" y="28" type="line"/>
      <point x="39" y="0" type="line"/>
      <point x="450" y="0" type="line"/>
      <point x="457" y="191" type="line"/>
      <point x="436" y="194" type="line"/>
      <point x="428" y="154"/>
      <point x="410" y="90"/>
      <point x="387" y="32" type="curve"/>
      <point x="155" y="32" type="line"/>
      <point x="471" y="503" type="line"/>
      <point x="471" y="530" type="line"/>
    </contour>
    <contour>
      <point x="261" y="651" type="move" name="top"/>
    </contour>
    <contour>
      <point x="257" y="0" type="move" name="bottom"/>
    </contour>
  </outline>
</glyph>
<glyph name="braceleft" format="1">
  <advance width="327"/>
  <unicode hex="007B"/>
  <outline>
    <contour>
      <point x="298" y="-180" type="line"/>
      <point x="274" y="-189"/>
      <point x="253" y="-194"/>
      <point x="227" y="-194" type="curve" smooth="yes"/>
      <point x="138" y="-194"/>
      <point x="99" y="-158"/>
      <point x="99" y="-70" type="curve" smooth="yes"/>
      <point x="99" y="2"/>
      <point x="125" y="106"/>
      <point x="125" y="194" type="curve" smooth="yes"/>
      <point x="125" y="285"/>
      <point x="100" y="320"/>
      <point x="29" y="320" type="curve"/>
      <point x="29" y="343" type="line"/>
      <point x="98" y="343"/>
      <point x="125" y="380"/>
      <point x="125" y="463" type="curve" smooth="yes"/>
      <point x="125" y="539"/>
      <point x="99" y="641"/>
      <point x="99" y="701" type="curve" smooth="yes"/>
      <point x="99" y="783"/>
      <point x="148" y="828"/>
      <point x="234" y="828" type="curve" smooth="yes"/>
      <point x="258" y="828"/>
      <point x="278" y="823"/>
      <point x="298" y="815" type="curve"/>
      <point x="292" y="789" type="line"/>
      <point x="270" y="793"/>
      <point x="262" y="794"/>
      <point x="251" y="794" type="curve" smooth="yes"/>
      <point x="208" y="794"/>
      <point x="185" y="757"/>
      <point x="185" y="699" type="curve" smooth="yes"/>
      <point x="185" y="644"/>
      <point x="210" y="538"/>
      <point x="210" y="464" type="curve" smooth="yes"/>
      <point x="210" y="393"/>
      <point x="187" y="351"/>
      <point x="138" y="332" type="curve"/>
      <point x="138" y="328" type="line"/>
      <point x="189" y="308"/>
      <point x="210" y="273"/>
      <point x="210" y="202" type="curve" smooth="yes"/>
      <point x="210" y="125"/>
      <point x="185" y="-5"/>
      <point x="185" y="-65" type="curve" smooth="yes"/>
      <point x="185" y="-130"/>
      <point x="205" y="-157"/>
      <point x="251" y="-157" type="curve" smooth="yes"/>
      <point x="266" y="-157"/>
      <point x="279" y="-155"/>
      <point x="292" y="-151" type="curve"/>
    </contour>
  </outline>
</glyph>
<glyph name="braceright" format="1">
  <advance width="327"/>
  <unicode hex="007D"/>
  <outline>
    <contour>
      <point x="35" y="-151" type="line"/>
      <point x="48" y="-155"/>
      <point x="61" y="-157"/>
      <point x="76" y="-157" type="curve" smooth="yes"/>
      <point x="122" y="-157"/>
      <point x="142" y="-130"/>
      <point x="142" y="-65" type="curve" smooth="yes"/>
      <point x="142" y="-5"/>
      <point x="117" y="125"/>
      <point x="117" y="202" type="curve" smooth="yes"/>
      <point x="117" y="273"/>
      <point x="138" y="308"/>
      <point x="189" y="328" type="curve"/>
      <point x="189" y="332" type="line"/>
      <point x="140" y="351"/>
      <point x="117" y="393"/>
      <point x="117" y="464" type="curve" smooth="yes"/>
      <point x="117" y="538"/>
      <point x="142" y="644"/>
      <point x="142" y="699" type="curve" smooth="yes"/>
      <point x="142" y="757"/>
      <point x="119" y="794"/>
      <point x="76" y="794" type="curve" smooth="yes"/>
      <point x="65" y="794"/>
      <point x="57" y="793"/>
      <point x="35" y="789" type="curve"/>
      <point x="29" y="815" type="line"/>
      <point x="49" y="823"/>
      <point x="69" y="828"/>
      <point x="93" y="828" type="curve" smooth="yes"/>
      <point x="179" y="828"/>
      <point x="228" y="783"/>
      <point x="228" y="701" type="curve" smooth="yes"/>
      <point x="228" y="641"/>
      <point x="202" y="539"/>
      <point x="202" y="463" type="curve" smooth="yes"/>
      <point x="202" y="380"/>
      <point x="229" y="343"/>
      <point x="298" y="343" type="curve"/>
      <point x="298" y="320" type="line"/>
      <point x="227" y="320"/>
      <point x="202" y="285"/>
      <point x="202" y="194" type="curve" smooth="yes"/>
      <point x="202" y="106"/>
      <point x="228" y="2"/>
      <point x="228" y="-70" type="curve" smooth="yes"/>
      <point x="228" y="-158"/>
      <point x="189" y="-194"/>
      <point x="100" y="-194" type="curve" smooth="yes"/>
      <point x="74" y="-194"/>
      <point x="53" y="-189"/>
      <point x="29" y="-180" type="curve"/>
    </contour>
  </outline>
</glyph>
<glyph name="cent" format="1">
  <advance width="554"/>
  <unicode hex="00A2"/>
  <outline>
    <contour>
      <point x="318" y="540" type="curve" smooth="yes"/>
      <point x="162" y="540"/>
      <point x="52" y="423"/>
      <point x="52" y="258" type="curve" smooth="yes"/>
      <point x="52" y="100"/>
      <point x="153" y="-10"/>
      <point x="296" y="-10" type="curve" smooth="yes"/>
      <point x="393" y="-10"/>
      <point x="468" y="40"/>
      <point x="502" y="128" type="curve" smooth="yes"/>
      <point x="507" y="141" type="line"/>
      <point x="488" y="151" type="line"/>
      <point x="477" y="136" type="line" smooth="yes"/>
      <point x="441" y="87"/>
      <point x="386" y="63"/>
      <point x="326" y="63" type="curve" smooth="yes"/>
      <point x="217" y="63"/>
      <point x="154" y="142"/>
      <point x="154" y="278" type="curve" smooth="yes"/>
      <point x="154" y="418"/>
      <point x="226" y="508"/>
      <point x="302" y="508" type="curve" smooth="yes"/>
      <point x="361" y="508"/>
      <point x="394" y="487"/>
      <point x="403" y="428" type="curve" smooth="yes"/>
      <point x="410" y="385"/>
      <point x="427" y="365"/>
      <point x="462" y="365" type="curve" smooth="yes"/>
      <point x="491" y="365"/>
      <point x="508" y="388"/>
      <point x="508" y="422" type="curve" smooth="yes"/>
      <point x="508" y="486"/>
      <point x="426" y="540"/>
    </contour>
    <contour>
      <point x="324" y="670" type="line"/>
      <point x="282" y="670" type="line"/>
      <point x="282" y="-130" type="line"/>
      <point x="324" y="-130" type="line"/>
    </contour>
  </outline>
</glyph>
<glyph name="currency" format="1">
  <advance width="634"/>
  <unicode hex="00A4"/>
  <outline>
    <contour>
      <point x="125" y="127" type="line"/>
      <point x="77" y="175" type="line"/>
      <point x="144" y="241" type="line"/>
      <point x="116" y="275"/>
      <point x="102" y="319"/>
      <point x="102" y="368" type="curve" smooth="yes"/>
      <point x="102" y="416"/>
      <point x="116" y="458"/>
      <point x="144" y="494" type="curve"/>
      <point x="77" y="559" type="line"/>
      <point x="125" y="607" type="line"/>
      <point x="191" y="540" type="line"/>
      <point x="225" y="567"/>
      <point x="269" y="582"/>
      <point x="317" y="582" type="curve" smooth="yes"/>
      <point x="363" y="582"/>
      <point x="406" y="568"/>
      <point x="444" y="541" type="curve"/>
      <point x="509" y="607" type="line"/>
      <point x="557" y="559" type="line"/>
      <point x="490" y="493" type="line"/>
      <point x="518" y="458"/>
      <point x="532" y="416"/>
      <point x="532" y="368" type="curve" smooth="yes"/>
      <point x="532" y="321"/>
      <point x="518" y="278"/>
      <point x="491" y="241" type="curve"/>
      <point x="557" y="175" type="line"/>
      <point x="509" y="127" type="line"/>
      <point x="443" y="194" type="line"/>
      <point x="408" y="166"/>
      <point x="366" y="152"/>
      <point x="317" y="152" type="curve" smooth="yes"/>
      <point x="269" y="152"/>
      <point x="227" y="166"/>
      <point x="191" y="194" type="curve"/>
    </contour>
    <contour>
      <point x="317" y="216" type="curve" smooth="yes"/>
      <point x="396" y="216"/>
      <point x="462" y="284"/>
      <point x="462" y="367" type="curve" smooth="yes"/>
      <point x="462" y="450"/>
      <point x="396" y="518"/>
      <point x="317" y="518" type="curve" smooth="yes"/>
      <point x="238" y="518"/>
      <point x="172" y="450"/>
      <point x="172" y="368" type="curve" smooth="yes"/>
      <point x="172" y="285"/>
      <point x="238" y="216"/>
    </contour>
  </outline>
</glyph>
<glyph name="brokenbar" format="1">
  <advance width="275"/>
  <unicode hex="00A6"/>
  <outline>
    <contour>
      <point x="171" y="432" type="line"/>
      <point x="171" y="819" type="line"/>
      <point x="104" y="819" type="line"/>
      <point x="104" y="432" type="line"/>
    </contour>
    <contour>
      <point x="171" y="-171" type="line"/>
      <point x="171" y="216" type="line"/>
      <point x="104" y="216" type="line"/>
      <point x="104" y="-171" type="line"/>
    </contour>
  </outline>
</glyph>
<glyph name="dieresis" format="1">
  <advance width="317"/>
  <unicode hex="00A8"/>
  <outline>
    <contour>
      <point x="10" y="725" type="curve" smooth="yes"/>
      <point x="10" y="695"/>
      <point x="32" y="670"/>
      <point x="65" y="670" type="curve" smooth="yes"/>
      <point x="99" y="670"/>
      <point x="120" y="695"/>
      <point x="120" y="725" type="curve" smooth="yes"/>
      <point x="120" y="757"/>
      <point x="99" y="780"/>
      <point x="65" y="780" type="curve" smooth="yes"/>
      <point x="32" y="780"/>
      <point x="10" y="757"/>
    </contour>
    <contour>
      <point x="197" y="725" type="curve" smooth="yes"/>
      <point x="197" y="695"/>
      <point x="219" y="670"/>
      <point x="252" y="670" type="curve" smooth="yes"/>
      <point x="286" y="670"/>
      <point x="307" y="695"/>
      <point x="307" y="725" type="curve" smooth="yes"/>
      <point x="307" y="757"/>
      <point x="286" y="780"/>
      <point x="252" y="780" type="curve" smooth="yes"/>
      <point x="219" y="780"/>
      <point x="197" y="757"/>
    </contour>
    <contour>
      <point x="158" y="651" type="move" name="_top"/>
    </contour>
  </outline>
</glyph>
<glyph name="ordfeminine" format="1">
  <advance width="417"/>
  <unicode hex="00AA"/>
  <outline>
    <contour>
      <point x="143" y="422" type="curve" smooth="yes"/>
      <point x="178" y="422"/>
      <point x="211" y="441"/>
      <point x="238" y="477" type="curve"/>
      <point x="242" y="476" type="line"/>
      <point x="248" y="441"/>
      <point x="270" y="422"/>
      <point x="304" y="422" type="curve" smooth="yes"/>
      <point x="333" y="422"/>
      <point x="356" y="436"/>
      <point x="376" y="466" type="curve"/>
      <point x="360" y="481" type="line"/>
      <point x="350" y="471"/>
      <point x="343" y="467"/>
      <point x="333" y="467" type="curve" smooth="yes"/>
      <point x="314" y="467"/>
      <point x="309" y="479"/>
      <point x="309" y="521" type="curve" smooth="yes"/>
      <point x="309" y="660" type="line" smooth="yes"/>
      <point x="309" y="716"/>
      <point x="308" y="730"/>
      <point x="301" y="745" type="curve" smooth="yes"/>
      <point x="290" y="766"/>
      <point x="259" y="780"/>
      <point x="221" y="780" type="curve" smooth="yes"/>
      <point x="192" y="780"/>
      <point x="162" y="773"/>
      <point x="138" y="760" type="curve" smooth="yes"/>
      <point x="96" y="739"/>
      <point x="68" y="705"/>
      <point x="68" y="676" type="curve" smooth="yes"/>
      <point x="68" y="658"/>
      <point x="80" y="645"/>
      <point x="98" y="645" type="curve" smooth="yes"/>
      <point x="117" y="645"/>
      <point x="132" y="661"/>
      <point x="132" y="682" type="curve" smooth="yes"/>
      <point x="132" y="690"/>
      <point x="130" y="698"/>
      <point x="130" y="705" type="curve" smooth="yes"/>
      <point x="130" y="729"/>
      <point x="154" y="745"/>
      <point x="189" y="745" type="curve" smooth="yes"/>
      <point x="224" y="745"/>
      <point x="237" y="727"/>
      <point x="237" y="680" type="curve" smooth="yes"/>
      <point x="237" y="622" type="line"/>
      <point x="108" y="593"/>
      <point x="58" y="560"/>
      <point x="58" y="502" type="curve" smooth="yes"/>
      <point x="58" y="454"/>
      <point x="93" y="422"/>
    </contour>
    <contour>
      <point x="180" y="471" type="curve" smooth="yes"/>
      <point x="150" y="471"/>
      <point x="132" y="487"/>
      <point x="132" y="515" type="curve" smooth="yes"/>
      <point x="132" y="557"/>
      <point x="158" y="576"/>
      <point x="237" y="593" type="curve"/>
      <point x="237" y="514" type="line"/>
      <point x="221" y="484"/>
      <point x="203" y="471"/>
    </contour>
  </outline>
</glyph>
<glyph name="guillemotleft" format="1">
  <advance width="436"/>
  <unicode hex="00AB"/>
  <outline>
    <contour>
      <point x="197" y="53" type="line"/>
      <point x="58" y="236" type="line"/>
      <point x="58" y="255" type="line"/>
      <point x="195" y="436" type="line"/>
      <point x="207" y="431" type="line"/>
      <point x="141" y="246" type="line"/>
      <point x="209" y="61" type="line"/>
    </contour>
    <contour>
      <point x="353" y="53" type="line"/>
      <point x="214" y="236" type="line"/>
      <point x="214" y="255" type="line"/>
      <point x="351" y="436" type="line"/>
      <point x="363" y="431" type="line"/>
      <point x="297" y="246" type="line"/>
      <point x="365" y="61" type="line"/>
    </contour>
  </outline>
</glyph>
<glyph name="uni00AD" format="1">
  <advance width="465"/>
  <unicode hex="00AD"/>
  <outline>
    <contour>
      <point x="392" y="210" type="line"/>
      <point x="392" y="294" type="line"/>
      <point x="73" y="294" type="line"/>
      <point x="73" y="210" type="line"/>
    </contour>
  </outline>
</glyph>
<glyph name="registered" format="1">
  <advance width="690"/>
  <unicode hex="00AE"/>
  <outline>
    <contour>
      <point x="67" y="504" type="curve" smooth="yes"/>
      <point x="67" y="351"/>
      <point x="192" y="227"/>
      <point x="345" y="227" type="curve" smooth="yes"/>
      <point x="498" y="227"/>
      <point x="623" y="351"/>
      <point x="623" y="504" type="curve" smooth="yes"/>
      <point x="623" y="657"/>
      <point x="498" y="780"/>
      <point x="345" y="780" type="curve" smooth="yes"/>
      <point x="192" y="780"/>
      <point x="67" y="657"/>
    </contour>
    <contour>
      <point x="103" y="504" type="curve" smooth="yes"/>
      <point x="103" y="638"/>
      <point x="211" y="750"/>
      <point x="345" y="750" type="curve" smooth="yes"/>
      <point x="479" y="750"/>
      <point x="586" y="638"/>
      <point x="586" y="504" type="curve" smooth="yes"/>
      <point x="586" y="370"/>
      <point x="479" y="258"/>
      <point x="345" y="258" type="curve" smooth="yes"/>
      <point x="211" y="258"/>
      <point x="103" y="370"/>
    </contour>
    <contour>
      <point x="228" y="650" type="line"/>
      <point x="254" y="642" type="line"/>
      <point x="254" y="375" type="line"/>
      <point x="228" y="367" type="line"/>
      <point x="228" y="355" type="line"/>
      <point x="344" y="355" type="line"/>
      <point x="344" y="367" type="line"/>
      <point x="308" y="375" type="line"/>
      <point x="308" y="495" type="line"/>
      <point x="331" y="495" type="line"/>
      <point x="402" y="355" type="line"/>
      <point x="488" y="355" type="line"/>
      <point x="488" y="367" type="line"/>
      <point x="458" y="375" type="line"/>
      <point x="390" y="500" type="line"/>
      <point x="434" y="510"/>
      <point x="460" y="536"/>
      <point x="460" y="577" type="curve" smooth="yes"/>
      <point x="460" y="632"/>
      <point x="413" y="663"/>
      <point x="346" y="663" type="curve" smooth="yes"/>
      <point x="228" y="663" type="line"/>
    </contour>
    <contour>
      <point x="308" y="642" type="line"/>
      <point x="374" y="642"/>
      <point x="400" y="620"/>
      <point x="400" y="579" type="curve" smooth="yes"/>
      <point x="400" y="533"/>
      <point x="360" y="516"/>
      <point x="308" y="516" type="curve"/>
    </contour>
  </outline>
</glyph>
<glyph name="macron" format="1">
  <advance width="307"/>
  <unicode hex="00AF"/>
  <outline>
    <contour>
      <point x="297" y="709" type="line"/>
      <point x="297" y="780" type="line"/>
      <point x="10" y="780" type="line"/>
      <point x="10" y="709" type="line"/>
    </contour>
    <contour>
      <point x="163" y="651" type="move" name="_top"/>
    </contour>
  </outline>
</glyph>
<glyph name="degree" format="1">
  <advance width="340"/>
  <unicode hex="00B0"/>
  <outline>
    <contour>
      <point x="170" y="587" type="curve" smooth="yes"/>
      <point x="102" y="587"/>
      <point x="49" y="640"/>
      <point x="49" y="708" type="curve" smooth="yes"/>
      <point x="49" y="776"/>
      <point x="102" y="830"/>
      <point x="170" y="830" type="curve" smooth="yes"/>
      <point x="237" y="830"/>
      <point x="291" y="775"/>
      <point x="291" y="708" type="curve" smooth="yes"/>
      <point x="291" y="640"/>
      <point x="238" y="587"/>
    </contour>
    <contour>
      <point x="90" y="708" type="curve" smooth="yes"/>
      <point x="90" y="662"/>
      <point x="124" y="628"/>
      <point x="170" y="628" type="curve" smooth="yes"/>
      <point x="218" y="628"/>
      <point x="250" y="662"/>
      <point x="250" y="708" type="curve" smooth="yes"/>
      <point x="250" y="756"/>
      <point x="218" y="790"/>
      <point x="170" y="790" type="curve" smooth="yes"/>
      <point x="124" y="790"/>
      <point x="90" y="756"/>
    </contour>
  </outline>
</glyph>
<glyph name="plusminus" format="1">
  <advance width="576"/>
  <unicode hex="00B1"/>
  <outline>
    <contour>
      <point x="493" y="422" type="line"/>
      <point x="493" y="471" type="line"/>
      <point x="83" y="471" type="line"/>
      <point x="83" y="422" type="line"/>
    </contour>
    <contour>
      <point x="263" y="241" type="line"/>
      <point x="314" y="241" type="line"/>
      <point x="314" y="651" type="line"/>
      <point x="263" y="651" type="line"/>
    </contour>
    <contour>
      <point x="493" y="106" type="line"/>
      <point x="493" y="155" type="line"/>
      <point x="83" y="155" type="line"/>
      <point x="83" y="106" type="line"/>
    </contour>
  </outline>
</glyph>
<glyph name="twosuperior" format="1">
  <advance width="405"/>
  <unicode hex="00B2"/>
  <outline>
    <contour>
      <point x="284" y="416" type="line"/>
      <point x="296" y="394" type="line"/>
      <point x="315" y="394" type="line"/>
      <point x="367" y="563" type="line"/>
      <point x="343" y="568" type="line"/>
      <point x="327" y="539"/>
      <point x="309" y="516"/>
      <point x="295" y="502" type="curve"/>
      <point x="130" y="502" type="line"/>
      <point x="293" y="629"/>
      <point x="351" y="704"/>
      <point x="351" y="784" type="curve" smooth="yes"/>
      <point x="351" y="865"/>
      <point x="289" y="926"/>
      <point x="207" y="926" type="curve" smooth="yes"/>
      <point x="135" y="926"/>
      <point x="73" y="879"/>
      <point x="44" y="801" type="curve"/>
      <point x="66" y="787" type="line"/>
      <point x="90" y="832"/>
      <point x="133" y="863"/>
      <point x="174" y="863" type="curve" smooth="yes"/>
      <point x="221" y="863"/>
      <point x="253" y="827"/>
      <point x="253" y="771" type="curve" smooth="yes"/>
      <point x="253" y="694"/>
      <point x="192" y="608"/>
      <point x="28" y="454" type="curve"/>
      <point x="34" y="416" type="line"/>
    </contour>
  </outline>
</glyph>
<glyph name="threesuperior" format="1">
  <advance width="389"/>
  <unicode hex="00B3"/>
  <outline>
    <contour>
      <point x="120" y="654" type="line"/>
      <point x="131" y="656"/>
      <point x="146" y="657"/>
      <point x="155" y="657" type="curve" smooth="yes"/>
      <point x="215" y="657"/>
      <point x="256" y="614"/>
      <point x="256" y="544" type="curve" smooth="yes"/>
      <point x="256" y="487"/>
      <point x="225" y="451"/>
      <point x="180" y="451" type="curve" smooth="yes"/>
      <point x="111" y="451"/>
      <point x="136" y="548"/>
      <point x="77" y="548" type="curve" smooth="yes"/>
      <point x="51" y="548"/>
      <point x="34" y="528"/>
      <point x="34" y="500" type="curve" smooth="yes"/>
      <point x="34" y="449"/>
      <point x="92" y="409"/>
      <point x="165" y="409" type="curve" smooth="yes"/>
      <point x="266" y="409"/>
      <point x="346" y="487"/>
      <point x="346" y="583" type="curve" smooth="yes"/>
      <point x="346" y="657"/>
      <point x="299" y="709"/>
      <point x="227" y="716" type="curve"/>
      <point x="227" y="720" type="line"/>
      <point x="277" y="733"/>
      <point x="316" y="772"/>
      <point x="316" y="824" type="curve" smooth="yes"/>
      <point x="316" y="885"/>
      <point x="268" y="926"/>
      <point x="200" y="926" type="curve" smooth="yes"/>
      <point x="127" y="926"/>
      <point x="68" y="880"/>
      <point x="53" y="812" type="curve"/>
      <point x="74" y="803" type="line"/>
      <point x="93" y="840"/>
      <point x="130" y="865"/>
      <point x="168" y="865" type="curve" smooth="yes"/>
      <point x="201" y="865"/>
      <point x="224" y="843"/>
      <point x="224" y="808" type="curve" smooth="yes"/>
      <point x="224" y="759"/>
      <point x="181" y="710"/>
      <point x="111" y="683" type="curve"/>
    </contour>
  </outline>
</glyph>
<glyph name="mu" format="1">
  <advance width="624"/>
  <unicode hex="00B5"/>
  <outline>
    <contour>
      <point x="417" y="-10" type="line"/>
      <point x="424" y="-10" type="line"/>
      <point x="574" y="39" type="line"/>
      <point x="574" y="51" type="line"/>
      <point x="506" y="75" type="line"/>
      <point x="506" y="530" type="line"/>
      <point x="411" y="530" type="line"/>
      <point x="411" y="114" type="line"/>
      <point x="375" y="67"/>
      <point x="326" y="39"/>
      <point x="279" y="39" type="curve" smooth="yes"/>
      <point x="246" y="39"/>
      <point x="225" y="52"/>
      <point x="213" y="81" type="curve" smooth="yes"/>
      <point x="204" y="100"/>
      <point x="201" y="130"/>
      <point x="201" y="193" type="curve" smooth="yes"/>
      <point x="201" y="530" type="line"/>
      <point x="106" y="530" type="line"/>
      <point x="106" y="127" type="line" smooth="yes"/>
      <point x="106" y="27"/>
      <point x="91" y="-111"/>
      <point x="91" y="-173" type="curve" smooth="yes"/>
      <point x="91" y="-234"/>
      <point x="106" y="-260"/>
      <point x="140" y="-260" type="curve" smooth="yes"/>
      <point x="171" y="-260"/>
      <point x="188" y="-240"/>
      <point x="188" y="-206" type="curve" smooth="yes"/>
      <point x="188" y="-154"/>
      <point x="147" y="-20"/>
      <point x="147" y="70" type="curve"/>
      <point x="150" y="72" type="line"/>
      <point x="161" y="22"/>
      <point x="204" y="-10"/>
      <point x="261" y="-10" type="curve" smooth="yes"/>
      <point x="316" y="-10"/>
      <point x="366" y="20"/>
      <point x="413" y="82" type="curve"/>
      <point x="417" y="81" type="line"/>
    </contour>
  </outline>
</glyph>
<glyph name="paragraph" format="1">
  <advance width="583"/>
  <unicode hex="00B6"/>
  <outline>
    <contour>
      <point x="340" y="-108" type="line"/>
      <point x="340" y="730" type="line"/>
      <point x="400" y="730" type="line"/>
      <point x="400" y="-108" type="line"/>
      <point x="446" y="-108" type="line"/>
      <point x="446" y="728" type="line"/>
      <point x="524" y="745" type="line"/>
      <point x="524" y="770" type="line"/>
      <point x="263" y="770" type="line" smooth="yes"/>
      <point x="119" y="770"/>
      <point x="31" y="685"/>
      <point x="31" y="554" type="curve" smooth="yes"/>
      <point x="31" y="438"/>
      <point x="111" y="340"/>
      <point x="238" y="340" type="curve" smooth="yes"/>
      <point x="294" y="340" type="line"/>
      <point x="294" y="-108" type="line"/>
    </contour>
  </outline>
</glyph>
<glyph name="cedilla" format="1">
  <advance width="230"/>
  <unicode hex="00B8"/>
  <outline>
    <contour>
      <point x="10" y="-233" type="line"/>
      <point x="27" y="-248"/>
      <point x="57" y="-257"/>
      <point x="88" y="-257" type="curve" smooth="yes"/>
      <point x="169" y="-257"/>
      <point x="220" y="-214"/>
      <point x="220" y="-156" type="curve" smooth="yes"/>
      <point x="220" y="-100"/>
      <point x="176" y="-58"/>
      <point x="105" y="-58" type="curve"/>
      <point x="134" y="17" type="line"/>
      <point x="97" y="17" type="line"/>
      <point x="37" y="-124" type="line"/>
      <point x="46" y="-133" type="line"/>
      <point x="62" y="-128"/>
      <point x="82" y="-125"/>
      <point x="97" y="-125" type="curve" smooth="yes"/>
      <point x="128" y="-125"/>
      <point x="145" y="-141"/>
      <point x="145" y="-168" type="curve" smooth="yes"/>
      <point x="145" y="-198"/>
      <point x="120" y="-220"/>
      <point x="80" y="-220" type="curve" smooth="yes"/>
      <point x="60" y="-220"/>
      <point x="47" y="-216"/>
      <point x="24" y="-203" type="curve"/>
    </contour>
    <contour>
      <point x="110" y="0" type="move" name="_bottom"/>
    </contour>
  </outline>
</glyph>
<glyph name="onesuperior" format="1">
  <advance width="351"/>
  <unicode hex="00B9"/>
  <outline>
    <contour>
      <point x="206" y="926" type="line"/>
      <point x="159" y="882"/>
      <point x="113" y="857"/>
      <point x="59" y="846" type="curve"/>
      <point x="59" y="818" type="line"/>
      <point x="140" y="818" type="line"/>
      <point x="140" y="457" type="line"/>
      <point x="58" y="440" type="line"/>
      <point x="58" y="416" type="line"/>
      <point x="313" y="416" type="line"/>
      <point x="313" y="440" type="line"/>
      <point x="230" y="457" type="line"/>
      <point x="230" y="921" type="line"/>
    </contour>
  </outline>
</glyph>
<glyph name="questiondown" format="1">
  <advance width="404"/>
  <unicode hex="00BF"/>
  <outline>
    <contour>
      <point x="309" y="300" type="line"/>
      <point x="309" y="88" type="line"/>
      <point x="270" y="88" type="line" smooth="yes"/>
      <point x="141" y="88"/>
      <point x="75" y="56"/>
      <point x="75" y="-8" type="curve" smooth="yes"/>
      <point x="75" y="-59"/>
      <point x="118" y="-107"/>
      <point x="208" y="-142" type="curve" smooth="yes"/>
      <point x="311" y="-182"/>
      <point x="328" y="-192"/>
      <point x="328" y="-221" type="curve" smooth="yes"/>
      <point x="328" y="-246"/>
      <point x="312" y="-256"/>
      <point x="275" y="-256" type="curve" smooth="yes"/>
      <point x="149" y="-256"/>
      <point x="41" y="-141"/>
      <point x="41" y="1" type="curve" smooth="yes"/>
      <point x="41" y="111"/>
      <point x="113" y="173"/>
      <point x="243" y="177" type="curve" smooth="yes"/>
      <point x="273" y="178" type="line"/>
      <point x="273" y="300" type="line"/>
    </contour>
    <contour>
      <point x="357" y="475" type="curve" smooth="yes"/>
      <point x="357" y="514"/>
      <point x="331" y="540"/>
      <point x="293" y="540" type="curve" smooth="yes"/>
      <point x="254" y="540"/>
      <point x="227" y="513"/>
      <point x="227" y="475" type="curve" smooth="yes"/>
      <point x="227" y="437"/>
      <point x="254" y="410"/>
      <point x="292" y="410" type="curve" smooth="yes"/>
      <point x="331" y="410"/>
      <point x="357" y="437"/>
    </contour>
  </outline>
</glyph>
<glyph name="multiply" format="1">
  <advance width="491"/>
  <unicode hex="00D7"/>
  <outline>
    <contour>
      <point x="387" y="162" type="line"/>
      <point x="424" y="199" type="line"/>
      <point x="106" y="517" type="line"/>
      <point x="69" y="480" type="line"/>
    </contour>
    <contour>
      <point x="68" y="199" type="line"/>
      <point x="107" y="160" type="line"/>
      <point x="425" y="478" type="line"/>
      <point x="386" y="517" type="line"/>
    </contour>
  </outline>
</glyph>
<glyph name="Thorn" format="1">
  <advance width="665"/>
  <unicode hex="00DE"/>
  <outline>
    <contour>
      <point x="353" y="747" type="line"/>
      <point x="353" y="770" type="line"/>
      <point x="49" y="770" type="line"/>
      <point x="49" y="747" type="line"/>
      <point x="134" y="728" type="line"/>
      <point x="134" y="42" type="line"/>
      <point x="49" y="23" type="line"/>
      <point x="49" y="0" type="line"/>
      <point x="353" y="0" type="line"/>
      <point x="353" y="23" type="line"/>
      <point x="239" y="42" type="line"/>
      <point x="239" y="167" type="line"/>
      <point x="345" y="167" type="line" smooth="yes"/>
      <point x="519" y="167"/>
      <point x="627" y="241"/>
      <point x="627" y="378" type="curve" smooth="yes"/>
      <point x="627" y="526"/>
      <point x="517" y="607"/>
      <point x="360" y="607" type="curve" smooth="yes"/>
      <point x="239" y="607" type="line"/>
      <point x="239" y="728" type="line"/>
    </contour>
    <contour>
      <point x="239" y="567" type="line"/>
      <point x="331" y="567" type="line" smooth="yes"/>
      <point x="372" y="567"/>
      <point x="398" y="564"/>
      <point x="420" y="555" type="curve" smooth="yes"/>
      <point x="478" y="532"/>
      <point x="512" y="474"/>
      <point x="512" y="388" type="curve" smooth="yes"/>
      <point x="512" y="341"/>
      <point x="502" y="295"/>
      <point x="472" y="260" type="curve" smooth="yes"/>
      <point x="443" y="226"/>
      <point x="398" y="206"/>
      <point x="314" y="206" type="curve" smooth="yes"/>
      <point x="239" y="206" type="line"/>
    </contour>
  </outline>
</glyph>
<glyph name="germandbls" format="1">
  <advance width="694"/>
  <unicode hex="00DF"/>
  <outline>
    <contour>
      <point x="360" y="830" type="curve" smooth="yes"/>
      <point x="252" y="830"/>
      <point x="164" y="781"/>
      <point x="132" y="703" type="curve" smooth="yes"/>
      <point x="118" y="668"/>
      <point x="114" y="626"/>
      <point x="114" y="516" type="curve" smooth="yes"/>
      <point x="114" y="34" type="line"/>
      <point x="39" y="19" type="line"/>
      <point x="39" y="0" type="line"/>
      <point x="295" y="0" type="line"/>
      <point x="295" y="19" type="line"/>
      <point x="209" y="34" type="line"/>
      <point x="209" y="585" type="line" smooth="yes"/>
      <point x="209" y="721"/>
      <point x="255" y="794"/>
      <point x="341" y="794" type="curve" smooth="yes"/>
      <point x="409" y="794"/>
      <point x="455" y="748"/>
      <point x="455" y="678" type="curve" smooth="yes"/>
      <point x="455" y="568"/>
      <point x="340" y="500"/>
      <point x="340" y="388" type="curve" smooth="yes"/>
      <point x="340" y="222"/>
      <point x="591" y="250"/>
      <point x="591" y="111" type="curve" smooth="yes"/>
      <point x="591" y="56"/>
      <point x="552" y="20"/>
      <point x="491" y="20" type="curve" smooth="yes"/>
      <point x="416" y="20"/>
      <point x="372" y="73"/>
      <point x="364" y="174" type="curve"/>
      <point x="340" y="174" type="line"/>
      <point x="346" y="12" type="line"/>
      <point x="385" y="-1"/>
      <point x="442" y="-10"/>
      <point x="484" y="-10" type="curve" smooth="yes"/>
      <point x="597" y="-10"/>
      <point x="668" y="53"/>
      <point x="668" y="152" type="curve" smooth="yes"/>
      <point x="668" y="338"/>
      <point x="419" y="299"/>
      <point x="419" y="428" type="curve" smooth="yes"/>
      <point x="419" y="518"/>
      <point x="541" y="583"/>
      <point x="541" y="694" type="curve" smooth="yes"/>
      <point x="541" y="778"/>
      <point x="472" y="830"/>
    </contour>
    <contour>
      <point x="26" y="478" type="line"/>
      <point x="167" y="478" type="line"/>
      <point x="179" y="510" type="line"/>
      <point x="38" y="510" type="line"/>
    </contour>
  </outline>
</glyph>
<glyph name="divide" format="1">
  <advance width="525"/>
  <unicode hex="00F7"/>
  <outline>
    <contour>
      <point x="185" y="513" type="curve" smooth="yes"/>
      <point x="185" y="476"/>
      <point x="212" y="445"/>
      <point x="253" y="445" type="curve" smooth="yes"/>
      <point x="296" y="445"/>
      <point x="323" y="476"/>
      <point x="323" y="513" type="curve" smooth="yes"/>
      <point x="323" y="553"/>
      <point x="296" y="583"/>
      <point x="253" y="583" type="curve" smooth="yes"/>
      <point x="212" y="583"/>
      <point x="185" y="553"/>
    </contour>
    <contour>
      <point x="185" y="170" type="curve" smooth="yes"/>
      <point x="185" y="133"/>
      <point x="212" y="102"/>
      <point x="253" y="102" type="curve" smooth="yes"/>
      <point x="296" y="102"/>
      <point x="323" y="133"/>
      <point x="323" y="170" type="curve" smooth="yes"/>
      <point x="323" y="210"/>
      <point x="296" y="240"/>
      <point x="253" y="240" type="curve" smooth="yes"/>
      <point x="212" y="240"/>
      <point x="185" y="210"/>
    </contour>
    <component base="minus" xOffset="-21"/>
  </outline>
</glyph>
<glyph name="thorn" format="1">
  <advance width="603"/>
  <unicode hex="00FE"/>
  <outline>
    <contour>
      <point x="283" y="20" type="curve" smooth="yes"/>
      <point x="381" y="20"/>
      <point x="449" y="120"/>
      <point x="449" y="263" type="curve" smooth="yes"/>
      <point x="449" y="400"/>
      <point x="389" y="486"/>
      <point x="294" y="486" type="curve" smooth="yes"/>
      <point x="250" y="486"/>
      <point x="210" y="467"/>
      <point x="183" y="434" type="curve"/>
      <point x="183" y="118" type="line" smooth="yes"/>
      <point x="183" y="60"/>
      <point x="223" y="20"/>
    </contour>
    <contour>
      <point x="274" y="-10" type="curve" smooth="yes"/>
      <point x="240" y="-10"/>
      <point x="208" y="-5"/>
      <point x="178" y="5" type="curve"/>
      <point x="178" y="-216" type="line"/>
      <point x="277" y="-231" type="line"/>
      <point x="277" y="-250" type="line"/>
      <point x="12" y="-250" type="line"/>
      <point x="12" y="-231" type="line"/>
      <point x="87" y="-216" type="line"/>
      <point x="87" y="741" type="line"/>
      <point x="14" y="768" type="line"/>
      <point x="14" y="781" type="line"/>
      <point x="173" y="830" type="line"/>
      <point x="183" y="830" type="line"/>
      <point x="183" y="472" type="line"/>
      <point x="225" y="518"/>
      <point x="276" y="540"/>
      <point x="337" y="540" type="curve" smooth="yes"/>
      <point x="468" y="540"/>
      <point x="556" y="436"/>
      <point x="556" y="282" type="curve" smooth="yes"/>
      <point x="556" y="107"/>
      <point x="443" y="-10"/>
    </contour>
  </outline>
</glyph>
<glyph name="Dcroat" format="1">
  <advance width="811"/>
  <unicode hex="0110"/>
  <outline>
    <contour>
      <point x="385" y="0" type="line" smooth="yes"/>
      <point x="485" y="0"/>
      <point x="548" y="17"/>
      <point x="606" y="59" type="curve" smooth="yes"/>
      <point x="699" y="127"/>
      <point x="754" y="247"/>
      <point x="754" y="383" type="curve" smooth="yes"/>
      <point x="754" y="514"/>
      <point x="703" y="628"/>
      <point x="613" y="697" type="curve" smooth="yes"/>
      <point x="543" y="750"/>
      <point x="458" y="770"/>
      <point x="299" y="770" type="curve" smooth="yes"/>
      <point x="50" y="770" type="line"/>
      <point x="50" y="747" type="line"/>
      <point x="135" y="728" type="line"/>
      <point x="135" y="429" type="line"/>
      <point x="56" y="429" type="line"/>
      <point x="56" y="364" type="line"/>
      <point x="135" y="364" type="line"/>
      <point x="135" y="42" type="line"/>
      <point x="50" y="23" type="line"/>
      <point x="50" y="0" type="line"/>
    </contour>
    <contour>
      <point x="344" y="38" type="curve" smooth="yes"/>
      <point x="265" y="38"/>
      <point x="240" y="52"/>
      <point x="240" y="98" type="curve" smooth="yes"/>
      <point x="240" y="364" type="line"/>
      <point x="363" y="364" type="line"/>
      <point x="363" y="429" type="line"/>
      <point x="240" y="429" type="line"/>
      <point x="240" y="730" type="line"/>
      <point x="319" y="730" type="line" smooth="yes"/>
      <point x="431" y="730"/>
      <point x="493" y="710"/>
      <point x="544" y="657" type="curve" smooth="yes"/>
      <point x="600" y="598"/>
      <point x="629" y="508"/>
      <point x="629" y="395" type="curve" smooth="yes"/>
      <point x="629" y="283"/>
      <point x="600" y="185"/>
      <point x="547" y="119" type="curve" smooth="yes"/>
      <point x="499" y="61"/>
      <point x="442" y="38"/>
    </contour>
  </outline>
</glyph>
<glyph name="dcroat" format="1">
  <advance width="607"/>
  <unicode hex="0111"/>
  <outline>
    <contour>
      <point x="581" y="609" type="line"/>
      <point x="581" y="674" type="line"/>
      <point x="274" y="674" type="line"/>
      <point x="274" y="609" type="line"/>
    </contour>
    <component base="d"/>
  </outline>
</glyph>
<glyph name="Hbar" format="1">
  <advance width="858"/>
  <unicode hex="0126"/>
  <outline>
    <contour>
      <point x="135" y="42" type="line"/>
      <point x="45" y="23" type="line"/>
      <point x="45" y="0" type="line"/>
      <point x="329" y="0" type="line"/>
      <point x="329" y="23" type="line"/>
      <point x="240" y="42" type="line"/>
      <point x="240" y="385" type="line"/>
      <point x="618" y="385" type="line"/>
      <point x="618" y="42" type="line"/>
      <point x="528" y="23" type="line"/>
      <point x="528" y="0" type="line"/>
      <point x="812" y="0" type="line"/>
      <point x="812" y="21" type="line"/>
      <point x="723" y="42" type="line"/>
      <point x="723" y="547" type="line"/>
      <point x="813" y="547" type="line"/>
      <point x="813" y="612" type="line"/>
      <point x="723" y="612" type="line"/>
      <point x="723" y="728" type="line"/>
      <point x="812" y="745" type="line"/>
      <point x="812" y="770" type="line"/>
      <point x="528" y="770" type="line"/>
      <point x="528" y="747" type="line"/>
      <point x="618" y="728" type="line"/>
      <point x="618" y="612" type="line"/>
      <point x="240" y="612" type="line"/>
      <point x="240" y="728" type="line"/>
      <point x="329" y="747" type="line"/>
      <point x="329" y="770" type="line"/>
      <point x="45" y="770" type="line"/>
      <point x="45" y="747" type="line"/>
      <point x="135" y="728" type="line"/>
      <point x="135" y="612" type="line"/>
      <point x="55" y="612" type="line"/>
      <point x="55" y="547" type="line"/>
      <point x="135" y="547" type="line"/>
    </contour>
    <contour>
      <point x="240" y="547" type="line"/>
      <point x="618" y="547" type="line"/>
      <point x="618" y="425" type="line"/>
      <point x="240" y="425" type="line"/>
    </contour>
  </outline>
</glyph>
<glyph name="Lslash" format="1">
  <advance width="657"/>
  <unicode hex="0141"/>
  <outline>
    <contour>
      <point x="335" y="454" type="line"/>
      <point x="335" y="519" type="line"/>
      <point x="59" y="371" type="line"/>
      <point x="59" y="306" type="line"/>
    </contour>
    <component base="L" xOffset="1"/>
  </outline>
</glyph>
<glyph name="OE" format="1">
  <advance width="1146"/>
  <unicode hex="0152"/>
  <outline>
    <contour>
      <point x="594" y="102" type="line"/>
      <point x="555" y="60"/>
      <point x="491" y="35"/>
      <point x="423" y="35" type="curve" smooth="yes"/>
      <point x="270" y="35"/>
      <point x="181" y="163"/>
      <point x="181" y="386" type="curve" smooth="yes"/>
      <point x="181" y="608"/>
      <point x="269" y="735"/>
      <point x="424" y="735" type="curve" smooth="yes"/>
      <point x="505" y="735"/>
      <point x="574" y="700"/>
      <point x="612" y="640" type="curve"/>
      <point x="640" y="732" type="line"/>
      <point x="582" y="761"/>
      <point x="500" y="780"/>
      <point x="427" y="780" type="curve" smooth="yes"/>
      <point x="211" y="780"/>
      <point x="55" y="615"/>
      <point x="55" y="385" type="curve" smooth="yes"/>
      <point x="55" y="155"/>
      <point x="211" y="-10"/>
      <point x="427" y="-10" type="curve" smooth="yes"/>
      <point x="498" y="-10"/>
      <point x="578" y="6"/>
      <point x="633" y="32" type="curve"/>
    </contour>
    <component base="E" xOffset="454"/>
  </outline>
</glyph>
<glyph name="tbar" format="1">
  <advance width="353"/>
  <unicode hex="0167"/>
  <outline>
    <contour>
      <point x="33" y="337" type="line"/>
      <point x="330" y="337" type="line"/>
      <point x="330" y="375" type="line"/>
      <point x="33" y="375" type="line"/>
    </contour>
    <component base="t" xOffset="1"/>
  </outline>
</glyph>
<glyph name="Schwa" format="1">
  <advance width="772"/>
  <unicode hex="018F"/>
  <outline>
    <contour>
      <point x="47" y="315" type="line"/>
      <point x="51" y="102"/>
      <point x="153" y="-10"/>
      <point x="342" y="-10" type="curve" smooth="yes"/>
      <point x="565" y="-10"/>
      <point x="716" y="155"/>
      <point x="716" y="397" type="curve" smooth="yes"/>
      <point x="716" y="626"/>
      <point x="581" y="781"/>
      <point x="382" y="781" type="curve" smooth="yes"/>
      <point x="241" y="781"/>
      <point x="117" y="706"/>
      <point x="71" y="593" type="curve" smooth="yes"/>
      <point x="63" y="573" type="line"/>
      <point x="87" y="558" type="line"/>
      <point x="104" y="580" type="line" smooth="yes"/>
      <point x="162" y="657"/>
      <point x="240" y="696"/>
      <point x="337" y="696" type="curve" smooth="yes"/>
      <point x="501" y="696"/>
      <point x="590" y="577"/>
      <point x="590" y="361" type="curve" smooth="yes"/>
      <point x="590" y="151"/>
      <point x="506" y="35"/>
      <point x="353" y="35" type="curve" smooth="yes"/>
      <point x="238" y="35"/>
      <point x="178" y="95"/>
      <point x="178" y="209" type="curve" smooth="yes"/>
      <point x="178" y="238"/>
      <point x="182" y="258"/>
      <point x="182" y="271" type="curve"/>
      <point x="601" y="285" type="line"/>
      <point x="601" y="324" type="line"/>
      <point x="57" y="324" type="line"/>
    </contour>
  </outline>
</glyph>
<glyph name="Aringacute" format="1">
  <advance width="744"/>
  <unicode hex="01FA"/>
  <outline>
    <contour>
      <point x="245" y="825" type="line"/>
      <point x="302" y="842" type="line"/>
      <point x="313" y="834"/>
      <point x="328" y="830"/>
      <point x="344" y="830" type="curve" smooth="yes"/>
      <point x="378" y="830"/>
      <point x="404" y="851"/>
      <point x="412" y="882" type="curve"/>
      <point x="457" y="895"/>
      <point x="466" y="914"/>
      <point x="466" y="934" type="curve" smooth="yes"/>
      <point x="466" y="958"/>
      <point x="442" y="969"/>
      <point x="422" y="969" type="curve" smooth="yes"/>
      <point x="408" y="969"/>
      <point x="397" y="965"/>
      <point x="385" y="958" type="curve"/>
      <point x="373" y="966"/>
      <point x="359" y="970"/>
      <point x="344" y="970" type="curve" smooth="yes"/>
      <point x="304" y="970"/>
      <point x="274" y="940"/>
      <point x="274" y="900" type="curve" smooth="yes"/>
      <point x="274" y="892"/>
      <point x="275" y="885"/>
      <point x="277" y="878" type="curve"/>
      <point x="234" y="846" type="line"/>
    </contour>
    <contour>
      <point x="344" y="865" type="curve" smooth="yes"/>
      <point x="323" y="865"/>
      <point x="309" y="879"/>
      <point x="309" y="900" type="curve" smooth="yes"/>
      <point x="309" y="921"/>
      <point x="323" y="935"/>
      <point x="344" y="935" type="curve" smooth="yes"/>
      <point x="365" y="935"/>
      <point x="379" y="921"/>
      <point x="379" y="900" type="curve" smooth="yes"/>
      <point x="379" y="879"/>
      <point x="365" y="865"/>
    </contour>
    <component base="A"/>
  </outline>
</glyph>
<glyph name="oslashacute" format="1">
  <advance width="630"/>
  <unicode hex="01FF"/>
  <outline>
    <contour>
      <point x="313" y="-10" type="curve" smooth="yes"/>
      <point x="464" y="-10"/>
      <point x="576" y="107"/>
      <point x="576" y="265" type="curve" smooth="yes"/>
      <point x="576" y="333"/>
      <point x="555" y="393"/>
      <point x="520" y="440" type="curve"/>
      <point x="607" y="530" type="line"/>
      <point x="546" y="530" type="line"/>
      <point x="490" y="472" type="line"/>
      <point x="444" y="515"/>
      <point x="383" y="540"/>
      <point x="313" y="540" type="curve" smooth="yes"/>
      <point x="162" y="540"/>
      <point x="50" y="423"/>
      <point x="50" y="265" type="curve" smooth="yes"/>
      <point x="50" y="192"/>
      <point x="73" y="129"/>
      <point x="113" y="81" type="curve"/>
      <point x="35" y="0" type="line"/>
      <point x="95" y="0" type="line"/>
      <point x="143" y="50" type="line"/>
      <point x="188" y="12"/>
      <point x="247" y="-10"/>
    </contour>
    <contour>
      <point x="174" y="144" type="line"/>
      <point x="162" y="177"/>
      <point x="156" y="218"/>
      <point x="156" y="265" type="curve" smooth="yes"/>
      <point x="156" y="409"/>
      <point x="215" y="495"/>
      <point x="313" y="495" type="curve" smooth="yes"/>
      <point x="368" y="495"/>
      <point x="411" y="467"/>
      <point x="438" y="418" type="curve"/>
    </contour>
    <contour>
      <point x="312" y="35" type="curve" smooth="yes"/>
      <point x="261" y="35"/>
      <point x="220" y="58"/>
      <point x="193" y="102" type="curve"/>
      <point x="456" y="373" type="line"/>
      <point x="465" y="342"/>
      <point x="470" y="306"/>
      <point x="470" y="266" type="curve" smooth="yes"/>
      <point x="470" y="122"/>
      <point x="410" y="35"/>
    </contour>
    <component base="acute" xOffset="268"/>
  </outline>
</glyph>
<glyph name="apostrophe" format="1">
  <advance width="135"/>
  <unicode hex="02BC"/>
  <outline>
    <contour>
      <point x="37" y="640" type="line"/>
      <point x="95" y="677"/>
      <point x="125" y="725"/>
      <point x="125" y="786" type="curve" smooth="yes"/>
      <point x="125" y="825"/>
      <point x="101" y="857"/>
      <point x="66" y="857" type="curve" smooth="yes"/>
      <point x="34" y="857"/>
      <point x="10" y="833"/>
      <point x="10" y="801" type="curve" smooth="yes"/>
      <point x="10" y="751"/>
      <point x="69" y="760"/>
      <point x="69" y="721" type="curve" smooth="yes"/>
      <point x="69" y="707"/>
      <point x="49" y="683"/>
      <point x="21" y="664" type="curve"/>
    </contour>
    <contour>
      <point x="68" y="651" type="move" name="_top"/>
    </contour>
  </outline>
</glyph>
<glyph name="circumflex" format="1">
  <advance width="276"/>
  <unicode hex="02C6"/>
  <outline>
    <contour>
      <point x="140" y="857" type="curve" smooth="yes"/>
      <point x="115" y="857"/>
      <point x="102" y="847"/>
      <point x="94" y="828" type="curve" smooth="yes"/>
      <point x="10" y="640" type="line"/>
      <point x="30" y="628" type="line"/>
      <point x="136" y="769" type="line"/>
      <point x="244" y="628" type="line"/>
      <point x="266" y="640" type="line"/>
      <point x="182" y="828" type="line" smooth="yes"/>
      <point x="173" y="847"/>
      <point x="162" y="857"/>
    </contour>
    <contour>
      <point x="138" y="651" type="move" name="_top"/>
    </contour>
  </outline>
</glyph>
<glyph name="caron" format="1">
  <advance width="276"/>
  <unicode hex="02C7"/>
  <outline>
    <contour>
      <point x="138" y="630" type="curve" smooth="yes"/>
      <point x="160" y="630"/>
      <point x="172" y="640"/>
      <point x="181" y="659" type="curve" smooth="yes"/>
      <point x="266" y="847" type="line"/>
      <point x="245" y="859" type="line"/>
      <point x="138" y="718" type="line"/>
      <point x="31" y="859" type="line"/>
      <point x="10" y="847" type="line"/>
      <point x="93" y="659" type="line" smooth="yes"/>
      <point x="102" y="640"/>
      <point x="113" y="630"/>
    </contour>
    <contour>
      <point x="138" y="651" type="move" name="_top"/>
    </contour>
  </outline>
</glyph>
<glyph name="dotaccent" format="1">
  <advance width="149"/>
  <unicode hex="02D9"/>
  <outline>
    <contour>
      <point x="10" y="715" type="curve" smooth="yes"/>
      <point x="10" y="680"/>
      <point x="35" y="651"/>
      <point x="74" y="651" type="curve" smooth="yes"/>
      <point x="114" y="651"/>
      <point x="139" y="680"/>
      <point x="139" y="715" type="curve" smooth="yes"/>
      <point x="139" y="752"/>
      <point x="114" y="780"/>
      <point x="74" y="780" type="curve" smooth="yes"/>
      <point x="35" y="780"/>
      <point x="10" y="752"/>
    </contour>
    <contour>
      <point x="74" y="651" type="move" name="_top"/>
    </contour>
  </outline>
</glyph>
<glyph name="ring" format="1">
  <advance width="186"/>
  <unicode hex="02DA"/>
  <outline>
    <contour>
      <point x="93" y="651" type="curve" smooth="yes"/>
      <point x="43" y="651"/>
      <point x="10" y="687"/>
      <point x="10" y="734" type="curve" smooth="yes"/>
      <point x="10" y="781"/>
      <point x="46" y="817"/>
      <point x="93" y="817" type="curve" smooth="yes"/>
      <point x="140" y="817"/>
      <point x="176" y="781"/>
      <point x="176" y="734" type="curve" smooth="yes"/>
      <point x="176" y="687"/>
      <point x="140" y="651"/>
    </contour>
    <contour>
      <point x="45" y="734" type="curve" smooth="yes"/>
      <point x="45" y="705"/>
      <point x="64" y="686"/>
      <point x="93" y="686" type="curve" smooth="yes"/>
      <point x="122" y="686"/>
      <point x="141" y="705"/>
      <point x="141" y="734" type="curve" smooth="yes"/>
      <point x="141" y="763"/>
      <point x="122" y="782"/>
      <point x="93" y="782" type="curve" smooth="yes"/>
      <point x="64" y="782"/>
      <point x="45" y="763"/>
    </contour>
    <contour>
      <point x="93" y="651" type="move" name="_top"/>
    </contour>
  </outline>
</glyph>
<glyph name="hungarumlaut" format="1">
  <advance width="329"/>
  <unicode hex="02DD"/>
  <outline>
    <contour>
      <point x="169" y="642" type="line"/>
      <point x="225" y="812" type="line" smooth="yes"/>
      <point x="235" y="841"/>
      <point x="251" y="859"/>
      <point x="280" y="859" type="curve" smooth="yes"/>
      <point x="301" y="859"/>
      <point x="319" y="841"/>
      <point x="319" y="816" type="curve" smooth="yes"/>
      <point x="319" y="799"/>
      <point x="311" y="782"/>
      <point x="289" y="755" type="curve" smooth="yes"/>
      <point x="190" y="631" type="line"/>
    </contour>
    <contour>
      <point x="10" y="642" type="line"/>
      <point x="66" y="812" type="line" smooth="yes"/>
      <point x="76" y="841"/>
      <point x="92" y="859"/>
      <point x="121" y="859" type="curve" smooth="yes"/>
      <point x="142" y="859"/>
      <point x="160" y="841"/>
      <point x="160" y="816" type="curve" smooth="yes"/>
      <point x="160" y="799"/>
      <point x="152" y="782"/>
      <point x="130" y="755" type="curve" smooth="yes"/>
      <point x="31" y="631" type="line"/>
    </contour>
    <contour>
      <point x="150" y="651" type="move" name="_top"/>
    </contour>
  </outline>
</glyph>
<glyph name="uni03BC" format="1">
  <advance width="584"/>
  <unicode hex="03BC"/>
  <outline>
    <contour>
      <point x="399" y="-10" type="line"/>
      <point x="406" y="-10" type="line"/>
      <point x="556" y="39" type="line"/>
      <point x="556" y="51" type="line"/>
      <point x="488" y="75" type="line"/>
      <point x="488" y="530" type="line"/>
      <point x="393" y="530" type="line"/>
      <point x="393" y="114" type="line"/>
      <point x="357" y="67"/>
      <point x="308" y="39"/>
      <point x="261" y="39" type="curve" smooth="yes"/>
      <point x="228" y="39"/>
      <point x="207" y="52"/>
      <point x="195" y="81" type="curve" smooth="yes"/>
      <point x="186" y="100"/>
      <point x="183" y="130"/>
      <point x="183" y="193" type="curve" smooth="yes"/>
      <point x="183" y="530" type="line"/>
      <point x="88" y="530" type="line"/>
      <point x="88" y="127" type="line" smooth="yes"/>
      <point x="88" y="27"/>
      <point x="73" y="-111"/>
      <point x="73" y="-173" type="curve" smooth="yes"/>
      <point x="73" y="-234"/>
      <point x="88" y="-260"/>
      <point x="122" y="-260" type="curve" smooth="yes"/>
      <point x="153" y="-260"/>
      <point x="170" y="-240"/>
      <point x="170" y="-206" type="curve" smooth="yes"/>
      <point x="170" y="-154"/>
      <point x="129" y="-20"/>
      <point x="129" y="70" type="curve"/>
      <point x="132" y="72" type="line"/>
      <point x="143" y="22"/>
      <point x="186" y="-10"/>
      <point x="243" y="-10" type="curve" smooth="yes"/>
      <point x="298" y="-10"/>
      <point x="348" y="20"/>
      <point x="395" y="82" type="curve"/>
      <point x="399" y="81" type="line"/>
    </contour>
  </outline>
</glyph>
<glyph name="endash" format="1">
  <advance width="753"/>
  <unicode hex="2013"/>
  <outline>
    <contour>
      <point x="676" y="221" type="line"/>
      <point x="676" y="282" type="line"/>
      <point x="77" y="282" type="line"/>
      <point x="77" y="221" type="line"/>
    </contour>
  </outline>
</glyph>
<glyph name="quoteleft" format="1">
  <advance width="245"/>
  <unicode hex="2018"/>
  <outline>
    <contour>
      <point x="158" y="830" type="line"/>
      <point x="89" y="780"/>
      <point x="53" y="717"/>
      <point x="53" y="636" type="curve" smooth="yes"/>
      <point x="53" y="590"/>
      <point x="81" y="551"/>
      <point x="124" y="551" type="curve" smooth="yes"/>
      <point x="162" y="551"/>
      <point x="191" y="580"/>
      <point x="191" y="618" type="curve" smooth="yes"/>
      <point x="191" y="679"/>
      <point x="116" y="668"/>
      <point x="116" y="715" type="curve" smooth="yes"/>
      <point x="116" y="738"/>
      <point x="141" y="773"/>
      <point x="178" y="801" type="curve"/>
    </contour>
  </outline>
</glyph>
<glyph name="dagger" format="1">
  <advance width="486"/>
  <unicode hex="2020"/>
  <outline>
    <contour>
      <point x="232" y="-136" type="line"/>
      <point x="222" y="90"/>
      <point x="210" y="206"/>
      <point x="185" y="311" type="curve"/>
      <point x="205" y="379"/>
      <point x="217" y="461"/>
      <point x="228" y="574" type="curve"/>
      <point x="139" y="574"/>
      <point x="120" y="548"/>
      <point x="83" y="548" type="curve" smooth="yes"/>
      <point x="53" y="548"/>
      <point x="30" y="568"/>
      <point x="30" y="595" type="curve" smooth="yes"/>
      <point x="30" y="621"/>
      <point x="53" y="639"/>
      <point x="84" y="639" type="curve" smooth="yes"/>
      <point x="98" y="639"/>
      <point x="105" y="637"/>
      <point x="153" y="619" type="curve" smooth="yes"/>
      <point x="174" y="611"/>
      <point x="208" y="603"/>
      <point x="228" y="600" type="curve"/>
      <point x="228" y="612" type="line" smooth="yes"/>
      <point x="228" y="679"/>
      <point x="198" y="739"/>
      <point x="198" y="779" type="curve" smooth="yes"/>
      <point x="198" y="810"/>
      <point x="215" y="829"/>
      <point x="242" y="829" type="curve" smooth="yes"/>
      <point x="271" y="829"/>
      <point x="288" y="810"/>
      <point x="288" y="779" type="curve" smooth="yes"/>
      <point x="288" y="740"/>
      <point x="258" y="678"/>
      <point x="258" y="612" type="curve" smooth="yes"/>
      <point x="258" y="600" type="line"/>
      <point x="268" y="601"/>
      <point x="298" y="609"/>
      <point x="329" y="619" type="curve" smooth="yes"/>
      <point x="385" y="638"/>
      <point x="390" y="639"/>
      <point x="402" y="639" type="curve" smooth="yes"/>
      <point x="434" y="639"/>
      <point x="456" y="620"/>
      <point x="456" y="594" type="curve" smooth="yes"/>
      <point x="456" y="568"/>
      <point x="434" y="548"/>
      <point x="404" y="548" type="curve" smooth="yes"/>
      <point x="366" y="548"/>
      <point x="347" y="574"/>
      <point x="258" y="574" type="curve"/>
      <point x="266" y="466"/>
      <point x="279" y="384"/>
      <point x="301" y="311" type="curve"/>
      <point x="274" y="205"/>
      <point x="262" y="88"/>
      <point x="254" y="-136" type="curve"/>
    </contour>
  </outline>
</glyph>
<glyph name="bullet" format="1">
  <advance width="410"/>
  <unicode hex="2022"/>
  <outline>
    <contour>
      <point x="85" y="374" type="curve" smooth="yes" name="hr00"/>
      <point x="85" y="311"/>
      <point x="139" y="259"/>
      <point x="205" y="259" type="curve" smooth="yes"/>
      <point x="271" y="259"/>
      <point x="325" y="311"/>
      <point x="325" y="374" type="curve" smooth="yes"/>
      <point x="325" y="437"/>
      <point x="271" y="489"/>
      <point x="205" y="489" type="curve" smooth="yes"/>
      <point x="139" y="489"/>
      <point x="85" y="437"/>
    </contour>
  </outline>
</glyph>
<glyph name="ellipsis" format="1">
  <advance width="822"/>
  <unicode hex="2026"/>
  <outline>
    <contour>
      <point x="62" y="58" type="curve" smooth="yes"/>
      <point x="62" y="21"/>
      <point x="89" y="-10"/>
      <point x="130" y="-10" type="curve" smooth="yes"/>
      <point x="173" y="-10"/>
      <point x="200" y="21"/>
      <point x="200" y="58" type="curve" smooth="yes"/>
      <point x="200" y="98"/>
      <point x="173" y="128"/>
      <point x="130" y="128" type="curve" smooth="yes"/>
      <point x="89" y="128"/>
      <point x="62" y="98"/>
    </contour>
    <contour>
      <point x="342" y="58" type="curve" smooth="yes"/>
      <point x="342" y="21"/>
      <point x="369" y="-10"/>
      <point x="410" y="-10" type="curve" smooth="yes"/>
      <point x="453" y="-10"/>
      <point x="480" y="21"/>
      <point x="480" y="58" type="curve" smooth="yes"/>
      <point x="480" y="98"/>
      <point x="453" y="128"/>
      <point x="410" y="128" type="curve" smooth="yes"/>
      <point x="369" y="128"/>
      <point x="342" y="98"/>
    </contour>
    <contour>
      <point x="622" y="58" type="curve" smooth="yes"/>
      <point x="622" y="21"/>
      <point x="649" y="-10"/>
      <point x="690" y="-10" type="curve" smooth="yes"/>
      <point x="733" y="-10"/>
      <point x="760" y="21"/>
      <point x="760" y="58" type="curve" smooth="yes"/>
      <point x="760" y="98"/>
      <point x="733" y="128"/>
      <point x="690" y="128" type="curve" smooth="yes"/>
      <point x="649" y="128"/>
      <point x="622" y="98"/>
    </contour>
  </outline>
</glyph>
<glyph name="guilsinglleft" format="1">
  <advance width="280"/>
  <unicode hex="2039"/>
  <outline>
    <contour>
      <point x="197" y="53" type="line"/>
      <point x="58" y="236" type="line"/>
      <point x="58" y="255" type="line"/>
      <point x="195" y="436" type="line"/>
      <point x="207" y="431" type="line"/>
      <point x="141" y="246" type="line"/>
      <point x="209" y="61" type="line"/>
    </contour>
  </outline>
</glyph>
<glyph name="sevensuperior" format="1">
  <advance width="359"/>
  <unicode hex="2077"/>
  <outline>
    <contour>
      <point x="101" y="911" type="line"/>
      <point x="99" y="916"/>
      <point x="98" y="929"/>
      <point x="98" y="936" type="curve"/>
      <point x="76" y="941" type="line"/>
      <point x="22" y="779" type="line"/>
      <point x="43" y="768" type="line"/>
      <point x="57" y="792"/>
      <point x="68" y="808"/>
      <point x="82" y="821" type="curve"/>
      <point x="267" y="821" type="line"/>
      <point x="108" y="523" type="line" smooth="yes"/>
      <point x="91" y="491"/>
      <point x="82" y="467"/>
      <point x="82" y="449" type="curve" smooth="yes"/>
      <point x="82" y="425"/>
      <point x="98" y="409"/>
      <point x="124" y="409" type="curve" smooth="yes"/>
      <point x="146" y="409"/>
      <point x="162" y="425"/>
      <point x="172" y="454" type="curve" smooth="yes"/>
      <point x="247" y="680"/>
      <point x="259" y="708"/>
      <point x="343" y="893" type="curve"/>
      <point x="334" y="911" type="line"/>
    </contour>
  </outline>
</glyph>
<glyph name="ninesuperior" format="1">
  <advance width="411"/>
  <unicode hex="2079"/>
  <outline>
    <contour>
      <point x="201" y="924" type="curve"/>
      <point x="100" y="924"/>
      <point x="31" y="859"/>
      <point x="31" y="763" type="curve" smooth="yes"/>
      <point x="31" y="678"/>
      <point x="91" y="615"/>
      <point x="174" y="615" type="curve" smooth="yes"/>
      <point x="211" y="615"/>
      <point x="244" y="628"/>
      <point x="261" y="649" type="curve"/>
      <point x="251" y="577"/>
      <point x="176" y="476"/>
      <point x="102" y="436" type="curve"/>
      <point x="114" y="409" type="line"/>
      <point x="268" y="464"/>
      <point x="368" y="595"/>
      <point x="368" y="740" type="curve" smooth="yes"/>
      <point x="368" y="854"/>
      <point x="305" y="924"/>
    </contour>
    <contour>
      <point x="197" y="885" type="curve"/>
      <point x="241" y="885"/>
      <point x="270" y="838"/>
      <point x="270" y="763" type="curve" smooth="yes"/>
      <point x="270" y="740"/>
      <point x="267" y="717"/>
      <point x="262" y="700" type="curve"/>
      <point x="249" y="678"/>
      <point x="226" y="665"/>
      <point x="202" y="665" type="curve" smooth="yes"/>
      <point x="156" y="665"/>
      <point x="128" y="707"/>
      <point x="128" y="774" type="curve" smooth="yes"/>
      <point x="128" y="842"/>
      <point x="154" y="885"/>
    </contour>
  </outline>
</glyph>
<glyph name="zeroinferior" format="1">
  <advance width="442"/>
  <unicode hex="2080"/>
  <outline>
    <contour>
      <point x="220" y="356" type="curve" smooth="yes"/>
      <point x="122" y="356"/>
      <point x="46" y="242"/>
      <point x="46" y="95" type="curve" smooth="yes"/>
      <point x="46" y="-50"/>
      <point x="121" y="-161"/>
      <point x="220" y="-161" type="curve" smooth="yes"/>
      <point x="319" y="-161"/>
      <point x="396" y="-49"/>
      <point x="396" y="95" type="curve" smooth="yes"/>
      <point x="396" y="241"/>
      <point x="318" y="356"/>
    </contour>
    <contour>
      <point x="220" y="317" type="curve" smooth="yes"/>
      <point x="270" y="317"/>
      <point x="290" y="271"/>
      <point x="290" y="96" type="curve" smooth="yes"/>
      <point x="290" y="-80"/>
      <point x="271" y="-121"/>
      <point x="220" y="-121" type="curve" smooth="yes"/>
      <point x="170" y="-121"/>
      <point x="151" y="-81"/>
      <point x="151" y="96" type="curve" smooth="yes"/>
      <point x="151" y="271"/>
      <point x="170" y="317"/>
    </contour>
  </outline>
</glyph>
<glyph name="oneinferior" format="1">
  <advance width="351"/>
  <unicode hex="2081"/>
  <outline>
    <contour>
      <point x="207" y="356" type="line"/>
      <point x="160" y="312"/>
      <point x="114" y="287"/>
      <point x="60" y="276" type="curve"/>
      <point x="60" y="248" type="line"/>
      <point x="141" y="248" type="line"/>
      <point x="141" y="-113" type="line"/>
      <point x="59" y="-130" type="line"/>
      <point x="59" y="-154" type="line"/>
      <point x="314" y="-154" type="line"/>
      <point x="314" y="-130" type="line"/>
      <point x="231" y="-113" type="line"/>
      <point x="231" y="351" type="line"/>
    </contour>
  </outline>
</glyph>
<glyph name="twoinferior" format="1">
  <advance width="406"/>
  <unicode hex="2082"/>
  <outline>
    <contour>
      <point x="284" y="-154" type="line"/>
      <point x="296" y="-176" type="line"/>
      <point x="315" y="-176" type="line"/>
      <point x="367" y="-7" type="line"/>
      <point x="343" y="-2" type="line"/>
      <point x="327" y="-31"/>
      <point x="309" y="-54"/>
      <point x="295" y="-68" type="curve"/>
      <point x="130" y="-68" type="line"/>
      <point x="293" y="59"/>
      <point x="351" y="134"/>
      <point x="351" y="214" type="curve" smooth="yes"/>
      <point x="351" y="295"/>
      <point x="289" y="356"/>
      <point x="207" y="356" type="curve" smooth="yes"/>
      <point x="135" y="356"/>
      <point x="73" y="309"/>
      <point x="44" y="231" type="curve"/>
      <point x="66" y="217" type="line"/>
      <point x="90" y="262"/>
      <point x="133" y="293"/>
      <point x="174" y="293" type="curve" smooth="yes"/>
      <point x="221" y="293"/>
      <point x="253" y="257"/>
      <point x="253" y="201" type="curve" smooth="yes"/>
      <point x="253" y="124"/>
      <point x="192" y="38"/>
      <point x="28" y="-116" type="curve"/>
      <point x="34" y="-154" type="line"/>
    </contour>
  </outline>
</glyph>
<glyph name="fiveinferior" format="1">
  <advance width="382"/>
  <unicode hex="2085"/>
  <outline>
    <contour>
      <point x="134" y="251" type="line"/>
      <point x="298" y="251" type="line"/>
      <point x="325" y="363" type="line"/>
      <point x="305" y="374" type="line"/>
      <point x="290" y="341"/>
      <point x="290" y="344"/>
      <point x="286" y="341" type="curve"/>
      <point x="106" y="341" type="line"/>
      <point x="69" y="62" type="line"/>
      <point x="90" y="61" type="line"/>
      <point x="110" y="73"/>
      <point x="132" y="79"/>
      <point x="157" y="79" type="curve" smooth="yes"/>
      <point x="219" y="79"/>
      <point x="263" y="38"/>
      <point x="263" y="-20" type="curve" smooth="yes"/>
      <point x="263" y="-77"/>
      <point x="224" y="-119"/>
      <point x="173" y="-119" type="curve" smooth="yes"/>
      <point x="100" y="-119"/>
      <point x="129" y="-27"/>
      <point x="71" y="-27" type="curve" smooth="yes"/>
      <point x="46" y="-27"/>
      <point x="29" y="-47"/>
      <point x="29" y="-76" type="curve" smooth="yes"/>
      <point x="29" y="-125"/>
      <point x="82" y="-161"/>
      <point x="154" y="-161" type="curve" smooth="yes"/>
      <point x="260" y="-161"/>
      <point x="341" y="-83"/>
      <point x="341" y="22" type="curve" smooth="yes"/>
      <point x="341" y="113"/>
      <point x="274" y="173"/>
      <point x="175" y="173" type="curve" smooth="yes"/>
      <point x="156" y="173"/>
      <point x="139" y="173"/>
      <point x="121" y="166" type="curve"/>
    </contour>
  </outline>
</glyph>
<glyph name="seveninferior" format="1">
  <advance width="358"/>
  <unicode hex="2087"/>
  <outline>
    <contour>
      <point x="101" y="341" type="line"/>
      <point x="99" y="346"/>
      <point x="98" y="359"/>
      <point x="98" y="366" type="curve"/>
      <point x="76" y="371" type="line"/>
      <point x="22" y="209" type="line"/>
      <point x="43" y="198" type="line"/>
      <point x="57" y="222"/>
      <point x="68" y="238"/>
      <point x="82" y="251" type="curve"/>
      <point x="267" y="251" type="line"/>
      <point x="108" y="-47" type="line" smooth="yes"/>
      <point x="91" y="-79"/>
      <point x="82" y="-103"/>
      <point x="82" y="-121" type="curve" smooth="yes"/>
      <point x="82" y="-145"/>
      <point x="98" y="-161"/>
      <point x="124" y="-161" type="curve" smooth="yes"/>
      <point x="146" y="-161"/>
      <point x="162" y="-145"/>
      <point x="172" y="-116" type="curve" smooth="yes"/>
      <point x="247" y="110"/>
      <point x="259" y="138"/>
      <point x="343" y="323" type="curve"/>
      <point x="334" y="341" type="line"/>
    </contour>
  </outline>
</glyph>
<glyph name="eightinferior" format="1">
  <advance width="422"/>
  <unicode hex="2088"/>
  <outline>
    <contour>
      <point x="270" y="135" type="curve"/>
      <point x="326" y="159"/>
      <point x="355" y="197"/>
      <point x="355" y="243" type="curve" smooth="yes"/>
      <point x="355" y="310"/>
      <point x="297" y="356"/>
      <point x="212" y="356" type="curve" smooth="yes"/>
      <point x="123" y="356"/>
      <point x="62" y="304"/>
      <point x="62" y="223" type="curve" smooth="yes"/>
      <point x="62" y="170"/>
      <point x="87" y="129"/>
      <point x="142" y="93" type="curve"/>
      <point x="75" y="64"/>
      <point x="44" y="25"/>
      <point x="44" y="-26" type="curve" smooth="yes"/>
      <point x="44" y="-104"/>
      <point x="106" y="-161"/>
      <point x="206" y="-161" type="curve" smooth="yes"/>
      <point x="305" y="-161"/>
      <point x="378" y="-97"/>
      <point x="378" y="-8" type="curve" smooth="yes"/>
      <point x="378" y="50"/>
      <point x="345" y="93"/>
    </contour>
    <contour>
      <point x="234" y="153" type="curve"/>
      <point x="166" y="185"/>
      <point x="138" y="214"/>
      <point x="138" y="253" type="curve" smooth="yes"/>
      <point x="138" y="293"/>
      <point x="165" y="317"/>
      <point x="208" y="317" type="curve" smooth="yes"/>
      <point x="253" y="317"/>
      <point x="282" y="289"/>
      <point x="282" y="243" type="curve" smooth="yes"/>
      <point x="282" y="209"/>
      <point x="266" y="179"/>
    </contour>
    <contour>
      <point x="174" y="74" type="curve"/>
      <point x="262" y="38"/>
      <point x="299" y="2"/>
      <point x="299" y="-45" type="curve" smooth="yes"/>
      <point x="299" y="-91"/>
      <point x="266" y="-121"/>
      <point x="215" y="-121" type="curve" smooth="yes"/>
      <point x="159" y="-121"/>
      <point x="126" y="-84"/>
      <point x="126" y="-19" type="curve" smooth="yes"/>
      <point x="126" y="24"/>
      <point x="143" y="57"/>
    </contour>
  </outline>
</glyph>
<glyph name="uni2215" format="1">
  <advance width="610"/>
  <unicode hex="2215"/>
  <outline>
    <contour>
      <point x="58" y="0" type="line"/>
      <point x="628" y="819" type="line"/>
      <point x="553" y="819" type="line"/>
      <point x="-16" y="0" type="line"/>
    </contour>
  </outline>
</glyph>
<glyph name="commaaccent" format="1">
  <advance width="130"/>
  <unicode hex="F6C3"/>
  <outline>
    <contour>
      <point x="32" y="-256" type="line"/>
      <point x="90" y="-222"/>
      <point x="120" y="-177"/>
      <point x="120" y="-120" type="curve" smooth="yes"/>
      <point x="120" y="-84"/>
      <point x="98" y="-54"/>
      <point x="66" y="-54" type="curve" smooth="yes"/>
      <point x="34" y="-54"/>
      <point x="10" y="-76"/>
      <point x="10" y="-105" type="curve" smooth="yes"/>
      <point x="10" y="-152"/>
      <point x="59" y="-144"/>
      <point x="59" y="-180" type="curve" smooth="yes"/>
      <point x="59" y="-193"/>
      <point x="41" y="-215"/>
      <point x="16" y="-232" type="curve"/>
    </contour>
    <contour>
      <point x="66" y="-10" type="move" name="_bottom"/>
    </contour>
  </outline>
</glyph>
<glyph name="f_f" format="1">
  <advance width="678"/>
  <unicode hex="FB00"/>
  <outline>
    <contour>
      <point x="23" y="498" type="line"/>
      <point x="111" y="498" type="line"/>
      <point x="111" y="34" type="line"/>
      <point x="36" y="19" type="line"/>
      <point x="36" y="0" type="line"/>
      <point x="312" y="0" type="line"/>
      <point x="312" y="19" type="line"/>
      <point x="206" y="34" type="line"/>
      <point x="206" y="498" type="line"/>
      <point x="438" y="498" type="line"/>
      <point x="438" y="34" type="line"/>
      <point x="363" y="19" type="line"/>
      <point x="363" y="0" type="line"/>
      <point x="639" y="0" type="line"/>
      <point x="639" y="19" type="line"/>
      <point x="533" y="34" type="line"/>
      <point x="533" y="498" type="line"/>
      <point x="650" y="498" type="line"/>
      <point x="662" y="530" type="line"/>
      <point x="533" y="530" type="line"/>
      <point x="533" y="585" type="line" smooth="yes"/>
      <point x="533" y="671"/>
      <point x="540" y="720"/>
      <point x="554" y="750" type="curve" smooth="yes"/>
      <point x="570" y="785"/>
      <point x="598" y="799"/>
      <point x="628" y="799" type="curve" smooth="yes"/>
      <point x="660" y="799"/>
      <point x="671" y="783"/>
      <point x="678" y="747" type="curve" smooth="yes"/>
      <point x="683" y="722"/>
      <point x="694" y="696"/>
      <point x="727" y="696" type="curve" smooth="yes"/>
      <point x="756" y="696"/>
      <point x="776" y="716"/>
      <point x="776" y="745" type="curve" smooth="yes"/>
      <point x="776" y="794"/>
      <point x="719" y="830"/>
      <point x="647" y="830" type="curve" smooth="yes"/>
      <point x="580" y="830"/>
      <point x="514" y="799"/>
      <point x="476" y="749" type="curve"/>
      <point x="448" y="768"/>
      <point x="404" y="780"/>
      <point x="352" y="780" type="curve" smooth="yes"/>
      <point x="244" y="780"/>
      <point x="155" y="730"/>
      <point x="126" y="653" type="curve" smooth="yes"/>
      <point x="116" y="627"/>
      <point x="112" y="599"/>
      <point x="111" y="530" type="curve"/>
      <point x="35" y="530" type="line"/>
    </contour>
    <contour>
      <point x="206" y="530" type="line" smooth="yes"/>
      <point x="206" y="631"/>
      <point x="208" y="651"/>
      <point x="224" y="681" type="curve" smooth="yes"/>
      <point x="248" y="726"/>
      <point x="286" y="746"/>
      <point x="325" y="746" type="curve" smooth="yes"/>
      <point x="377" y="746"/>
      <point x="428" y="710"/>
      <point x="441" y="649" type="curve"/>
      <point x="439" y="620"/>
      <point x="438" y="582"/>
      <point x="438" y="530" type="curve"/>
    </contour>
  </outline>
</glyph>
<glyph name="f_i" format="1">
  <advance width="621"/>
  <unicode hex="FB01"/>
  <outline>
    <contour>
      <point x="23" y="498" type="line"/>
      <point x="111" y="498" type="line"/>
      <point x="111" y="34" type="line"/>
      <point x="36" y="19" type="line"/>
      <point x="36" y="0" type="line"/>
      <point x="312" y="0" type="line"/>
      <point x="312" y="19" type="line"/>
      <point x="206" y="34" type="line"/>
      <point x="206" y="498" type="line"/>
      <point x="354" y="498" type="line"/>
      <point x="428" y="466" type="line"/>
      <point x="428" y="35" type="line"/>
      <point x="352" y="20" type="line"/>
      <point x="352" y="0" type="line"/>
      <point x="598" y="0" type="line"/>
      <point x="598" y="20" type="line"/>
      <point x="523" y="35" type="line"/>
      <point x="523" y="540" type="line"/>
      <point x="514" y="540" type="line"/>
      <point x="354" y="530" type="line"/>
      <point x="206" y="530" type="line"/>
      <point x="206" y="585" type="line" smooth="yes"/>
      <point x="206" y="672"/>
      <point x="211" y="706"/>
      <point x="224" y="729" type="curve" smooth="yes"/>
      <point x="249" y="773"/>
      <point x="282" y="794"/>
      <point x="337" y="794" type="curve" smooth="yes"/>
      <point x="379" y="794"/>
      <point x="393" y="784"/>
      <point x="406" y="742" type="curve" smooth="yes"/>
      <point x="420" y="700"/>
      <point x="440" y="681"/>
      <point x="469" y="681" type="curve" smooth="yes"/>
      <point x="502" y="681"/>
      <point x="524" y="705"/>
      <point x="524" y="739" type="curve" smooth="yes"/>
      <point x="524" y="794"/>
      <point x="458" y="830"/>
      <point x="346" y="830" type="curve" smooth="yes"/>
      <point x="248" y="830"/>
      <point x="157" y="781"/>
      <point x="126" y="703" type="curve" smooth="yes"/>
      <point x="114" y="673"/>
      <point x="111" y="627"/>
      <point x="111" y="530" type="curve"/>
      <point x="35" y="530" type="line"/>
    </contour>
  </outline>
</glyph>
<glyph name="f_l" format="1">
  <advance width="618"/>
  <unicode hex="FB02"/>
  <outline>
    <contour>
      <point x="23" y="498" type="line"/>
      <point x="111" y="498" type="line"/>
      <point x="111" y="34" type="line"/>
      <point x="36" y="19" type="line"/>
      <point x="36" y="0" type="line"/>
      <point x="312" y="0" type="line"/>
      <point x="312" y="19" type="line"/>
      <point x="206" y="34" type="line"/>
      <point x="206" y="498" type="line"/>
      <point x="428" y="498" type="line"/>
      <point x="428" y="34" type="line"/>
      <point x="358" y="19" type="line"/>
      <point x="358" y="0" type="line"/>
      <point x="589" y="0" type="line"/>
      <point x="589" y="19" type="line"/>
      <point x="520" y="34" type="line"/>
      <point x="520" y="776" type="line" smooth="yes"/>
      <point x="520" y="807"/>
      <point x="443" y="830"/>
      <point x="352" y="830" type="curve" smooth="yes"/>
      <point x="244" y="830"/>
      <point x="155" y="780"/>
      <point x="126" y="703" type="curve" smooth="yes"/>
      <point x="114" y="672"/>
      <point x="111" y="636"/>
      <point x="111" y="530" type="curve"/>
      <point x="35" y="530" type="line"/>
    </contour>
    <contour>
      <point x="206" y="585" type="line" smooth="yes"/>
      <point x="206" y="681"/>
      <point x="208" y="701"/>
      <point x="224" y="731" type="curve" smooth="yes"/>
      <point x="247" y="776"/>
      <point x="278" y="796"/>
      <point x="334" y="796" type="curve" smooth="yes"/>
      <point x="386" y="796"/>
      <point x="428" y="759"/>
      <point x="428" y="709" type="curve" smooth="yes"/>
      <point x="428" y="530" type="line"/>
      <point x="206" y="530" type="line"/>
    </contour>
  </outline>
</glyph>
<glyph name="f_f_l" format="1">
  <advance width="945"/>
  <unicode hex="FB04"/>
  <outline>
    <contour>
      <point x="36" y="0" type="line"/>
      <point x="312" y="0" type="line"/>
      <point x="312" y="19" type="line"/>
      <point x="206" y="34" type="line"/>
      <point x="206" y="498" type="line"/>
      <point x="438" y="498" type="line"/>
      <point x="438" y="34" type="line"/>
      <point x="363" y="19" type="line"/>
      <point x="363" y="0" type="line"/>
      <point x="639" y="0" type="line"/>
      <point x="639" y="19" type="line"/>
      <point x="533" y="34" type="line"/>
      <point x="533" y="498" type="line"/>
      <point x="755" y="498" type="line"/>
      <point x="755" y="34" type="line"/>
      <point x="685" y="19" type="line"/>
      <point x="685" y="0" type="line"/>
      <point x="916" y="0" type="line"/>
      <point x="916" y="19" type="line"/>
      <point x="847" y="34" type="line"/>
      <point x="847" y="776" type="line" smooth="yes"/>
      <point x="847" y="807"/>
      <point x="770" y="830"/>
      <point x="679" y="830" type="curve" smooth="yes"/>
      <point x="593" y="830"/>
      <point x="520" y="798"/>
      <point x="479" y="747" type="curve"/>
      <point x="451" y="767"/>
      <point x="406" y="780"/>
      <point x="352" y="780" type="curve" smooth="yes"/>
      <point x="244" y="780"/>
      <point x="155" y="730"/>
      <point x="126" y="653" type="curve" smooth="yes"/>
      <point x="116" y="627"/>
      <point x="112" y="599"/>
      <point x="111" y="530" type="curve"/>
      <point x="35" y="530" type="line"/>
      <point x="23" y="498" type="line"/>
      <point x="111" y="498" type="line"/>
      <point x="111" y="34" type="line"/>
      <point x="36" y="19" type="line"/>
    </contour>
    <contour>
      <point x="533" y="585" type="line" smooth="yes"/>
      <point x="533" y="681"/>
      <point x="535" y="701"/>
      <point x="551" y="731" type="curve" smooth="yes"/>
      <point x="574" y="776"/>
      <point x="605" y="796"/>
      <point x="661" y="796" type="curve" smooth="yes"/>
      <point x="715" y="796"/>
      <point x="755" y="757"/>
      <point x="755" y="705" type="curve" smooth="yes"/>
      <point x="755" y="530" type="line"/>
      <point x="533" y="530" type="line"/>
    </contour>
    <contour>
      <point x="206" y="530" type="line"/>
      <point x="206" y="631"/>
      <point x="208" y="651"/>
      <point x="224" y="681" type="curve" smooth="yes"/>
      <point x="247" y="726"/>
      <point x="278" y="746"/>
      <point x="324" y="746" type="curve" smooth="yes"/>
      <point x="387" y="746"/>
      <point x="429" y="711"/>
      <point x="441" y="649" type="curve"/>
      <point x="439" y="623"/>
      <point x="438" y="585"/>
      <point x="438" y="530" type="curve"/>
    </contour>
  </outline>
</glyph>
<glyph name=".notdef" format="1">
  <advance width="625"/>
  <outline>
    <contour>
      <point x="50" y="-260" type="line"/>
      <point x="575" y="-260" type="line"/>
      <point x="575" y="970" type="line"/>
      <point x="50" y="970" type="line"/>
    </contour>
    <contour>
      <point x="174" y="-178" type="line"/>
      <point x="485" y="779" type="line"/>
      <point x="485" y="-178" type="line"/>
    </contour>
    <contour>
      <point x="140" y="887" type="line"/>
      <point x="450" y="887" type="line"/>
      <point x="140" y="-70" type="line"/>
    </contour>
  </outline>
</glyph>
<glyph name="circumflex.cap" format="1">
  <advance width="315"/>
  <outline>
    <contour>
      <point x="157" y="960" type="curve" smooth="yes"/>
      <point x="132" y="960"/>
      <point x="121" y="950"/>
      <point x="104" y="933" type="curve" smooth="yes"/>
      <point x="10" y="837" type="line"/>
      <point x="30" y="820" type="line"/>
      <point x="157" y="878" type="line"/>
      <point x="286" y="820" type="line"/>
      <point x="305" y="837" type="line"/>
      <point x="212" y="933" type="line" smooth="yes"/>
      <point x="193" y="952"/>
      <point x="180" y="960"/>
    </contour>
    <contour>
      <point x="157" y="830" type="move" name="_topcap"/>
    </contour>
  </outline>
</glyph>
<glyph name="colon.tnum" format="1">
  <advance width="300"/>
  <outline>
    <contour>
      <point x="81" y="401" type="curve" smooth="yes"/>
      <point x="81" y="364"/>
      <point x="108" y="333"/>
      <point x="149" y="333" type="curve" smooth="yes"/>
      <point x="192" y="333"/>
      <point x="219" y="364"/>
      <point x="219" y="401" type="curve" smooth="yes"/>
      <point x="219" y="441"/>
      <point x="192" y="471"/>
      <point x="149" y="471" type="curve" smooth="yes"/>
      <point x="108" y="471"/>
      <point x="81" y="441"/>
    </contour>
    <contour>
      <point x="81" y="58" type="curve" smooth="yes"/>
      <point x="81" y="21"/>
      <point x="108" y="-10"/>
      <point x="149" y="-10" type="curve" smooth="yes"/>
      <point x="192" y="-10"/>
      <point x="219" y="21"/>
      <point x="219" y="58" type="curve" smooth="yes"/>
      <point x="219" y="98"/>
      <point x="192" y="128"/>
      <point x="149" y="128" type="curve" smooth="yes"/>
      <point x="108" y="128"/>
      <point x="81" y="98"/>
    </contour>
  </outline>
</glyph>
<glyph name="comma.tnum" format="1">
  <advance width="300"/>
  <outline>
    <contour>
      <point x="114" y="-151" type="line"/>
      <point x="183" y="-101"/>
      <point x="219" y="-38"/>
      <point x="219" y="43" type="curve" smooth="yes"/>
      <point x="219" y="89"/>
      <point x="191" y="128"/>
      <point x="148" y="128" type="curve" smooth="yes"/>
      <point x="110" y="128"/>
      <point x="81" y="99"/>
      <point x="81" y="61" type="curve" smooth="yes"/>
      <point x="81" y="0"/>
      <point x="156" y="11"/>
      <point x="156" y="-36" type="curve" smooth="yes"/>
      <point x="156" y="-59"/>
      <point x="131" y="-94"/>
      <point x="94" y="-122" type="curve"/>
    </contour>
  </outline>
</glyph>
<glyph name="degree.tnum" format="1">
  <advance width="300"/>
  <outline>
    <contour>
      <point x="150" y="587" type="curve" smooth="yes"/>
      <point x="82" y="587"/>
      <point x="29" y="640"/>
      <point x="29" y="708" type="curve" smooth="yes"/>
      <point x="29" y="776"/>
      <point x="82" y="830"/>
      <point x="150" y="830" type="curve" smooth="yes"/>
      <point x="217" y="830"/>
      <point x="271" y="775"/>
      <point x="271" y="708" type="curve" smooth="yes"/>
      <point x="271" y="640"/>
      <point x="218" y="587"/>
    </contour>
    <contour>
      <point x="70" y="708" type="curve" smooth="yes"/>
      <point x="70" y="662"/>
      <point x="104" y="628"/>
      <point x="150" y="628" type="curve" smooth="yes"/>
      <point x="198" y="628"/>
      <point x="230" y="662"/>
      <point x="230" y="708" type="curve" smooth="yes"/>
      <point x="230" y="756"/>
      <point x="198" y="790"/>
      <point x="150" y="790" type="curve" smooth="yes"/>
      <point x="104" y="790"/>
      <point x="70" y="756"/>
    </contour>
  </outline>
</glyph>
<glyph name="dotaccent.cap" format="1">
  <advance width="149"/>
  <outline>
    <contour>
      <point x="10" y="894" type="curve" smooth="yes"/>
      <point x="10" y="859"/>
      <point x="35" y="830"/>
      <point x="74" y="830" type="curve" smooth="yes"/>
      <point x="114" y="830"/>
      <point x="139" y="859"/>
      <point x="139" y="894" type="curve" smooth="yes"/>
      <point x="139" y="931"/>
      <point x="114" y="959"/>
      <point x="74" y="959" type="curve" smooth="yes"/>
      <point x="35" y="959"/>
      <point x="10" y="931"/>
    </contour>
    <contour>
      <point x="74" y="830" type="move" name="_topcap"/>
    </contour>
  </outline>
</glyph>
<glyph name="dotbelow" format="1">
  <advance width="149"/>
  <outline>
    <contour>
      <point x="10" y="-192" type="curve" smooth="yes"/>
      <point x="10" y="-227"/>
      <point x="35" y="-256"/>
      <point x="74" y="-256" type="curve" smooth="yes"/>
      <point x="114" y="-256"/>
      <point x="139" y="-227"/>
      <point x="139" y="-192" type="curve" smooth="yes"/>
      <point x="139" y="-155"/>
      <point x="114" y="-127"/>
      <point x="74" y="-127" type="curve" smooth="yes"/>
      <point x="35" y="-127"/>
      <point x="10" y="-155"/>
    </contour>
    <contour>
      <point x="74" y="0" type="move" name="_bottom"/>
    </contour>
  </outline>
</glyph>
<glyph name="eight.numerator" format="1">
  <advance width="394"/>
  <outline>
    <contour>
      <point x="250" y="580" type="curve"/>
      <point x="300" y="602"/>
      <point x="327" y="636"/>
      <point x="327" y="677" type="curve" smooth="yes"/>
      <point x="327" y="738"/>
      <point x="274" y="779"/>
      <point x="198" y="779" type="curve" smooth="yes"/>
      <point x="118" y="779"/>
      <point x="63" y="732"/>
      <point x="63" y="659" type="curve" smooth="yes"/>
      <point x="63" y="612"/>
      <point x="85" y="575"/>
      <point x="135" y="542" type="curve"/>
      <point x="75" y="516"/>
      <point x="47" y="481"/>
      <point x="47" y="435" type="curve" smooth="yes"/>
      <point x="47" y="365"/>
      <point x="102" y="314"/>
      <point x="192" y="314" type="curve" smooth="yes"/>
      <point x="282" y="314"/>
      <point x="347" y="371"/>
      <point x="347" y="452" type="curve" smooth="yes"/>
      <point x="347" y="504"/>
      <point x="318" y="542"/>
    </contour>
    <contour>
      <point x="218" y="596" type="curve"/>
      <point x="156" y="625"/>
      <point x="131" y="651"/>
      <point x="131" y="686" type="curve" smooth="yes"/>
      <point x="131" y="722"/>
      <point x="156" y="744"/>
      <point x="194" y="744" type="curve" smooth="yes"/>
      <point x="235" y="744"/>
      <point x="261" y="719"/>
      <point x="261" y="677" type="curve" smooth="yes"/>
      <point x="261" y="647"/>
      <point x="246" y="620"/>
    </contour>
    <contour>
      <point x="164" y="525" type="curve"/>
      <point x="243" y="493"/>
      <point x="276" y="461"/>
      <point x="276" y="418" type="curve" smooth="yes"/>
      <point x="276" y="377"/>
      <point x="246" y="350"/>
      <point x="201" y="350" type="curve" smooth="yes"/>
      <point x="150" y="350"/>
      <point x="120" y="383"/>
      <point x="120" y="442" type="curve" smooth="yes"/>
      <point x="120" y="480"/>
      <point x="136" y="510"/>
    </contour>
  </outline>
</glyph>
<glyph name="eight.oldstyle" format="1">
  <advance width="529"/>
  <outline>
    <contour>
      <point x="347" y="425" type="curve"/>
      <point x="418" y="467"/>
      <point x="457" y="527"/>
      <point x="457" y="595" type="curve" smooth="yes"/>
      <point x="457" y="690"/>
      <point x="379" y="758"/>
      <point x="272" y="758" type="curve" smooth="yes"/>
      <point x="159" y="758"/>
      <point x="74" y="680"/>
      <point x="74" y="575" type="curve" smooth="yes"/>
      <point x="74" y="496"/>
      <point x="113" y="435"/>
      <point x="205" y="373" type="curve"/>
      <point x="103" y="323"/>
      <point x="55" y="263"/>
      <point x="55" y="184" type="curve" smooth="yes"/>
      <point x="55" y="74"/>
      <point x="142" y="-10"/>
      <point x="257" y="-10" type="curve" smooth="yes"/>
      <point x="379" y="-10"/>
      <point x="472" y="83"/>
      <point x="472" y="207" type="curve" smooth="yes"/>
      <point x="472" y="289"/>
      <point x="434" y="356"/>
    </contour>
    <contour>
      <point x="300" y="445" type="curve"/>
      <point x="207" y="494"/>
      <point x="168" y="542"/>
      <point x="168" y="607" type="curve" smooth="yes"/>
      <point x="168" y="671"/>
      <point x="207" y="713"/>
      <point x="266" y="713" type="curve" smooth="yes"/>
      <point x="329" y="713"/>
      <point x="369" y="666"/>
      <point x="369" y="594" type="curve" smooth="yes"/>
      <point x="369" y="540"/>
      <point x="346" y="489"/>
    </contour>
    <contour>
      <point x="247" y="351" type="curve"/>
      <point x="339" y="297"/>
      <point x="381" y="239"/>
      <point x="381" y="163" type="curve" smooth="yes"/>
      <point x="381" y="83"/>
      <point x="340" y="35"/>
      <point x="273" y="35" type="curve" smooth="yes"/>
      <point x="200" y="35"/>
      <point x="155" y="92"/>
      <point x="155" y="183" type="curve" smooth="yes"/>
      <point x="155" y="257"/>
      <point x="186" y="314"/>
    </contour>
  </outline>
</glyph>
<glyph name="equal.tnum" format="1">
  <advance width="600"/>
  <outline>
    <contour>
      <point x="505" y="401" type="line" name="hr00"/>
      <point x="505" y="445" type="line"/>
      <point x="95" y="445" type="line"/>
      <point x="95" y="401" type="line"/>
    </contour>
    <contour>
      <point x="505" y="240" type="line"/>
      <point x="505" y="284" type="line"/>
      <point x="95" y="284" type="line"/>
      <point x="95" y="240" type="line"/>
    </contour>
  </outline>
</glyph>
<glyph name="f_f_b" format="1">
  <advance width="1266"/>
  <outline>
    <contour>
      <point x="956" y="-10" type="curve" smooth="yes"/>
      <point x="1106" y="-10"/>
      <point x="1220" y="118"/>
      <point x="1220" y="287" type="curve" smooth="yes"/>
      <point x="1220" y="437"/>
      <point x="1130" y="540"/>
      <point x="999" y="540" type="curve" smooth="yes"/>
      <point x="940" y="540"/>
      <point x="889" y="517"/>
      <point x="847" y="472" type="curve"/>
      <point x="847" y="776" type="line" smooth="yes"/>
      <point x="847" y="807"/>
      <point x="770" y="830"/>
      <point x="679" y="830" type="curve" smooth="yes"/>
      <point x="593" y="830"/>
      <point x="520" y="798"/>
      <point x="479" y="747" type="curve"/>
      <point x="451" y="767"/>
      <point x="406" y="780"/>
      <point x="352" y="780" type="curve" smooth="yes"/>
      <point x="244" y="780"/>
      <point x="155" y="730"/>
      <point x="126" y="653" type="curve" smooth="yes"/>
      <point x="116" y="627"/>
      <point x="112" y="599"/>
      <point x="111" y="530" type="curve"/>
      <point x="35" y="530" type="line"/>
      <point x="23" y="498" type="line"/>
      <point x="111" y="498" type="line"/>
      <point x="111" y="34" type="line"/>
      <point x="36" y="19" type="line"/>
      <point x="36" y="0" type="line"/>
      <point x="312" y="0" type="line"/>
      <point x="312" y="19" type="line"/>
      <point x="206" y="34" type="line"/>
      <point x="206" y="498" type="line"/>
      <point x="438" y="498" type="line"/>
      <point x="438" y="34" type="line"/>
      <point x="363" y="19" type="line"/>
      <point x="363" y="0" type="line"/>
      <point x="639" y="0" type="line"/>
      <point x="639" y="19" type="line"/>
      <point x="533" y="34" type="line"/>
      <point x="533" y="498" type="line"/>
      <point x="755" y="498" type="line"/>
      <point x="755" y="2" type="line"/>
      <point x="771" y="2" type="line"/>
      <point x="813" y="36" type="line"/>
      <point x="818" y="36" type="line"/>
      <point x="858" y="6"/>
      <point x="906" y="-10"/>
    </contour>
    <contour>
      <point x="206" y="530" type="line"/>
      <point x="206" y="631"/>
      <point x="208" y="651"/>
      <point x="224" y="681" type="curve" smooth="yes"/>
      <point x="247" y="726"/>
      <point x="278" y="746"/>
      <point x="324" y="746" type="curve" smooth="yes"/>
      <point x="387" y="746"/>
      <point x="429" y="711"/>
      <point x="441" y="649" type="curve"/>
      <point x="439" y="623"/>
      <point x="438" y="585"/>
      <point x="438" y="530" type="curve"/>
    </contour>
    <contour>
      <point x="533" y="530" type="line"/>
      <point x="533" y="585" type="line" smooth="yes"/>
      <point x="533" y="681"/>
      <point x="535" y="701"/>
      <point x="551" y="731" type="curve" smooth="yes"/>
      <point x="574" y="776"/>
      <point x="605" y="796"/>
      <point x="661" y="796" type="curve" smooth="yes"/>
      <point x="713" y="796"/>
      <point x="755" y="759"/>
      <point x="755" y="709" type="curve" smooth="yes"/>
      <point x="755" y="530" type="line"/>
    </contour>
    <contour>
      <point x="956" y="24" type="curve" smooth="yes"/>
      <point x="890" y="24"/>
      <point x="847" y="74"/>
      <point x="847" y="150" type="curve" smooth="yes"/>
      <point x="847" y="434" type="line"/>
      <point x="873" y="466"/>
      <point x="912" y="486"/>
      <point x="957" y="486" type="curve" smooth="yes"/>
      <point x="1054" y="486"/>
      <point x="1113" y="400"/>
      <point x="1113" y="259" type="curve" smooth="yes"/>
      <point x="1113" y="118"/>
      <point x="1051" y="24"/>
    </contour>
  </outline>
</glyph>
<glyph name="f_f_h" format="1">
  <advance width="1273"/>
  <outline>
    <contour>
      <point x="36" y="0" type="line"/>
      <point x="312" y="0" type="line"/>
      <point x="312" y="19" type="line"/>
      <point x="206" y="34" type="line"/>
      <point x="206" y="498" type="line"/>
      <point x="438" y="498" type="line"/>
      <point x="438" y="34" type="line"/>
      <point x="363" y="19" type="line"/>
      <point x="363" y="0" type="line"/>
      <point x="639" y="0" type="line"/>
      <point x="639" y="19" type="line"/>
      <point x="533" y="34" type="line"/>
      <point x="533" y="498" type="line"/>
      <point x="666" y="498" type="line"/>
      <point x="678" y="530" type="line"/>
      <point x="533" y="530" type="line"/>
      <point x="533" y="585" type="line" smooth="yes"/>
      <point x="533" y="681"/>
      <point x="535" y="701"/>
      <point x="551" y="731" type="curve" smooth="yes"/>
      <point x="574" y="776"/>
      <point x="605" y="796"/>
      <point x="661" y="796" type="curve" smooth="yes"/>
      <point x="715" y="796"/>
      <point x="755" y="757"/>
      <point x="755" y="705" type="curve" smooth="yes"/>
      <point x="755" y="35" type="line"/>
      <point x="679" y="20" type="line"/>
      <point x="679" y="0" type="line"/>
      <point x="922" y="0" type="line"/>
      <point x="922" y="20" type="line"/>
      <point x="847" y="35" type="line"/>
      <point x="847" y="420" type="line"/>
      <point x="886" y="462"/>
      <point x="936" y="485"/>
      <point x="991" y="485" type="curve" smooth="yes"/>
      <point x="1031" y="485"/>
      <point x="1056" y="470"/>
      <point x="1069" y="439" type="curve" smooth="yes"/>
      <point x="1078" y="417"/>
      <point x="1081" y="385"/>
      <point x="1081" y="328" type="curve" smooth="yes"/>
      <point x="1081" y="34" type="line"/>
      <point x="1006" y="20" type="line"/>
      <point x="1006" y="0" type="line"/>
      <point x="1251" y="0" type="line"/>
      <point x="1251" y="20" type="line"/>
      <point x="1176" y="34" type="line"/>
      <point x="1176" y="338" type="line" smooth="yes"/>
      <point x="1176" y="434"/>
      <point x="1174" y="459"/>
      <point x="1163" y="480" type="curve" smooth="yes"/>
      <point x="1144" y="517"/>
      <point x="1100" y="540"/>
      <point x="1047" y="540" type="curve" smooth="yes"/>
      <point x="980" y="540"/>
      <point x="908" y="510"/>
      <point x="847" y="457" type="curve"/>
      <point x="847" y="776" type="line" smooth="yes"/>
      <point x="847" y="807"/>
      <point x="769" y="830"/>
      <point x="679" y="830" type="curve" smooth="yes"/>
      <point x="593" y="830"/>
      <point x="520" y="798"/>
      <point x="479" y="747" type="curve"/>
      <point x="451" y="767"/>
      <point x="406" y="780"/>
      <point x="352" y="780" type="curve" smooth="yes"/>
      <point x="244" y="780"/>
      <point x="155" y="730"/>
      <point x="126" y="653" type="curve" smooth="yes"/>
      <point x="116" y="627"/>
      <point x="112" y="599"/>
      <point x="111" y="530" type="curve"/>
      <point x="35" y="530" type="line"/>
      <point x="23" y="498" type="line"/>
      <point x="111" y="498" type="line"/>
      <point x="111" y="34" type="line"/>
      <point x="36" y="19" type="line"/>
    </contour>
    <contour>
      <point x="206" y="530" type="line" smooth="yes"/>
      <point x="206" y="631"/>
      <point x="208" y="651"/>
      <point x="224" y="681" type="curve" smooth="yes"/>
      <point x="247" y="726"/>
      <point x="278" y="746"/>
      <point x="324" y="746" type="curve" smooth="yes"/>
      <point x="387" y="746"/>
      <point x="429" y="711"/>
      <point x="441" y="649" type="curve"/>
      <point x="439" y="623"/>
      <point x="438" y="585"/>
      <point x="438" y="530" type="curve"/>
    </contour>
  </outline>
</glyph>
<glyph name="f_f_j" format="1">
  <advance width="936"/>
  <outline>
    <contour>
      <point x="36" y="0" type="line"/>
      <point x="312" y="0" type="line"/>
      <point x="312" y="19" type="line"/>
      <point x="206" y="34" type="line"/>
      <point x="206" y="498" type="line"/>
      <point x="438" y="498" type="line"/>
      <point x="438" y="34" type="line"/>
      <point x="363" y="19" type="line"/>
      <point x="363" y="0" type="line"/>
      <point x="639" y="0" type="line"/>
      <point x="639" y="19" type="line"/>
      <point x="533" y="34" type="line"/>
      <point x="533" y="498" type="line"/>
      <point x="681" y="498" type="line"/>
      <point x="755" y="486" type="line"/>
      <point x="755" y="-48" type="line" smooth="yes"/>
      <point x="755" y="-159"/>
      <point x="728" y="-213"/>
      <point x="672" y="-213" type="curve" smooth="yes"/>
      <point x="647" y="-213"/>
      <point x="636" y="-202"/>
      <point x="622" y="-164" type="curve" smooth="yes"/>
      <point x="611" y="-134"/>
      <point x="595" y="-118"/>
      <point x="567" y="-118" type="curve" smooth="yes"/>
      <point x="534" y="-118"/>
      <point x="513" y="-141"/>
      <point x="513" y="-178" type="curve" smooth="yes"/>
      <point x="513" y="-229"/>
      <point x="555" y="-260"/>
      <point x="623" y="-260" type="curve" smooth="yes"/>
      <point x="703" y="-260"/>
      <point x="771" y="-215"/>
      <point x="817" y="-131" type="curve" smooth="yes"/>
      <point x="846" y="-78"/>
      <point x="850" y="-41"/>
      <point x="850" y="155" type="curve" smooth="yes"/>
      <point x="850" y="578" type="line"/>
      <point x="841" y="578" type="line"/>
      <point x="681" y="530" type="line"/>
      <point x="533" y="530" type="line"/>
      <point x="533" y="585" type="line" smooth="yes"/>
      <point x="533" y="672"/>
      <point x="538" y="706"/>
      <point x="551" y="729" type="curve" smooth="yes"/>
      <point x="576" y="773"/>
      <point x="609" y="794"/>
      <point x="664" y="794" type="curve" smooth="yes"/>
      <point x="706" y="794"/>
      <point x="720" y="784"/>
      <point x="733" y="742" type="curve" smooth="yes"/>
      <point x="747" y="700"/>
      <point x="767" y="681"/>
      <point x="796" y="681" type="curve" smooth="yes"/>
      <point x="829" y="681"/>
      <point x="851" y="705"/>
      <point x="851" y="739" type="curve" smooth="yes"/>
      <point x="851" y="794"/>
      <point x="785" y="830"/>
      <point x="673" y="830" type="curve" smooth="yes"/>
      <point x="595" y="830"/>
      <point x="522" y="799"/>
      <point x="479" y="747" type="curve"/>
      <point x="451" y="767"/>
      <point x="406" y="780"/>
      <point x="352" y="780" type="curve" smooth="yes"/>
      <point x="244" y="780"/>
      <point x="155" y="730"/>
      <point x="126" y="653" type="curve" smooth="yes"/>
      <point x="116" y="627"/>
      <point x="112" y="599"/>
      <point x="111" y="530" type="curve"/>
      <point x="35" y="530" type="line"/>
      <point x="23" y="498" type="line"/>
      <point x="111" y="498" type="line"/>
      <point x="111" y="34" type="line"/>
      <point x="36" y="19" type="line"/>
    </contour>
    <contour>
      <point x="206" y="530" type="line" smooth="yes"/>
      <point x="206" y="631"/>
      <point x="208" y="651"/>
      <point x="224" y="681" type="curve" smooth="yes"/>
      <point x="247" y="726"/>
      <point x="278" y="746"/>
      <point x="324" y="746" type="curve" smooth="yes"/>
      <point x="387" y="746"/>
      <point x="430" y="710"/>
      <point x="441" y="648" type="curve"/>
      <point x="439" y="620"/>
      <point x="438" y="582"/>
      <point x="438" y="530" type="curve"/>
    </contour>
  </outline>
</glyph>
<glyph name="f_f_k" format="1">
  <advance width="1247"/>
  <outline>
    <contour>
      <point x="36" y="0" type="line"/>
      <point x="312" y="0" type="line"/>
      <point x="312" y="19" type="line"/>
      <point x="206" y="34" type="line"/>
      <point x="206" y="498" type="line"/>
      <point x="438" y="498" type="line"/>
      <point x="438" y="34" type="line"/>
      <point x="363" y="19" type="line"/>
      <point x="363" y="0" type="line"/>
      <point x="639" y="0" type="line"/>
      <point x="639" y="19" type="line"/>
      <point x="533" y="34" type="line"/>
      <point x="533" y="498" type="line"/>
      <point x="666" y="498" type="line"/>
      <point x="678" y="530" type="line"/>
      <point x="533" y="530" type="line"/>
      <point x="533" y="585" type="line" smooth="yes"/>
      <point x="533" y="681"/>
      <point x="535" y="701"/>
      <point x="551" y="731" type="curve" smooth="yes"/>
      <point x="574" y="776"/>
      <point x="605" y="796"/>
      <point x="661" y="796" type="curve" smooth="yes"/>
      <point x="713" y="796"/>
      <point x="755" y="759"/>
      <point x="755" y="709" type="curve" smooth="yes"/>
      <point x="755" y="35" type="line"/>
      <point x="679" y="20" type="line"/>
      <point x="679" y="0" type="line"/>
      <point x="922" y="0" type="line"/>
      <point x="922" y="20" type="line"/>
      <point x="847" y="35" type="line"/>
      <point x="847" y="206" type="line"/>
      <point x="886" y="252" type="line"/>
      <point x="1093" y="0" type="line"/>
      <point x="1268" y="0" type="line"/>
      <point x="1268" y="20" type="line"/>
      <point x="1184" y="35" type="line"/>
      <point x="946" y="321" type="line"/>
      <point x="1059" y="453" type="line" smooth="yes"/>
      <point x="1089" y="488"/>
      <point x="1104" y="495"/>
      <point x="1185" y="510" type="curve"/>
      <point x="1185" y="530" type="line"/>
      <point x="961" y="530" type="line"/>
      <point x="961" y="510" type="line"/>
      <point x="1020" y="503"/>
      <point x="1035" y="498"/>
      <point x="1035" y="486" type="curve" smooth="yes"/>
      <point x="1035" y="478"/>
      <point x="1028" y="466"/>
      <point x="1014" y="450" type="curve" smooth="yes"/>
      <point x="847" y="260" type="line"/>
      <point x="847" y="776" type="line" smooth="yes"/>
      <point x="847" y="807"/>
      <point x="770" y="830"/>
      <point x="679" y="830" type="curve" smooth="yes"/>
      <point x="593" y="830"/>
      <point x="520" y="798"/>
      <point x="479" y="747" type="curve"/>
      <point x="451" y="767"/>
      <point x="406" y="780"/>
      <point x="352" y="780" type="curve" smooth="yes"/>
      <point x="244" y="780"/>
      <point x="155" y="730"/>
      <point x="126" y="653" type="curve" smooth="yes"/>
      <point x="116" y="627"/>
      <point x="112" y="599"/>
      <point x="111" y="530" type="curve"/>
      <point x="35" y="530" type="line"/>
      <point x="23" y="498" type="line"/>
      <point x="111" y="498" type="line"/>
      <point x="111" y="34" type="line"/>
      <point x="36" y="19" type="line"/>
    </contour>
    <contour>
      <point x="206" y="530" type="line" smooth="yes"/>
      <point x="206" y="631"/>
      <point x="208" y="651"/>
      <point x="224" y="681" type="curve" smooth="yes"/>
      <point x="247" y="726"/>
      <point x="278" y="746"/>
      <point x="324" y="746" type="curve" smooth="yes"/>
      <point x="387" y="746"/>
      <point x="429" y="711"/>
      <point x="441" y="649" type="curve"/>
      <point x="439" y="623"/>
      <point x="438" y="585"/>
      <point x="438" y="530" type="curve"/>
    </contour>
  </outline>
</glyph>
<glyph name="f_k" format="1">
  <advance width="920"/>
  <outline>
    <contour>
      <point x="36" y="0" type="line"/>
      <point x="312" y="0" type="line"/>
      <point x="312" y="19" type="line"/>
      <point x="206" y="34" type="line"/>
      <point x="206" y="498" type="line"/>
      <point x="339" y="498" type="line"/>
      <point x="351" y="530" type="line"/>
      <point x="206" y="530" type="line"/>
      <point x="206" y="585" type="line" smooth="yes"/>
      <point x="206" y="681"/>
      <point x="208" y="701"/>
      <point x="224" y="731" type="curve" smooth="yes"/>
      <point x="247" y="776"/>
      <point x="278" y="796"/>
      <point x="334" y="796" type="curve" smooth="yes"/>
      <point x="388" y="796"/>
      <point x="428" y="757"/>
      <point x="428" y="705" type="curve" smooth="yes"/>
      <point x="428" y="35" type="line"/>
      <point x="352" y="20" type="line"/>
      <point x="352" y="0" type="line"/>
      <point x="595" y="0" type="line"/>
      <point x="595" y="20" type="line"/>
      <point x="520" y="35" type="line"/>
      <point x="520" y="206" type="line"/>
      <point x="559" y="252" type="line"/>
      <point x="766" y="0" type="line"/>
      <point x="941" y="0" type="line"/>
      <point x="941" y="20" type="line"/>
      <point x="857" y="35" type="line"/>
      <point x="619" y="321" type="line"/>
      <point x="732" y="453" type="line" smooth="yes"/>
      <point x="762" y="488"/>
      <point x="777" y="495"/>
      <point x="858" y="510" type="curve"/>
      <point x="858" y="530" type="line"/>
      <point x="634" y="530" type="line"/>
      <point x="634" y="510" type="line"/>
      <point x="693" y="503"/>
      <point x="708" y="498"/>
      <point x="708" y="486" type="curve" smooth="yes"/>
      <point x="708" y="478"/>
      <point x="701" y="466"/>
      <point x="687" y="450" type="curve" smooth="yes"/>
      <point x="520" y="260" type="line"/>
      <point x="520" y="776" type="line" smooth="yes"/>
      <point x="520" y="807"/>
      <point x="443" y="830"/>
      <point x="352" y="830" type="curve" smooth="yes"/>
      <point x="244" y="830"/>
      <point x="155" y="780"/>
      <point x="126" y="703" type="curve" smooth="yes"/>
      <point x="114" y="672"/>
      <point x="111" y="636"/>
      <point x="111" y="530" type="curve"/>
      <point x="35" y="530" type="line"/>
      <point x="23" y="498" type="line"/>
      <point x="111" y="498" type="line"/>
      <point x="111" y="34" type="line"/>
      <point x="36" y="19" type="line"/>
    </contour>
  </outline>
</glyph>
<glyph name="five.numerator" format="1">
  <advance width="358"/>
  <outline>
    <contour>
      <point x="127" y="686" type="line"/>
      <point x="275" y="686" type="line"/>
      <point x="299" y="786" type="line"/>
      <point x="281" y="796" type="line"/>
      <point x="264" y="767" type="line"/>
      <point x="102" y="767" type="line"/>
      <point x="69" y="515" type="line"/>
      <point x="87" y="515" type="line"/>
      <point x="105" y="525"/>
      <point x="125" y="531"/>
      <point x="148" y="531" type="curve" smooth="yes"/>
      <point x="204" y="531"/>
      <point x="243" y="494"/>
      <point x="243" y="442" type="curve" smooth="yes"/>
      <point x="243" y="390"/>
      <point x="208" y="353"/>
      <point x="162" y="353" type="curve" smooth="yes"/>
      <point x="96" y="353"/>
      <point x="123" y="435"/>
      <point x="70" y="435" type="curve" smooth="yes"/>
      <point x="48" y="435"/>
      <point x="33" y="417"/>
      <point x="33" y="391" type="curve" smooth="yes"/>
      <point x="33" y="347"/>
      <point x="80" y="315"/>
      <point x="145" y="315" type="curve" smooth="yes"/>
      <point x="240" y="315"/>
      <point x="313" y="385"/>
      <point x="313" y="479" type="curve" smooth="yes"/>
      <point x="313" y="561"/>
      <point x="253" y="617"/>
      <point x="164" y="617" type="curve" smooth="yes"/>
      <point x="147" y="617"/>
      <point x="132" y="615"/>
      <point x="115" y="609" type="curve"/>
    </contour>
  </outline>
</glyph>
<glyph name="four.numerator" format="1">
  <advance width="376"/>
  <outline>
    <contour>
      <point x="196" y="356" type="line"/>
      <point x="126" y="342" type="line"/>
      <point x="126" y="320" type="line"/>
      <point x="329" y="320" type="line"/>
      <point x="329" y="342" type="line"/>
      <point x="277" y="356" type="line"/>
      <point x="277" y="434" type="line"/>
      <point x="331" y="434" type="line"/>
      <point x="331" y="491" type="line"/>
      <point x="277" y="491" type="line"/>
      <point x="277" y="774" type="line"/>
      <point x="241" y="779" type="line"/>
      <point x="16" y="468" type="line"/>
      <point x="25" y="434" type="line"/>
      <point x="196" y="434" type="line"/>
    </contour>
    <contour>
      <point x="196" y="491" type="line"/>
      <point x="78" y="491" type="line"/>
      <point x="76" y="495" type="line"/>
      <point x="192" y="655" type="line"/>
      <point x="196" y="655" type="line"/>
    </contour>
  </outline>
</glyph>
<glyph name="four.oldstyle" format="1">
  <advance width="556"/>
  <outline>
    <contour>
      <point x="312" y="-181" type="line"/>
      <point x="413" y="-181" type="line"/>
      <point x="413" y="10" type="line"/>
      <point x="526" y="10" type="line"/>
      <point x="526" y="100" type="line"/>
      <point x="413" y="100" type="line"/>
      <point x="413" y="530" type="line"/>
      <point x="387" y="540" type="line"/>
      <point x="4" y="27" type="line"/>
      <point x="12" y="10" type="line"/>
      <point x="312" y="10" type="line"/>
    </contour>
    <contour>
      <point x="312" y="100" type="line"/>
      <point x="118" y="100" type="line"/>
      <point x="117" y="104" type="line"/>
      <point x="308" y="358" type="line"/>
      <point x="312" y="358" type="line"/>
    </contour>
  </outline>
</glyph>
<glyph name="less.tnum" format="1">
  <advance width="600"/>
  <outline>
    <contour>
      <point x="503" y="116" type="line"/>
      <point x="503" y="181" type="line"/>
      <point x="166" y="337" type="line"/>
      <point x="166" y="341" type="line"/>
      <point x="503" y="495" type="line"/>
      <point x="503" y="556" type="line"/>
      <point x="94" y="361" type="line"/>
      <point x="94" y="310" type="line"/>
    </contour>
  </outline>
</glyph>
<glyph name="multiply.tnum" format="1">
  <advance width="600"/>
  <outline>
    <contour>
      <point x="441" y="162" type="line"/>
      <point x="478" y="199" type="line"/>
      <point x="160" y="517" type="line"/>
      <point x="123" y="480" type="line"/>
    </contour>
    <contour>
      <point x="122" y="199" type="line"/>
      <point x="161" y="160" type="line"/>
      <point x="479" y="478" type="line"/>
      <point x="440" y="517" type="line"/>
    </contour>
  </outline>
</glyph>
<glyph name="nine.denominator" format="1">
  <advance width="382"/>
  <outline>
    <contour>
      <point x="186" y="453" type="curve"/>
      <point x="95" y="453"/>
      <point x="33" y="395"/>
      <point x="33" y="308" type="curve" smooth="yes"/>
      <point x="33" y="232"/>
      <point x="87" y="175"/>
      <point x="162" y="175" type="curve" smooth="yes"/>
      <point x="195" y="175"/>
      <point x="225" y="187"/>
      <point x="240" y="206" type="curve"/>
      <point x="231" y="141"/>
      <point x="163" y="50"/>
      <point x="97" y="14" type="curve"/>
      <point x="108" y="-10" type="line"/>
      <point x="246" y="39"/>
      <point x="336" y="157"/>
      <point x="336" y="288" type="curve" smooth="yes"/>
      <point x="336" y="390"/>
      <point x="279" y="453"/>
    </contour>
    <contour>
      <point x="182" y="418" type="curve"/>
      <point x="222" y="418"/>
      <point x="248" y="376"/>
      <point x="248" y="308" type="curve" smooth="yes"/>
      <point x="248" y="288"/>
      <point x="245" y="267"/>
      <point x="241" y="252" type="curve"/>
      <point x="229" y="232"/>
      <point x="208" y="220"/>
      <point x="187" y="220" type="curve" smooth="yes"/>
      <point x="145" y="220"/>
      <point x="120" y="258"/>
      <point x="120" y="318" type="curve" smooth="yes"/>
      <point x="120" y="379"/>
      <point x="144" y="418"/>
    </contour>
  </outline>
</glyph>
<glyph name="nine.oldstyle" format="1">
  <advance width="519"/>
  <outline>
    <contour>
      <point x="258" y="540" type="curve" smooth="yes"/>
      <point x="129" y="540"/>
      <point x="38" y="442"/>
      <point x="38" y="301" type="curve" smooth="yes"/>
      <point x="38" y="176"/>
      <point x="116" y="86"/>
      <point x="223" y="86" type="curve" smooth="yes"/>
      <point x="274" y="86"/>
      <point x="322" y="106"/>
      <point x="345" y="138" type="curve"/>
      <point x="349" y="136" type="line"/>
      <point x="326" y="2"/>
      <point x="241" y="-94"/>
      <point x="76" y="-171" type="curve"/>
      <point x="89" y="-197" type="line"/>
      <point x="327" y="-120"/>
      <point x="476" y="57"/>
      <point x="476" y="265" type="curve" smooth="yes"/>
      <point x="476" y="436"/>
      <point x="394" y="540"/>
    </contour>
    <contour>
      <point x="255" y="495" type="curve" smooth="yes"/>
      <point x="319" y="495"/>
      <point x="359" y="419"/>
      <point x="359" y="304" type="curve" smooth="yes"/>
      <point x="359" y="265"/>
      <point x="354" y="226"/>
      <point x="347" y="197" type="curve"/>
      <point x="328" y="163"/>
      <point x="298" y="143"/>
      <point x="263" y="143" type="curve" smooth="yes"/>
      <point x="199" y="143"/>
      <point x="157" y="212"/>
      <point x="157" y="319" type="curve" smooth="yes"/>
      <point x="157" y="427"/>
      <point x="195" y="495"/>
    </contour>
  </outline>
</glyph>
<glyph name="numbersign.tnum" format="1">
  <advance width="600"/>
  <outline>
    <contour>
      <point x="39" y="469" type="line" name="hr00"/>
      <point x="583" y="469" type="line"/>
      <point x="595" y="525" type="line"/>
      <point x="51" y="525" type="line"/>
    </contour>
    <contour>
      <point x="1" y="262" type="line"/>
      <point x="545" y="262" type="line"/>
      <point x="559" y="318" type="line"/>
      <point x="15" y="318" type="line"/>
    </contour>
    <contour>
      <point x="215" y="696" type="line"/>
      <point x="120" y="92" type="line"/>
      <point x="178" y="92" type="line"/>
      <point x="273" y="696" type="line"/>
    </contour>
    <contour>
      <point x="422" y="696" type="line"/>
      <point x="327" y="92" type="line"/>
      <point x="384" y="92" type="line"/>
      <point x="479" y="696" type="line"/>
    </contour>
  </outline>
</glyph>
<glyph name="one.tnum" format="1">
  <advance width="600"/>
  <outline>
    <contour>
      <point x="352" y="780" type="line" name="hr00"/>
      <point x="281" y="713"/>
      <point x="209" y="672"/>
      <point x="140" y="650" type="curve"/>
      <point x="140" y="629" type="line"/>
      <point x="268" y="629" type="line"/>
      <point x="268" y="42" type="line"/>
      <point x="136" y="22" type="line"/>
      <point x="136" y="0" type="line"/>
      <point x="502" y="0" type="line"/>
      <point x="502" y="22" type="line"/>
      <point x="373" y="42" type="line"/>
      <point x="373" y="772" type="line"/>
    </contour>
  </outline>
</glyph>
<glyph name="period.tnum" format="1">
  <advance width="300"/>
  <outline>
    <contour>
      <point x="81" y="58" type="curve" smooth="yes"/>
      <point x="81" y="21"/>
      <point x="108" y="-10"/>
      <point x="149" y="-10" type="curve" smooth="yes"/>
      <point x="192" y="-10"/>
      <point x="219" y="21"/>
      <point x="219" y="58" type="curve" smooth="yes"/>
      <point x="219" y="98"/>
      <point x="192" y="128"/>
      <point x="149" y="128" type="curve" smooth="yes"/>
      <point x="108" y="128"/>
      <point x="81" y="98"/>
    </contour>
  </outline>
</glyph>
<glyph name="plusminus.tnum" format="1">
  <advance width="600"/>
  <outline>
    <contour>
      <point x="505" y="422" type="line"/>
      <point x="505" y="471" type="line"/>
      <point x="95" y="471" type="line"/>
      <point x="95" y="422" type="line"/>
    </contour>
    <contour>
      <point x="275" y="241" type="line"/>
      <point x="326" y="241" type="line"/>
      <point x="326" y="651" type="line"/>
      <point x="275" y="651" type="line"/>
    </contour>
    <contour>
      <point x="505" y="106" type="line"/>
      <point x="505" y="155" type="line"/>
      <point x="95" y="155" type="line"/>
      <point x="95" y="106" type="line"/>
    </contour>
  </outline>
</glyph>
<glyph name="quotedbl.tnum" format="1">
  <advance width="300"/>
  <outline>
    <contour>
      <point x="89" y="505" type="line"/>
      <point x="93" y="626"/>
      <point x="127" y="723"/>
      <point x="127" y="774" type="curve" smooth="yes"/>
      <point x="127" y="806"/>
      <point x="108" y="830"/>
      <point x="74" y="830" type="curve" smooth="yes"/>
      <point x="41" y="830"/>
      <point x="21" y="807"/>
      <point x="21" y="770" type="curve" smooth="yes"/>
      <point x="21" y="722"/>
      <point x="56" y="625"/>
      <point x="59" y="505" type="curve"/>
    </contour>
    <contour>
      <point x="241" y="505" type="line"/>
      <point x="245" y="626"/>
      <point x="279" y="723"/>
      <point x="279" y="774" type="curve" smooth="yes"/>
      <point x="279" y="806"/>
      <point x="260" y="830"/>
      <point x="226" y="830" type="curve" smooth="yes"/>
      <point x="193" y="830"/>
      <point x="173" y="807"/>
      <point x="173" y="770" type="curve" smooth="yes"/>
      <point x="173" y="722"/>
      <point x="208" y="625"/>
      <point x="211" y="505" type="curve"/>
    </contour>
  </outline>
</glyph>
<glyph name="quotesingle.tnum" format="1">
  <advance width="300"/>
  <outline>
    <contour>
      <point x="165" y="505" type="line"/>
      <point x="169" y="626"/>
      <point x="203" y="723"/>
      <point x="203" y="774" type="curve" smooth="yes"/>
      <point x="203" y="806"/>
      <point x="184" y="830"/>
      <point x="150" y="830" type="curve" smooth="yes"/>
      <point x="117" y="830"/>
      <point x="97" y="807"/>
      <point x="97" y="770" type="curve" smooth="yes"/>
      <point x="97" y="722"/>
      <point x="132" y="625"/>
      <point x="135" y="505" type="curve"/>
    </contour>
  </outline>
</glyph>
<glyph name="section.tnum" format="1">
  <advance width="600"/>
  <outline>
    <contour>
      <point x="318" y="830" type="curve" smooth="yes"/>
      <point x="183" y="830"/>
      <point x="101" y="764"/>
      <point x="101" y="656" type="curve" smooth="yes"/>
      <point x="101" y="567"/>
      <point x="156" y="521"/>
      <point x="221" y="487" type="curve"/>
      <point x="143" y="461"/>
      <point x="96" y="402"/>
      <point x="96" y="325" type="curve" smooth="yes"/>
      <point x="96" y="118"/>
      <point x="427" y="168"/>
      <point x="427" y="-15" type="curve" smooth="yes"/>
      <point x="427" y="-84"/>
      <point x="379" y="-126"/>
      <point x="300" y="-126" type="curve" smooth="yes"/>
      <point x="233" y="-126"/>
      <point x="217" y="-97"/>
      <point x="201" y="-56" type="curve" smooth="yes"/>
      <point x="185" y="-13"/>
      <point x="175" y="7"/>
      <point x="146" y="7" type="curve" smooth="yes"/>
      <point x="115" y="7"/>
      <point x="96" y="-15"/>
      <point x="96" y="-47" type="curve" smooth="yes"/>
      <point x="96" y="-112"/>
      <point x="174" y="-158"/>
      <point x="284" y="-158" type="curve" smooth="yes"/>
      <point x="421" y="-158"/>
      <point x="504" y="-87"/>
      <point x="504" y="28" type="curve" smooth="yes"/>
      <point x="504" y="109"/>
      <point x="462" y="155"/>
      <point x="409" y="188" type="curve"/>
      <point x="471" y="220"/>
      <point x="509" y="280"/>
      <point x="509" y="354" type="curve" smooth="yes"/>
      <point x="509" y="572"/>
      <point x="180" y="521"/>
      <point x="180" y="694" type="curve" smooth="yes"/>
      <point x="180" y="760"/>
      <point x="227" y="798"/>
      <point x="308" y="798" type="curve" smooth="yes"/>
      <point x="359" y="798"/>
      <point x="379" y="783"/>
      <point x="397" y="738" type="curve" smooth="yes"/>
      <point x="413" y="698"/>
      <point x="423" y="675"/>
      <point x="453" y="675" type="curve" smooth="yes"/>
      <point x="483" y="675"/>
      <point x="503" y="697"/>
      <point x="503" y="728" type="curve" smooth="yes"/>
      <point x="503" y="788"/>
      <point x="426" y="830"/>
    </contour>
    <contour>
      <point x="432" y="313" type="curve" smooth="yes"/>
      <point x="432" y="268"/>
      <point x="407" y="230"/>
      <point x="369" y="209" type="curve"/>
      <point x="278" y="251"/>
      <point x="175" y="273"/>
      <point x="175" y="361" type="curve" smooth="yes"/>
      <point x="175" y="411"/>
      <point x="210" y="453"/>
      <point x="262" y="467" type="curve"/>
      <point x="350" y="428"/>
      <point x="432" y="392"/>
    </contour>
  </outline>
</glyph>
<glyph name="semicolon.tnum" format="1">
  <advance width="300"/>
  <outline>
    <contour>
      <point x="81" y="401" type="curve" smooth="yes"/>
      <point x="81" y="364"/>
      <point x="108" y="333"/>
      <point x="149" y="333" type="curve" smooth="yes"/>
      <point x="192" y="333"/>
      <point x="219" y="364"/>
      <point x="219" y="401" type="curve" smooth="yes"/>
      <point x="219" y="441"/>
      <point x="192" y="471"/>
      <point x="149" y="471" type="curve" smooth="yes"/>
      <point x="108" y="471"/>
      <point x="81" y="441"/>
    </contour>
    <contour>
      <point x="114" y="-151" type="line"/>
      <point x="183" y="-101"/>
      <point x="220" y="-38"/>
      <point x="220" y="30" type="curve" smooth="yes"/>
      <point x="220" y="89"/>
      <point x="191" y="128"/>
      <point x="148" y="128" type="curve" smooth="yes"/>
      <point x="110" y="128"/>
      <point x="80" y="99"/>
      <point x="80" y="61" type="curve" smooth="yes"/>
      <point x="80" y="0"/>
      <point x="156" y="4"/>
      <point x="156" y="-36" type="curve" smooth="yes"/>
      <point x="156" y="-59"/>
      <point x="131" y="-94"/>
      <point x="94" y="-122" type="curve"/>
    </contour>
  </outline>
</glyph>
<glyph name="six.denominator" format="1">
  <advance width="385"/>
  <outline>
    <contour>
      <point x="196" y="-10" type="curve" smooth="yes"/>
      <point x="287" y="-10"/>
      <point x="350" y="49"/>
      <point x="350" y="135" type="curve" smooth="yes"/>
      <point x="350" y="215"/>
      <point x="296" y="274"/>
      <point x="220" y="274" type="curve" smooth="yes"/>
      <point x="187" y="274"/>
      <point x="157" y="262"/>
      <point x="143" y="244" type="curve"/>
      <point x="151" y="307"/>
      <point x="219" y="395"/>
      <point x="285" y="430" type="curve"/>
      <point x="274" y="453" type="line"/>
      <point x="136" y="404"/>
      <point x="46" y="286"/>
      <point x="46" y="156" type="curve" smooth="yes"/>
      <point x="46" y="53"/>
      <point x="103" y="-10"/>
    </contour>
    <contour>
      <point x="201" y="26" type="curve" smooth="yes"/>
      <point x="160" y="26"/>
      <point x="135" y="68"/>
      <point x="135" y="136" type="curve" smooth="yes"/>
      <point x="135" y="158"/>
      <point x="137" y="181"/>
      <point x="141" y="198" type="curve"/>
      <point x="153" y="218"/>
      <point x="174" y="230"/>
      <point x="196" y="230" type="curve" smooth="yes"/>
      <point x="237" y="230"/>
      <point x="263" y="190"/>
      <point x="263" y="125" type="curve" smooth="yes"/>
      <point x="263" y="64"/>
      <point x="238" y="26"/>
    </contour>
  </outline>
</glyph>
